<svg id="Layer_1" data-name="Layer 1" xmlns="http://www.w3.org/2000/svg" viewBox="0 0 1217.58532 729.50932"><defs><style>.cls-1,.cls-2{fill:#fff;}.cls-1{opacity:0.3;}.cls-2{opacity:0.15;}</style></defs><title>bg-sky</title><rect class="cls-1" x="1182.38101" y="730.56757" width="18.1607" height="18.1607" transform="translate(2361.89107 1362.15638) rotate(-180)"/><rect class="cls-1" x="201.03056" y="558.37723" width="9.41666" height="9.41666" transform="translate(390.44614 1009.03165) rotate(-180)"/><rect class="cls-1" x="278.38169" y="504.56774" width="5.38095" height="5.38095" transform="translate(541.11269 897.37697) rotate(-180)"/><rect class="cls-1" x="88.70326" y="345.15715" width="5.38095" height="5.38095" transform="translate(161.75584 578.55578) rotate(-180)"/><rect class="cls-1" x="416.94111" y="349.19286" width="5.38095" height="5.38095" transform="translate(818.23153 586.6272) rotate(-180)"/><rect class="cls-2" x="261.56623" y="520.71059" width="4.03571" height="4.03571" transform="translate(506.13653 928.31742) rotate(-180)"/><rect class="cls-2" x="320.75666" y="438.65113" width="4.03571" height="4.03571" transform="translate(624.51739 764.1985) rotate(-180)"/><rect class="cls-2" x="394.07208" y="386.18688" width="4.03571" height="4.03571" transform="translate(771.14823 659.27001) rotate(-180)"/><rect class="cls-2" x="226.59006" y="394.93092" width="4.03571" height="4.03571" transform="translate(436.1842 676.75809) rotate(-180)"/><rect class="cls-2" x="103.50087" y="452.77612" width="4.03571" height="4.03571" transform="translate(190.00581 792.44848) rotate(-180)"/><rect class="cls-2" x="140.49489" y="388.20474" width="4.03571" height="4.03571" transform="translate(263.99385 663.30572) rotate(-180)"/><rect class="cls-2" x="379.27447" y="538.19867" width="4.03571" height="4.03571" transform="translate(741.55301 963.29358) rotate(-180)"/><rect class="cls-2" x="404.83398" y="571.8296" width="4.03571" height="4.03571" transform="translate(792.67202 1030.55544) rotate(-180)"/><rect class="cls-2" x="527.92317" y="533.49034" width="4.03571" height="4.03571" transform="translate(1038.85041 953.87693) rotate(-180)"/><rect class="cls-2" x="579.04218" y="602.09743" width="4.03571" height="4.03571" transform="translate(1141.08843 1091.09111) rotate(-180)"/><rect class="cls-2" x="558.86362" y="612.85933" width="2.69047" height="2.69047" transform="translate(1099.38608 1111.26966) rotate(-180)"/><rect class="cls-2" x="547.42911" y="630.34741" width="4.03571" height="4.03571" transform="translate(1077.86228 1147.59106) rotate(-180)"/><rect class="cls-1" x="375.23876" y="731.91281" width="7.3988" height="7.3988" transform="translate(736.84469 1354.08495) rotate(-180)"/><rect class="cls-1" x="322.77452" y="657.25215" width="4.70833" height="4.70833" transform="translate(629.22572 1202.07317) rotate(-180)"/><rect class="cls-1" x="517.83389" y="688.86522" width="4.70833" height="4.70833" transform="translate(1019.34447 1265.29931) rotate(-180)"/><rect class="cls-2" x="420.97682" y="679.44856" width="2.69047" height="2.69047" transform="translate(823.61248 1244.44813) rotate(-180)"/><rect class="cls-2" x="331.51856" y="686.84737" width="2.69047" height="2.69047" transform="translate(644.69595 1259.24574) rotate(-180)"/><rect class="cls-2" x="278.38169" y="674.74023" width="2.69047" height="2.69047" transform="translate(538.42222 1235.03147) rotate(-180)"/><rect class="cls-1" x="1038.94886" y="371.26248" width="7.93828" height="7.93828"/><rect class="cls-1" x="880.95926" y="545.13322" width="4.53616" height="4.53616"/><rect class="cls-1" x="1040.85882" y="679.51689" width="4.53616" height="4.53616"/><rect class="cls-1" x="764.1532" y="676.11478" width="4.53616" height="4.53616"/><rect class="cls-2" x="896.26879" y="532.65879" width="3.40212" height="3.40212"/><rect class="cls-2" x="846.37106" y="601.83519" width="3.40212" height="3.40212"/><rect class="cls-2" x="784.56591" y="646.06273" width="3.40212" height="3.40212"/><rect class="cls-2" x="925.75382" y="638.69147" width="3.40212" height="3.40212"/><rect class="cls-2" x="1029.51843" y="589.92778" width="3.40212" height="3.40212"/><rect class="cls-2" x="998.33234" y="644.36167" width="3.40212" height="3.40212"/><rect class="cls-2" x="797.04034" y="517.91627" width="3.40212" height="3.40212"/><rect class="cls-2" x="775.49359" y="489.56529" width="3.40212" height="3.40212"/><rect class="cls-2" x="671.72898" y="521.88541" width="3.40212" height="3.40212"/><rect class="cls-2" x="628.63548" y="464.0494" width="3.40212" height="3.40212"/><rect class="cls-2" x="646.78011" y="456.11112" width="2.26808" height="2.26808"/><rect class="cls-2" x="655.28541" y="440.23457" width="3.40212" height="3.40212"/><rect class="cls-1" x="835.94662" y="320.16642" width="6.23722" height="6.23722"/><rect class="cls-1" x="882.44223" y="385.37369" width="3.96914" height="3.96914"/><rect class="cls-1" x="679.66726" y="390.33684" width="3.96914" height="3.96914"/><rect class="cls-2" x="801.35841" y="368.3631" width="2.26808" height="2.26808"/><rect class="cls-2" x="876.77204" y="362.12588" width="2.26808" height="2.26808"/><rect class="cls-2" x="921.56659" y="372.33224" width="2.26808" height="2.26808"/><rect class="cls-1" x="1114.95475" y="144.59003" width="7.93828" height="7.93828"/><rect class="cls-1" x="1053.1496" y="193.35373" width="4.53616" height="4.53616"/><rect class="cls-1" x="1213.04917" y="327.7374" width="4.53616" height="4.53616"/><rect class="cls-1" x="936.34354" y="324.33528" width="4.53616" height="4.53616"/><rect class="cls-2" x="1068.45914" y="180.87929" width="3.40212" height="3.40212"/><rect class="cls-2" x="1018.5614" y="250.0557" width="3.40212" height="3.40212"/><rect class="cls-2" x="956.75625" y="294.28324" width="3.40212" height="3.40212"/><rect class="cls-2" x="1097.94416" y="286.91198" width="3.40212" height="3.40212"/><rect class="cls-2" x="1201.70877" y="238.14828" width="3.40212" height="3.40212"/><rect class="cls-2" x="1170.52269" y="292.58218" width="3.40212" height="3.40212"/><rect class="cls-1" x="21.03164" y="590.72834" width="7.93828" height="7.93828" transform="translate(598.66662 452.55723) rotate(90)"/><rect class="cls-1" x="202.34251" y="604.92909" width="4.53616" height="4.53616" transform="translate(790.77611 285.44711) rotate(90)"/><rect class="cls-1" x="67.95884" y="764.82865" width="4.53616" height="4.53616" transform="translate(816.292 579.73035) rotate(90)"/><rect class="cls-1" x="71.36095" y="488.12302" width="4.53616" height="4.53616" transform="translate(542.98849 299.6226) rotate(90)"/><rect class="cls-2" x="146.77458" y="570.34088" width="3.40212" height="3.40212" transform="translate(699.48594 306.42684) rotate(90)"/><rect class="cls-1" x="1217.35717" y="176.3299" width="9.41666" height="9.41666" transform="translate(2423.09936 244.93699) rotate(-180)"/><rect class="cls-1" x="1218.66912" y="222.88176" width="4.53616" height="4.53616" transform="translate(1425.05539 -1112.92683) rotate(90)"/><rect class="cls-2" x="1163.10119" y="188.29355" width="3.40212" height="3.40212" transform="translate(1333.76522 -1091.9471) rotate(90)"/><rect class="cls-1" x="793.19699" y="305.31655" width="6.30658" height="6.30658" transform="translate(1083.78848 -605.0199) rotate(90)"/><rect class="cls-1" x="904.26122" y="357.182" width="7.48109" height="7.48109" transform="translate(526.04758 1151.78484) rotate(-90)"/><rect class="cls-1" x="871.15531" y="358.22428" width="3.60376" height="3.60376" transform="translate(1724.88274 602.91286) rotate(-180)"/><rect class="cls-2" x="855.14211" y="326.85796" width="2.70282" height="2.70282" transform="translate(1691.95539 539.27928) rotate(-180)"/><rect class="cls-2" x="102.54704" y="508.53573" width="3.40212" height="3.40212" transform="translate(593.45325 288.84923) rotate(90)"/><rect class="cls-2" x="109.9183" y="649.72364" width="3.40212" height="3.40212" transform="translate(742.01242 422.66588) rotate(90)"/><rect class="cls-2" x="158.68199" y="753.48825" width="3.40212" height="3.40212" transform="translate(894.54072 477.6668) rotate(90)"/><rect class="cls-2" x="104.2481" y="722.30217" width="3.40212" height="3.40212" transform="translate(808.92074 500.9146) rotate(90)"/><rect class="cls-2" x="969.23069" y="166.13678" width="3.40212" height="3.40212"/><rect class="cls-2" x="947.68394" y="137.78579" width="3.40212" height="3.40212"/><rect class="cls-2" x="799.5265" y="182.88567" width="3.40212" height="3.40212"/><rect class="cls-2" x="800.82583" y="112.26991" width="3.40212" height="3.40212"/><rect class="cls-2" x="818.97046" y="104.33163" width="2.26808" height="2.26808"/><rect class="cls-2" x="827.47576" y="88.45508" width="3.40212" height="3.40212"/><rect class="cls-1" x="969.79771" width="6.23722" height="6.23722"/><rect class="cls-1" x="1016.29332" y="65.20727" width="3.96914" height="3.96914"/><rect class="cls-1" x="851.8576" y="38.55734" width="3.96914" height="3.96914"/><rect class="cls-2" x="935.2095" y="48.19668" width="2.26808" height="2.26808"/><rect class="cls-2" x="1010.62313" y="41.95946" width="2.26808" height="2.26808"/><rect class="cls-2" x="1055.41768" y="52.16581" width="2.26808" height="2.26808"/><rect class="cls-1" x="705.28441" y="134.97304" width="7.93828" height="7.93828" transform="translate(549.27973 731.05626) rotate(-90)"/><rect class="cls-1" x="754.04811" y="200.18031" width="4.53616" height="4.53616" transform="translate(532.83616 841.62511) rotate(-90)"/><rect class="cls-2" x="741.57368" y="186.00481" width="3.40212" height="3.40212" transform="translate(534.53722 813.84114) rotate(-90)"/><rect class="cls-2" x="810.75008" y="235.90255" width="3.40212" height="3.40212" transform="translate(553.81589 932.91528) rotate(-90)"/><rect class="cls-2" x="847.60636" y="156.51979" width="3.40212" height="3.40212" transform="translate(670.05493 890.38881) rotate(-90)"/><rect class="cls-2" x="405.99875" y="371.90066" width="3.40212" height="3.40212"/><rect class="cls-2" x="424.14338" y="363.96238" width="2.26808" height="2.26808"/><rect class="cls-2" x="432.64867" y="348.08583" width="3.40212" height="3.40212"/><rect class="cls-1" x="457.03052" y="298.1881" width="3.96914" height="3.96914"/><rect class="cls-2" x="415.923" y="495.5333" width="3.40212" height="3.40212" transform="translate(-100.64195 797.71896) rotate(-90)"/><rect class="cls-1" x="1027.67874" y="556.35937" width="5.38095" height="5.38095" transform="translate(2039.70679 1000.96022) rotate(-180)"/><rect class="cls-2" x="1010.86328" y="572.50221" width="4.03571" height="4.03571" transform="translate(2004.73063 1031.90068) rotate(-180)"/><rect class="cls-2" x="1128.57152" y="589.9903" width="4.03571" height="4.03571" transform="translate(2240.14712 1066.87684) rotate(-180)"/><rect class="cls-2" x="1165.22005" y="547.32493" width="3.40212" height="3.40212" transform="translate(596.86348 1598.80764) rotate(-90)"/><rect class="cls-2" x="452.77928" y="416.15054" width="3.40212" height="3.40212" transform="translate(15.5971 755.19248) rotate(-90)"/><rect class="cls-2" x="726.83116" y="285.23327" width="3.40212" height="3.40212" transform="translate(420.56626 898.32708) rotate(-90)"/><rect class="cls-2" x="698.48018" y="306.78001" width="3.40212" height="3.40212" transform="translate(370.66852 891.52284) rotate(-90)"/><rect class="cls-2" x="730.8003" y="410.54462" width="3.40212" height="3.40212" transform="translate(299.22404 1027.60758) rotate(-90)"/><rect class="cls-2" x="672.96429" y="453.63812" width="3.40212" height="3.40212" transform="translate(198.29452 1012.86507) rotate(-90)"/><rect class="cls-2" x="665.02601" y="436.62753" width="2.26808" height="2.26808" transform="translate(207.36684 986.78216) rotate(-90)"/><rect class="cls-2" x="649.14946" y="426.9882" width="3.40212" height="3.40212" transform="translate(201.12962 962.40031) rotate(-90)"/><rect class="cls-1" x="560.69438" y="281.83115" width="6.23722" height="6.23722" transform="translate(257.8316 731.62328) rotate(-90)"/><rect class="cls-1" x="625.90165" y="237.60361" width="3.96914" height="3.96914" transform="translate(367.2664 750.33493) rotate(-90)"/><rect class="cls-1" x="599.25173" y="402.03933" width="3.96914" height="3.96914" transform="translate(176.18076 888.12073) rotate(-90)"/><rect class="cls-2" x="608.89106" y="320.38849" width="2.26808" height="2.26808" transform="translate(267.47093 814.40816) rotate(-90)"/><rect class="cls-2" x="602.65384" y="244.97487" width="2.26808" height="2.26808" transform="translate(336.64734 732.75732) rotate(-90)"/><rect class="cls-2" x="612.8602" y="200.18031" width="2.26808" height="2.26808" transform="translate(391.64825 698.16912) rotate(-90)"/><rect class="cls-2" x="354.20712" y="137.15679" width="3.40212" height="3.40212"/><rect class="cls-1" x="258.6657" y="159.85992" width="7.93828" height="7.93828" transform="translate(77.77414 309.32444) rotate(-90)"/><rect class="cls-1" x="307.4294" y="225.06719" width="4.53616" height="4.53616" transform="translate(61.33057 419.89329) rotate(-90)"/><rect class="cls-2" x="294.95497" y="210.8917" width="3.40212" height="3.40212" transform="translate(63.03163 392.10932) rotate(-90)"/><rect class="cls-2" x="364.13137" y="260.78944" width="3.40212" height="3.40212" transform="translate(82.3103 511.18346) rotate(-90)"/><rect class="cls-2" x="280.21245" y="310.12015" width="3.40212" height="3.40212" transform="translate(-50.93934 476.59526) rotate(-90)"/><rect class="cls-2" x="251.86147" y="331.6669" width="3.40212" height="3.40212" transform="translate(-100.83707 469.79102) rotate(-90)"/><rect class="cls-1" x="114.07568" y="306.71803" width="6.23722" height="6.23722" transform="translate(-213.674 309.89146) rotate(-90)"/><rect class="cls-1" x="179.28294" y="262.49049" width="3.96914" height="3.96914" transform="translate(-104.23919 328.60311) rotate(-90)"/><rect class="cls-2" x="162.27235" y="345.27537" width="2.26808" height="2.26808" transform="translate(-204.03466 392.67634) rotate(-90)"/><rect class="cls-2" x="156.03513" y="269.86175" width="2.26808" height="2.26808" transform="translate(-134.85826 311.0255) rotate(-90)"/><rect class="cls-2" x="166.24149" y="225.06719" width="2.26808" height="2.26808" transform="translate(-79.85734 276.4373) rotate(-90)"/><rect class="cls-2" x="994.26992" y="843.24667" width="3.40212" height="3.40212" transform="translate(1819.88707 -268.16271) rotate(90)"/><rect class="cls-1" x="1101.47771" y="485.77234" width="7.93828" height="7.93828"/><rect class="cls-1" x="1001.3333" y="658.29785" width="4.53616" height="4.53616"/><rect class="cls-2" x="1016.64283" y="645.82341" width="3.40212" height="3.40212"/><rect class="cls-2" x="966.7451" y="714.99982" width="3.40212" height="3.40212"/><rect class="cls-2" x="1149.89247" y="703.0924" width="3.40212" height="3.40212"/><rect class="cls-2" x="917.41438" y="631.0809" width="3.40212" height="3.40212"/><rect class="cls-2" x="895.86763" y="602.72991" width="3.40212" height="3.40212"/><rect class="cls-1" x="917.9814" y="464.94412" width="6.23722" height="6.23722"/><rect class="cls-1" x="964.47702" y="530.15139" width="3.96914" height="3.96914"/><rect class="cls-2" x="883.3932" y="513.1408" width="2.26808" height="2.26808"/><rect class="cls-2" x="958.80682" y="506.90358" width="2.26808" height="2.26808"/><rect class="cls-2" x="1003.60138" y="517.10993" width="2.26808" height="2.26808"/><rect class="cls-1" x="385.91202" y="120.71092" width="4.53616" height="4.53616"/><rect class="cls-2" x="401.22155" y="108.23649" width="3.40212" height="3.40212"/><rect class="cls-1" x="422.93416" y="40.52182" width="6.23722" height="6.23722"/><rect class="cls-1" x="469.42977" y="105.72909" width="3.96914" height="3.96914"/><rect class="cls-2" x="388.34595" y="88.7185" width="2.26808" height="2.26808"/><rect class="cls-2" x="463.75958" y="82.48128" width="2.26808" height="2.26808"/><rect class="cls-2" x="508.55414" y="92.68764" width="2.26808" height="2.26808"/><rect class="cls-1" x="194.88835" y="637.95458" width="4.53616" height="4.53616"/><rect class="cls-2" x="210.19788" y="625.48014" width="3.40212" height="3.40212"/><rect class="cls-2" x="160.30015" y="694.65655" width="3.40212" height="3.40212"/><rect class="cls-2" x="343.44752" y="682.74914" width="3.40212" height="3.40212"/><rect class="cls-2" x="209.79672" y="695.55127" width="3.40212" height="3.40212"/><rect class="cls-1" x="278.40611" y="622.97275" width="3.96914" height="3.96914"/><rect class="cls-2" x="197.32229" y="605.96215" width="2.26808" height="2.26808"/><rect class="cls-2" x="317.53047" y="609.93129" width="2.26808" height="2.26808"/></svg>