<svg id="Layer_1" data-name="Layer 1" xmlns="http://www.w3.org/2000/svg" viewBox="0 0 200.56854 56.56854"><defs><style>.cls-1{fill:#494949;}.cls-2{fill:#ffec39;}.cls-3{fill:#fff;}</style></defs><title>done</title><rect class="cls-1" x="13.16806" y="14.28427" width="173.11621" height="28"/><rect class="cls-2" x="644.14214" y="487.85786" width="20" height="20" transform="translate(152.93607 828.72915) rotate(-135)"/><rect class="cls-2" x="644.14214" y="516.14214" width="20" height="20" transform="translate(132.93607 877.01342) rotate(-135)"/><rect class="cls-2" x="615.85786" y="487.85786" width="20" height="20" transform="translate(104.6518 808.72915) rotate(-135)"/><rect class="cls-2" x="615.85786" y="516.14214" width="20" height="20" transform="translate(84.6518 857.01342) rotate(-135)"/><rect class="cls-2" x="788.14214" y="487.85786" width="20" height="20" transform="translate(398.75945 930.55252) rotate(-135)"/><rect class="cls-2" x="788.14214" y="516.14214" width="20" height="20" transform="translate(378.75945 978.8368) rotate(-135)"/><rect class="cls-2" x="759.85786" y="487.85786" width="20" height="20" transform="translate(350.47518 910.55252) rotate(-135)"/><rect class="cls-2" x="759.85786" y="516.14214" width="20" height="20" transform="translate(330.47518 958.8368) rotate(-135)"/><path class="cls-3" d="M679.32568,518.91092V504.40681h10.36v2.072h2.07219v2.072h2.07189v6.216h-2.07189v2.072h-2.07219v2.072Zm4.14408-2.072h4.14407v-2.072h2.07189v-6.216h-2.07189v-2.072h-4.14407Z" transform="translate(-611.71573 -483.71573)"/><path class="cls-3" d="M697.97358,518.91092v-2.072h-2.07189v-10.36h2.07189v-2.072h10.36033v2.072h2.07189v10.36h-2.07189v2.072Zm2.07218-2.072h6.216v-10.36h-6.216Z" transform="translate(-611.71573 -483.71573)"/><path class="cls-3" d="M712.478,518.91092V504.40681h4.14407v2.072H718.694v2.072h2.07219v2.072H722.838v-6.21611h4.14407v14.50411H722.838v-4.14407h-2.07189V512.695H718.694v-2.072h-2.07189v8.288Z" transform="translate(-611.71573 -483.71573)"/><path class="cls-3" d="M729.054,518.91092V504.40681h14.50412v2.072h-10.36v4.14407h8.28815v2.072h-8.28815v4.14393h10.36v2.072Z" transform="translate(-611.71573 -483.71573)"/></svg>