<svg id="Layer_1" data-name="Layer 1" xmlns="http://www.w3.org/2000/svg" viewBox="0 0 502.32292 385.9276"><defs><style>.cls-1{fill:#fff;}.cls-2{fill:#494949;}.cls-3{fill:#422214;}.cls-4{fill:#30160e;}.cls-5{fill:#160703;}.cls-6{fill:#230f09;}</style></defs><title>hi-fred</title><rect class="cls-1" x="20" y="62.47741" width="243.31738" height="214.06055"/><rect class="cls-2" x="20" y="42.86706" width="243.31738" height="20"/><rect class="cls-2" x="20" y="275.86706" width="243.31738" height="20"/><rect class="cls-2" x="425.82259" y="401.49714" width="20" height="20" transform="translate(737.13997 707.42474) rotate(-180)"/><rect class="cls-2" x="405.82259" y="421.49714" width="20" height="20" transform="translate(697.13997 747.42474) rotate(-180)"/><rect class="cls-2" x="425.82259" y="441.49714" width="20" height="20" transform="translate(737.13997 787.42474) rotate(-180)"/><rect class="cls-2" x="445.82259" y="421.49714" width="20" height="20" transform="translate(777.13997 747.42474) rotate(-180)"/><rect class="cls-2" x="465.82259" y="461.49714" width="20" height="20" transform="translate(817.13997 827.42474) rotate(-180)"/><rect class="cls-2" x="485.82259" y="481.49714" width="20" height="20" transform="translate(857.13997 867.42474) rotate(-180)"/><rect class="cls-2" y="62.86706" width="20" height="214.06055"/><rect class="cls-2" x="263" y="62.86706" width="20" height="214.06055"/><rect class="cls-3" x="52.82818" y="97.9638" width="177.66089" height="142.60828"/><polygon class="cls-4" points="141.659 187.274 123.893 187.274 123.893 205.04 123.893 222.806 141.659 222.806 159.425 222.806 159.425 205.04 159.425 187.274 141.659 187.274"/><rect class="cls-1" x="177.19081" y="151.74164" width="17.76609" height="17.76609"/><rect class="cls-5" x="159.42472" y="151.74164" width="17.76609" height="17.76609"/><rect class="cls-5" x="106.12645" y="151.74164" width="17.76609" height="17.76609"/><rect class="cls-1" x="88.36036" y="151.74164" width="17.76609" height="17.76609"/><polygon class="cls-6" points="52.828 98.443 52.828 116.209 52.828 133.976 70.594 133.976 70.594 116.209 212.723 116.209 212.723 133.976 230.489 133.976 230.489 116.209 230.489 98.443 52.828 98.443"/><path class="cls-1" d="M427.39551,155.19258V143.87129H438.7168v11.32129Z" transform="translate(-134.50521 -115.56953)"/><path class="cls-1" d="M461.3584,155.19258v-39.623h11.32031v11.32129h22.6416V132.551h5.66016v22.6416H489.66016V132.551H472.67871v22.6416Z" transform="translate(-134.50521 -115.56953)"/><path class="cls-1" d="M523.62207,155.19258V132.551H512.30078v-5.66016h11.32129V115.56953h11.32031v11.32129H546.2627V132.551H534.94238v22.6416Z" transform="translate(-134.50521 -115.56953)"/><path class="cls-1" d="M551.92383,155.19258V126.89082h33.96191V132.551h5.66016v22.6416H580.22559V132.551h-5.66016v22.6416H563.24414V132.551H557.584v22.6416Z" transform="translate(-134.50521 -115.56953)"/><path class="cls-1" d="M602.86621,155.19258v-5.66016H614.1875V121.23066h-5.66113v-5.66113h16.98144v33.96289h11.32031v5.66016Z" transform="translate(-134.50521 -115.56953)"/></svg>