<svg id="Layer_1" data-name="Layer 1" xmlns="http://www.w3.org/2000/svg" viewBox="0 0 220 140"><defs><style>.cls-1{fill:#ffec39;}.cls-2{fill:#fdcd00;}.cls-3{fill:#bc0001;}.cls-4{fill:#ff0200;}</style></defs><title>king</title><rect class="cls-1" x="190" y="150" width="20" height="220" transform="translate(-150 330) rotate(-90)"/><rect class="cls-2" x="170" y="110" width="60" height="220" transform="translate(-110 290) rotate(-90)"/><rect class="cls-3" x="90" y="230" width="20" height="20" transform="translate(-230 210) rotate(-90)"/><rect class="cls-4" x="90" y="210" width="20" height="20" transform="translate(-210 190) rotate(-90)"/><rect class="cls-3" x="90" y="190" width="20" height="20" transform="translate(-190 170) rotate(-90)"/><rect class="cls-3" x="110" y="210" width="20" height="20" transform="translate(-190 210) rotate(-90)"/><rect class="cls-3" x="190" y="230" width="20" height="20" transform="translate(-130 310) rotate(-90)"/><rect class="cls-4" x="179.99898" y="199.99747" width="39.99995" height="20" transform="translate(-99.99852 279.99643) rotate(-90)"/><rect class="cls-3" x="190" y="170" width="20" height="20" transform="translate(-70 250) rotate(-90)"/><rect class="cls-1" x="90" y="150" width="20" height="20" transform="translate(-150 130) rotate(-90)"/><rect class="cls-1" x="110" y="170" width="20" height="20" transform="translate(-150 170) rotate(-90)"/><rect class="cls-2" x="90" y="170" width="20" height="20" transform="translate(-170 150) rotate(-90)"/><rect class="cls-1" x="130" y="190" width="20" height="20" transform="translate(-150 210) rotate(-90)"/><rect class="cls-1" x="250" y="190" width="20" height="20" transform="translate(-30 330) rotate(-90)"/><rect class="cls-1" x="150" y="170" width="20" height="20" transform="translate(-110 210) rotate(-90)"/><rect class="cls-2" x="170" y="170" width="20" height="20" transform="translate(-90 230) rotate(-90)"/><rect class="cls-1" x="170" y="150" width="20" height="20" transform="translate(-70 210) rotate(-90)"/><rect class="cls-1" x="210" y="150" width="20" height="20" transform="translate(-30 250) rotate(-90)"/><rect class="cls-1" x="230" y="170" width="20" height="20" transform="translate(-30 290) rotate(-90)"/><rect class="cls-2" x="210" y="170" width="20" height="20" transform="translate(-50 270) rotate(-90)"/><rect class="cls-1" x="270" y="170" width="20" height="20" transform="translate(10 330) rotate(-90)"/><rect class="cls-2" x="290" y="170" width="20" height="20" transform="translate(30 350) rotate(-90)"/><rect class="cls-1" x="290" y="150" width="20" height="20" transform="translate(50 330) rotate(-90)"/><rect class="cls-2" x="190" y="150" width="20" height="20" transform="translate(-50 230) rotate(-90)"/><rect class="cls-1" x="190" y="130" width="20" height="20" transform="translate(-30 210) rotate(-90)"/><rect class="cls-3" x="199.99898" y="199.99747" width="39.99995" height="20" transform="translate(-79.99852 299.99643) rotate(-90)"/><rect class="cls-3" x="159.99898" y="199.99747" width="39.99995" height="20" transform="translate(-119.99852 259.99643) rotate(-90)"/><rect class="cls-3" x="289.99999" y="189.99999" width="20" height="20" transform="translate(409.99997 -230) rotate(90)"/><rect class="cls-4" x="289.99999" y="209.99999" width="20" height="20" transform="translate(429.99997 -210) rotate(90)"/><rect class="cls-3" x="289.99999" y="229.99999" width="20" height="20" transform="translate(449.99997 -190) rotate(90)"/><rect class="cls-3" x="269.99999" y="209.99999" width="20" height="20" transform="translate(409.99997 -190) rotate(90)"/></svg>