<svg id="Layer_1" data-name="Layer 1" xmlns="http://www.w3.org/2000/svg" viewBox="0 0 92.84378 92.8438"><defs><style>.cls-1{fill:#fff;}</style></defs><title>logo-footer</title><path class="cls-1" d="M77.838,96.20255H67.26989a2.1028,2.1028,0,0,1-2.45366-2.45366V49.5711a2.10322,2.10322,0,0,1,2.45366-2.45565H97.6765a2.10364,2.10364,0,0,1,2.45565,2.45565v8.11242a2.10322,2.10322,0,0,1-2.45565,2.45366H80.29162v7.08989H92.15528a2.10321,2.10321,0,0,1,2.45365,2.45565v8.18019a2.10321,2.10321,0,0,1-2.45365,2.45565H80.29162V93.74889A2.101,2.101,0,0,1,77.838,96.20255Z" transform="translate(-40.66668 -24.13333)"/><path class="cls-1" d="M123.24808,34.39571v72.319h-72.319v-72.319h72.319m6.27917-10.26238H44.64988a3.98321,3.98321,0,0,0-3.9832,3.98318v84.87741a3.98321,3.98321,0,0,0,3.9832,3.98321h84.87737a3.98321,3.98321,0,0,0,3.98321-3.98321V28.11651a3.98321,3.98321,0,0,0-3.98321-3.98318Z" transform="translate(-40.66668 -24.13333)"/><rect class="cls-1" x="56.27201" y="64.34971" width="16.11907" height="7.71951" rx="1.07671" ry="1.07671"/></svg>