<svg id="Layer_1" data-name="Layer 1" xmlns="http://www.w3.org/2000/svg" viewBox="0 0 163.09727 54.35767"><defs><style>.cls-1{fill:#fff;}</style></defs><title>logo-fredfy</title><path class="cls-1" d="M57.92852,84.44838H53.3451a.912.912,0,0,1-1.06417-1.06416V64.22407a.91218.91218,0,0,1,1.06417-1.065H66.53261a.91236.91236,0,0,1,1.065,1.065v3.5184a.91217.91217,0,0,1-1.065,1.06416H58.99269v3.07493H64.138a.91218.91218,0,0,1,1.06417,1.065v3.54779a.91218.91218,0,0,1-1.06417,1.065H58.99269v5.82481a.9112.9112,0,0,1-1.06417,1.06416Z" transform="translate(-6.5694 -44.42244)"/><path class="cls-1" d="M76.17233,84.44838h-4.554a.912.912,0,0,1-1.06417-1.06416V64.22407a.91218.91218,0,0,1,1.06417-1.065h9.84633q3.31179,0,4.56873,1.37537a5.07448,5.07448,0,0,1,1.25608,3.56249v1.36068a5.41043,5.41043,0,0,1-.36913,2.11363,2.30292,2.30292,0,0,1-1.28634,1.257,3.89387,3.89387,0,0,1,2.58737,1.301,4.35163,4.35163,0,0,1,.99068,2.98589v6.26915a.91217.91217,0,0,1-1.065,1.06416H83.56443a.91217.91217,0,0,1-1.065-1.06416V78.85957a1.51763,1.51763,0,0,0-.2507-.96042,1.06356,1.06356,0,0,0-.87225-.31035H77.2365v5.79542a.912.912,0,0,1-1.06417,1.06416ZM77.2365,68.48159v3.78466h2.21737a1.16174,1.16174,0,0,0,1.03563-.39939,1.74736,1.74736,0,0,0,.2654-.99068V69.87166a1.74932,1.74932,0,0,0-.2654-.99068,1.16174,1.16174,0,0,0-1.03563-.39939Z" transform="translate(-6.5694 -44.42244)"/><path class="cls-1" d="M107.30714,84.44838h-13.72A.912.912,0,0,1,92.523,83.38422V64.22407a.91217.91217,0,0,1,1.06416-1.065h13.72a.91139.91139,0,0,1,1.06417,1.065v3.45875a.91139.91139,0,0,1-1.06417,1.065H99.14653V71.024h5.76516a.91236.91236,0,0,1,1.065,1.065v3.164a.91217.91217,0,0,1-1.065,1.06416H99.14653v2.54241h8.16061a.91139.91139,0,0,1,1.06417,1.065v3.45962a.9112.9112,0,0,1-1.06417,1.06416Z" transform="translate(-6.5694 -44.42244)"/><path class="cls-1" d="M122.88924,84.44838h-9.96476a.912.912,0,0,1-1.06417-1.06416V64.22407a.91219.91219,0,0,1,1.06417-1.065h9.96476q3.69563,0,5.48508,1.47825a5.57207,5.57207,0,0,1,1.78859,4.554V78.4161a5.56978,5.56978,0,0,1-1.78859,4.554Q126.58485,84.44838,122.88924,84.44838Zm-4.31717-15.64175V78.85957h3.51927a1.39277,1.39277,0,0,0,1.04946-.35443,1.53279,1.53279,0,0,0,.33974-1.09442V70.2261a1.4759,1.4759,0,0,0-.33974-1.07886,1.43208,1.43208,0,0,0-1.04946-.34061Z" transform="translate(-6.5694 -44.42244)"/><path class="cls-1" d="M139.56577,84.44838h-4.58343a.912.912,0,0,1-1.06417-1.06416V64.22407a.91218.91218,0,0,1,1.06417-1.065h13.18751a.91236.91236,0,0,1,1.065,1.065v3.5184a.91217.91217,0,0,1-1.065,1.06416h-7.53992v3.07493h5.14533a.91218.91218,0,0,1,1.06417,1.065v3.54779a.91218.91218,0,0,1-1.06417,1.065h-5.14533v5.82481a.9112.9112,0,0,1-1.06416,1.06416Z" transform="translate(-6.5694 -44.42244)"/><path class="cls-1" d="M162.98344,84.44838h-4.79a.912.912,0,0,1-1.06417-1.06416V79.59956l-4.52378-6.06167a5.88175,5.88175,0,0,1-.90164-1.59668,7.0171,7.0171,0,0,1-.22217-2.04016v-5.677a.91236.91236,0,0,1,1.065-1.065h4.55317a.91218.91218,0,0,1,1.06417,1.065v4.84882c0,.1971.00951.40457.02939.62069a1.27375,1.27375,0,0,0,.23686.62156l1.35982,2.12833a1.16541,1.16541,0,0,0,.31121.38469.65974.65974,0,0,0,.39852.11843h.29565a.66056.66056,0,0,0,.39938-.11843,1.17529,1.17529,0,0,0,.31035-.38469l1.36068-2.12833a1.28077,1.28077,0,0,0,.236-.62156c.01988-.21612.02939-.42359.02939-.62069V64.22407a.91236.91236,0,0,1,1.065-1.065h4.40535a.91236.91236,0,0,1,1.065,1.065v5.677a6.61257,6.61257,0,0,1-.23687,2.04016,6.73213,6.73213,0,0,1-.887,1.59668L164.04847,79.629v3.75527a.91218.91218,0,0,1-1.065,1.06416Z" transform="translate(-6.5694 -44.42244)"/><path class="cls-1" d="M41.21378,48.72769V79.06683H10.87466V48.72769H41.21378M43.848,44.42244H8.24042a1.671,1.671,0,0,0-1.671,1.671v35.6076a1.671,1.671,0,0,0,1.671,1.671H43.848a1.671,1.671,0,0,0,1.671-1.671V46.09345a1.671,1.671,0,0,0-1.671-1.671Z" transform="translate(-6.5694 -44.42244)"/><rect class="cls-1" x="23.92057" y="27.65492" width="7.39369" height="3.54088" rx="0.57506" ry="0.57506"/><path class="cls-1" d="M52.28093,97.65373V89.77215h2.25188v6.75608H59.037v1.1255Z" transform="translate(-6.5694 -44.42244)"/><path class="cls-1" d="M61.28889,97.65373v-1.1255H60.163V93.15h1.12594v-1.1255H66.919V93.15H68.045v2.25188H62.41482v1.12638H66.919v1.1255Zm1.12593-3.37738h3.37826V93.15H62.41482Z" transform="translate(-6.5694 -44.42244)"/><path class="cls-1" d="M70.29684,97.65373v-1.1255H69.1709V95.40185h1.12594v-1.1255H74.801V93.15H70.29684v-1.1255H75.927V93.15h1.12594v4.50376Zm1.12594-1.1255H74.801V95.40185H71.42278Z" transform="translate(-6.5694 -44.42244)"/><path class="cls-1" d="M81.55667,93.15h1.12638v1.12638H81.55667v3.37738H79.30479V92.02447h2.25188Zm4.50463-1.1255V93.15H82.68305v-1.1255Z" transform="translate(-6.5694 -44.42244)"/><path class="cls-1" d="M87.18681,97.65373V92.02447h6.75564V93.15h1.12637v4.50376H92.81694V93.15H89.43869v4.50376Z" transform="translate(-6.5694 -44.42244)"/><path class="cls-1" d="M96.19433,98.78011V97.65373h7.882v1.12638Z" transform="translate(-6.5694 -44.42244)"/></svg>