<svg id="Layer_1" data-name="Layer 1" xmlns="http://www.w3.org/2000/svg" viewBox="0 0 340 400"><defs><style>.cls-1{fill:#fff;}.cls-2{fill:#3636ff;}.cls-3{fill:#898585;}.cls-4{fill:#ffec39;}.cls-5{fill:#d8362a;}</style></defs><title>spaceship-home</title><rect class="cls-1" x="120" y="100" width="100" height="200"/><rect class="cls-2" x="120" y="80" width="100" height="20"/><rect class="cls-3" x="160" y="60" width="20" height="20"/><rect class="cls-3" x="160" y="40" width="20" height="20"/><polygon class="cls-1" points="180 20 180 0 160 0 160 20 140 20 140 40 140 60 140 80 160 80 160 60 160 40 180 40 180 60 180 80 200 80 200 60 200 40 200 20 180 20"/><rect class="cls-3" x="220" y="200" width="80" height="20"/><rect class="cls-1" x="467.66667" y="268.53333" width="80" height="20" transform="translate(528.53333 -307.66667) rotate(90)"/><rect class="cls-2" x="240" y="160" width="20" height="20"/><rect class="cls-3" x="297.66667" y="278.53333" width="80" height="20" transform="translate(417.66667 498.53333) rotate(-180)"/><rect class="cls-1" x="307.66667" y="268.53333" width="80" height="20" transform="translate(368.53333 -147.66667) rotate(90)"/><rect class="cls-2" x="337.66667" y="238.53333" width="20" height="20" transform="translate(437.66667 418.53333) rotate(-180)"/><rect class="cls-4" x="277.66667" y="338.53333" width="20" height="20" transform="translate(317.66667 618.53333) rotate(-180)"/><polygon class="cls-4" points="140 320 140 340 160 340 160 360 180 360 180 340 200 340 200 320 140 320"/><rect class="cls-3" x="397.66667" y="278.53333" width="20" height="20" transform="translate(557.66667 498.53333) rotate(-180)"/><rect class="cls-3" x="437.66667" y="278.53333" width="20" height="20" transform="translate(637.66667 498.53333) rotate(-180)"/><polygon class="cls-3" points="120 300 120 320 120 340 140 340 140 320 200 320 200 340 220 340 220 320 220 300 120 300"/><rect class="cls-1" y="180" width="40" height="60"/><rect class="cls-5" y="160" width="40" height="20"/><rect class="cls-1" y="140" width="40" height="20"/><rect class="cls-3" y="240" width="40" height="20"/><polygon class="cls-5" points="200 340 180 340 180 360 160 360 160 340 140 340 120 340 120 360 140 360 140 380 160 380 160 400 180 400 180 380 200 380 200 360 220 360 220 340 200 340"/><polygon class="cls-5" points="20 280 20 260 0 260 0 300 20 300 20 320 40 320 40 280 20 280"/><rect class="cls-3" x="257.66667" y="278.53333" width="20" height="20" transform="translate(277.66667 498.53333) rotate(-180)"/><rect class="cls-4" x="300" y="260" width="20" height="20"/><rect class="cls-1" x="557.66667" y="258.53333" width="40" height="60" transform="translate(897.66667 498.53333) rotate(-180)"/><rect class="cls-5" x="557.66667" y="238.53333" width="40" height="20" transform="translate(897.66667 418.53333) rotate(-180)"/><rect class="cls-1" x="557.66667" y="218.53333" width="40" height="20" transform="translate(897.66667 378.53333) rotate(-180)"/><rect class="cls-3" x="557.66667" y="318.53333" width="40" height="20" transform="translate(897.66667 578.53333) rotate(-180)"/><polygon class="cls-5" points="320 260 320 280 300 280 300 320 320 320 320 300 340 300 340 260 320 260"/><rect class="cls-3" x="320" y="200" width="20" height="20"/></svg>