<svg id="Layer_1" data-name="Layer 1" xmlns="http://www.w3.org/2000/svg" viewBox="0 0 200 180"><defs><style>.cls-1{fill:#494949;}.cls-2{fill:#c4c4c4;}.cls-3{fill:#d8362a;}.cls-4{fill:#ffec39;}</style></defs><title>spaceship-2</title><rect class="cls-1" x="238" y="154" width="20" height="20" transform="translate(6 298) rotate(-90)"/><rect class="cls-1" x="218" y="234" width="20" height="20" transform="translate(-94 358) rotate(-90)"/><rect class="cls-1" x="218" y="134" width="20" height="20" transform="translate(6 258) rotate(-90)"/><rect class="cls-1" x="108" y="164" width="160" height="60" transform="translate(-84 268) rotate(-90)"/><rect class="cls-1" x="238" y="234" width="20" height="20" transform="translate(418 374) rotate(-180)"/><rect class="cls-1" x="218" y="254" width="20" height="20" transform="translate(378 414) rotate(-180)"/><rect class="cls-1" x="178" y="254" width="20" height="60" transform="translate(394 -18) rotate(90)"/><rect class="cls-2" x="138" y="234" width="20" height="40" transform="translate(218 394) rotate(-180)"/><rect class="cls-2" x="138" y="134" width="20" height="40" transform="translate(218 194) rotate(-180)"/><rect class="cls-3" x="118" y="154" width="20" height="40" transform="translate(178 234) rotate(-180)"/><rect class="cls-3" x="98" y="174" width="20" height="40" transform="translate(138 274) rotate(-180)"/><rect class="cls-3" x="118" y="214" width="20" height="40" transform="translate(178 354) rotate(-180)"/><rect class="cls-4" x="138" y="174" width="20" height="60" transform="translate(218 294) rotate(-180)"/><rect class="cls-1" x="80" y="60" width="120" height="60"/><rect class="cls-2" x="218" y="154" width="20" height="20" transform="translate(-14 278) rotate(-90)"/><rect class="cls-2" x="198" y="154" width="20" height="20" transform="translate(-34 258) rotate(-90)"/><rect class="cls-1" x="198" y="174" width="20" height="20" transform="translate(-54 278) rotate(-90)"/><rect class="cls-4" x="118" y="194" width="20" height="20" transform="translate(-154 218) rotate(-90)"/><rect class="cls-3" x="98" y="214" width="20" height="20" transform="translate(-194 218) rotate(-90)"/><rect class="cls-3" x="78" y="194" width="20" height="20" transform="translate(-194 178) rotate(-90)"/><rect class="cls-2" x="198" y="134" width="20" height="20" transform="translate(-14 238) rotate(-90)"/><rect class="cls-2" x="178" y="134" width="20" height="20" transform="translate(-34 218) rotate(-90)"/><rect class="cls-1" x="178" y="174" width="20" height="20" transform="translate(-74 258) rotate(-90)"/><rect class="cls-1" x="158" y="174" width="20" height="20" transform="translate(-94 238) rotate(-90)"/><rect class="cls-2" x="218" y="234" width="20" height="20" transform="translate(-94 358) rotate(-90)"/><rect class="cls-1" x="158" y="214" width="20" height="20" transform="translate(-134 278) rotate(-90)"/><rect class="cls-1" x="178" y="214" width="20" height="20" transform="translate(-114 298) rotate(-90)"/><rect class="cls-1" x="158" y="234" width="20" height="20" transform="translate(-154 298) rotate(-90)"/><rect class="cls-2" x="198" y="234" width="20" height="20" transform="translate(-114 338) rotate(-90)"/><rect class="cls-2" x="198" y="254" width="20" height="20" transform="translate(-134 358) rotate(-90)"/><rect class="cls-1" x="218" y="254" width="20" height="20" transform="translate(-114 378) rotate(-90)"/><rect class="cls-1" x="178" y="234" width="20" height="20" transform="translate(-134 318) rotate(-90)"/><rect class="cls-2" x="178" y="254" width="20" height="20" transform="translate(-154 338) rotate(-90)"/><rect class="cls-1" x="158" y="254" width="20" height="20" transform="translate(-174 318) rotate(-90)"/></svg>