<svg id="Layer_1" data-name="Layer 1" xmlns="http://www.w3.org/2000/svg" viewBox="0 0 771.5778 323.20001"><defs><style>.cls-1{fill:#ffec39;}</style></defs><title>stars</title><rect class="cls-1" x="305.15204" y="185.28538" width="5.56256" height="5.56256" transform="translate(392.60297 448.45829) rotate(-135)"/><rect class="cls-1" x="305.15204" y="193.15203" width="5.56256" height="5.56256" transform="translate(387.04041 461.8875) rotate(-135)"/><rect class="cls-1" x="297.28539" y="185.28538" width="5.56256" height="5.56256" transform="translate(379.17376 442.89573) rotate(-135)"/><rect class="cls-1" x="297.28539" y="193.15203" width="5.56256" height="5.56256" transform="translate(373.61119 456.32494) rotate(-135)"/><rect class="cls-1" x="765.76806" y="96.23193" width="5.89861" height="5.89861" transform="translate(669.44725 777.56528) rotate(-90)"/><rect class="cls-1" x="759.86944" y="102.13054" width="5.89861" height="5.89861" transform="translate(657.65003 777.56528) rotate(-90)"/><rect class="cls-1" x="759.86944" y="90.33332" width="5.89861" height="5.89861" transform="translate(669.44725 765.76806) rotate(-90)"/><rect class="cls-1" x="753.97083" y="96.23193" width="5.89861" height="5.89861" transform="translate(657.65003 765.76806) rotate(-90)"/><rect class="cls-1" x="513.60001" y="403.39999" width="5.06667" height="5.06667" transform="translate(110.11115 831.73335) rotate(-90)"/><rect class="cls-1" x="508.53334" y="408.46666" width="5.06667" height="5.06667" transform="translate(99.97781 831.73335) rotate(-90)"/><rect class="cls-1" x="508.53334" y="398.33332" width="5.06667" height="5.06667" transform="translate(110.11115 821.60001) rotate(-90)"/><rect class="cls-1" x="503.46667" y="403.39999" width="5.06667" height="5.06667" transform="translate(99.97781 821.60001) rotate(-90)"/><rect class="cls-1" x="4.57278" y="359.99495" width="2.76559" height="2.76559" transform="translate(-245.45474 530.7883) rotate(-135)"/><rect class="cls-1" x="4.57278" y="363.90608" width="2.76559" height="2.76559" transform="translate(-248.22032 537.46502) rotate(-135)"/><rect class="cls-1" x="0.66165" y="359.99495" width="2.76559" height="2.76559" transform="translate(-252.13145 528.02272) rotate(-135)"/><rect class="cls-1" x="0.66165" y="363.90608" width="2.76559" height="2.76559" transform="translate(-254.89704 534.69943) rotate(-135)"/></svg>