<svg id="Layer_1" data-name="Layer 1" xmlns="http://www.w3.org/2000/svg" viewBox="0 0 263 364"><defs><style>.cls-1,.cls-4{fill:#fff;}.cls-2{fill:#494949;}.cls-3{fill:#049b36;}.cls-4{opacity:0.2;}</style></defs><title>w-css</title><rect class="cls-1" x="10" y="9.61035" width="243.31738" height="344.4502"/><rect class="cls-2" x="10" width="243.31738" height="10"/><rect class="cls-2" x="10" y="354" width="243.31738" height="10"/><rect class="cls-2" x="253" y="10.05119" width="10" height="344.00935"/><rect class="cls-2" y="10.05119" width="10" height="344.00935"/><polygon class="cls-3" points="201.5 142 201.5 122 181.5 122 181.5 102 161.5 102 161.5 82 101.5 82 101.5 102 81.5 102 81.5 122 61.5 122 61.5 142 41.5 142 41.5 202 61.5 202 61.5 222 81.5 222 81.5 242 101.5 242 101.5 262 121.5 262 141.5 262 161.5 262 161.5 242 181.5 242 181.5 222 201.5 222 201.5 202 221.5 202 221.5 142 201.5 142"/><rect class="cls-4" x="610.5367" y="452.30306" width="20" height="20" transform="translate(733.0367 594.30306) rotate(-180)"/><rect class="cls-4" x="590.5367" y="472.30306" width="20" height="20" transform="translate(693.0367 634.30306) rotate(-180)"/><path class="cls-1" d="M595.29061,523.63636v-6.673h-6.673v-13.346h-6.673v-6.673h6.673v-13.346h6.673v-6.673h13.346v6.673h-6.673v13.346h-6.673v6.673h6.673v13.346h6.673v6.673Z" transform="translate(-508.0367 -330.30306)"/><path class="cls-1" d="M628.65553,523.63636v-6.673h6.673v-13.346h13.346v13.346h-6.673v6.673Zm6.673-26.69194v-13.346h13.346v13.346Z" transform="translate(-508.0367 -330.30306)"/><path class="cls-1" d="M673.11077,523.63636v-6.673h6.673v-13.346h6.673v-6.673h-6.673v-13.346h-6.673v-6.673h13.346v6.673h6.673v13.346h6.673v6.673h-6.673v13.346h-6.673v6.673Z" transform="translate(-508.0367 -330.30306)"/><path d="M613.28662,380.60449v-2.625h-2.625v-2.625h-2.625v-7.875h2.625v-2.625h2.625v-2.625h10.5v2.625h2.625v2.625h-5.25v-2.625h-5.25v2.625h-2.625v7.875h2.625v2.625h5.25v-2.625h5.25v2.625h-2.625v2.625Z" transform="translate(-508.0367 -330.30306)"/><path d="M631.66162,380.60449v-2.625h-2.625v-2.625h5.25v2.625h7.87549v-5.25H631.66162v-2.625h-2.625v-5.25h2.625v-2.625h13.12549v2.625h2.625v2.625h-5.25v-2.625h-7.87549v5.25h10.50049v2.625h2.625v5.25h-2.625v2.625Z" transform="translate(-508.0367 -330.30306)"/><path d="M652.66211,380.60449v-2.625h-2.625v-2.625h5.25v2.625h7.875v-5.25h-10.5v-2.625h-2.625v-5.25h2.625v-2.625h13.125v2.625h2.625v2.625h-5.25v-2.625h-7.875v5.25h10.5v2.625h2.625v5.25h-2.625v2.625Z" transform="translate(-508.0367 -330.30306)"/><path d="M600.3667,633.209a2.22289,2.22289,0,0,0-.80176-1.80566,8.475,8.475,0,0,0-2.93359-1.26465A10.25185,10.25185,0,0,1,593.519,628.833a3.16785,3.16785,0,0,1-.09961-5.18262,5.3268,5.3268,0,0,1,3.31543-.98633,5.511,5.511,0,0,1,2.44825.52832,4.01065,4.01065,0,0,1,1.67382,1.47168,3.86244,3.86244,0,0,1,.59375,2.10352h-1.16894a2.88932,2.88932,0,0,0-.96192-2.2666,3.748,3.748,0,0,0-2.585-.85547,4.07307,4.07307,0,0,0-2.50879.70312,2.19838,2.19838,0,0,0-.93359,1.83789,2.07741,2.07741,0,0,0,.83887,1.71,7.79025,7.79025,0,0,0,2.68847,1.167,12.613,12.613,0,0,1,2.80176,1.04785,3.99019,3.99019,0,0,1,1.4336,1.29687,3.24561,3.24561,0,0,1,.48046,1.78223,3.10278,3.10278,0,0,1-1.29687,2.60352,5.52577,5.52577,0,0,1-3.41895.98046,6.69922,6.69922,0,0,1-2.66406-.51855,4.069,4.069,0,0,1-1.83984-1.45215,3.75436,3.75436,0,0,1-.627-2.1416h1.16016a2.73994,2.73994,0,0,0,1.085,2.292,4.58885,4.58885,0,0,0,2.88574.83985,4.2773,4.2773,0,0,0,2.5752-.708A2.21148,2.21148,0,0,0,600.3667,633.209Z" transform="translate(-508.0367 -330.30306)"/><path d="M605.52588,623.76758v2.61328h2.11328v.92383h-2.11328v6.80859a2.12985,2.12985,0,0,0,.30664,1.26465,1.18767,1.18767,0,0,0,1.02344.416,6.948,6.948,0,0,0,.915-.09473l.04687.916a3.67572,3.67572,0,0,1-1.207.15918,2.01466,2.01466,0,0,1-1.68848-.67382,3.17292,3.17292,0,0,1-.52832-1.98536v-6.81054h-1.87695v-.92383H604.394v-2.61328Z" transform="translate(-508.0367 -330.30306)"/><path d="M613.21338,634.96387l2.98047-8.583h1.21679l-4.35839,11.94043-.22559.52832a2.7434,2.7434,0,0,1-2.59473,1.8584,3.13539,3.13539,0,0,1-.86718-.13281l-.00977-.9336.585.05664a2.08886,2.08886,0,0,0,1.34375-.41015,3.11368,3.11368,0,0,0,.87305-1.41016l.5-1.37695-3.84863-10.12012h1.23535Z" transform="translate(-508.0367 -330.30306)"/><path d="M620.41846,636.58594h-1.13184V622.09863h1.13184Z" transform="translate(-508.0367 -330.30306)"/><path d="M627.437,636.77441a4.42885,4.42885,0,0,1-2.35351-.6416,4.36587,4.36587,0,0,1-1.63672-1.78711,5.5725,5.5725,0,0,1-.585-2.57031v-.40527a5.9984,5.9984,0,0,1,.57129-2.65039,4.535,4.535,0,0,1,1.58886-1.85352,3.92361,3.92361,0,0,1,2.207-.6748,3.68351,3.68351,0,0,1,2.94727,1.26953,5.14358,5.14358,0,0,1,1.08984,3.46582v.63183h-7.28125v.2168a4.27167,4.27167,0,0,0,.99512,2.8916,3.16707,3.16707,0,0,0,2.50391,1.15528,3.682,3.682,0,0,0,1.59863-.33008,3.54955,3.54955,0,0,0,1.25879-1.05664l.708.53711A4.11772,4.11772,0,0,1,627.437,636.77441Zm-.208-9.62011a2.81848,2.81848,0,0,0-2.1455.93359,4.3121,4.3121,0,0,0-1.06153,2.50879H630.144v-.12305a3.74943,3.74943,0,0,0-.83984-2.3955A2.60114,2.60114,0,0,0,627.229,627.1543Z" transform="translate(-508.0367 -330.30306)"/><path d="M646.36719,631.58691a6.15373,6.15373,0,0,1-1.05664,3.78711,3.3674,3.3674,0,0,1-2.83008,1.40039,3.77723,3.77723,0,0,1-3.20752-1.47168v5.207h-1.12207V626.38086h1.04687l.05664,1.44238a3.62156,3.62156,0,0,1,3.19678-1.63183,3.39735,3.39735,0,0,1,2.873,1.38672,6.2799,6.2799,0,0,1,1.043,3.84863Zm-1.13281-.19824a5.25784,5.25784,0,0,0-.80079-3.084,2.58766,2.58766,0,0,0-2.23632-1.13184A2.97946,2.97946,0,0,0,639.273,629.125v4.89551a2.99359,2.99359,0,0,0,1.16016,1.33887,3.34455,3.34455,0,0,0,1.78369.46289,2.56032,2.56032,0,0,0,2.2207-1.13672A5.71654,5.71654,0,0,0,645.23438,631.38867Z" transform="translate(-508.0367 -330.30306)"/><path d="M655.30664,636.58594a5.32,5.32,0,0,1-.2168-1.42383,3.91531,3.91531,0,0,1-1.51367,1.19238,4.62763,4.62763,0,0,1-1.94726.41992,3.41827,3.41827,0,0,1-2.38086-.82031,2.67158,2.67158,0,0,1-.91016-2.07519,2.73025,2.73025,0,0,1,1.24024-2.3584,5.96,5.96,0,0,1,3.457-.86719H655.082v-1.16016a2.23957,2.23957,0,0,0-.67578-1.72168,2.78863,2.78863,0,0,0-1.9668-.62695,3.07614,3.07614,0,0,0-1.95117.60352,1.79351,1.79351,0,0,0-.77344,1.45215l-1.13281-.00879a2.623,2.623,0,0,1,1.13281-2.1084,4.358,4.358,0,0,1,2.78125-.8916,3.97321,3.97321,0,0,1,2.69336.85449,3.0588,3.0588,0,0,1,1.01368,2.38086v4.8291a5.95466,5.95466,0,0,0,.3125,2.2168v.11328Zm-3.54492-.81153a3.7906,3.7906,0,0,0,2.02344-.54687,3.22342,3.22342,0,0,0,1.29687-1.46191v-2.24512H653.0625a5.05649,5.05649,0,0,0-2.64062.61816,1.85565,1.85565,0,0,0-.95313,1.64551,1.8272,1.8272,0,0,0,.63672,1.4248A2.40012,2.40012,0,0,0,651.76172,635.77441Z" transform="translate(-508.0367 -330.30306)"/><path d="M658.75977,631.38867a6.1323,6.1323,0,0,1,1.0625-3.7959,3.42349,3.42349,0,0,1,2.88086-1.40136,3.554,3.554,0,0,1,3.16992,1.66015l.05468-1.4707h1.05665v9.99805A4.31756,4.31756,0,0,1,665.88086,639.5a3.94516,3.94516,0,0,1-2.99023,1.15137,4.543,4.543,0,0,1-2.03125-.47657,3.94658,3.94658,0,0,1-1.52344-1.26855l.63086-.67871a3.57739,3.57739,0,0,0,2.84961,1.4707,2.89788,2.89788,0,0,0,2.207-.835,3.33056,3.33056,0,0,0,.82031-2.31543v-1.28222a3.64876,3.64876,0,0,1-3.16016,1.50878,3.4021,3.4021,0,0,1-2.84765-1.415,6.16114,6.16114,0,0,1-1.07617-3.81934Zm1.14257.19824a5.328,5.328,0,0,0,.78125,3.08008,2.53491,2.53491,0,0,0,2.207,1.127,3.01667,3.01667,0,0,0,2.95312-1.86817v-4.74414a3.22369,3.22369,0,0,0-1.14062-1.49512,3.08,3.08,0,0,0-1.793-.51367,2.5641,2.5641,0,0,0-2.2168,1.11719A5.69648,5.69648,0,0,0,659.90234,631.58691Z" transform="translate(-508.0367 -330.30306)"/><path d="M673.87891,636.77441a4.4313,4.4313,0,0,1-2.35352-.6416,4.37256,4.37256,0,0,1-1.63672-1.78711,5.58432,5.58432,0,0,1-.584-2.57031v-.40527a5.998,5.998,0,0,1,.57031-2.65039,4.53722,4.53722,0,0,1,1.58984-1.85352,3.91905,3.91905,0,0,1,2.207-.6748,3.68618,3.68618,0,0,1,2.94726,1.26953,5.14358,5.14358,0,0,1,1.08984,3.46582v.63183h-7.28125v.2168a4.271,4.271,0,0,0,.99415,2.8916,3.16842,3.16842,0,0,0,2.5039,1.15528,3.68943,3.68943,0,0,0,1.59961-.33008,3.55517,3.55517,0,0,0,1.25781-1.05664l.709.53711A4.11942,4.11942,0,0,1,673.87891,636.77441Zm-.207-9.62011a2.82056,2.82056,0,0,0-2.14649.93359,4.30522,4.30522,0,0,0-1.06055,2.50879h6.1211v-.12305a3.73851,3.73851,0,0,0-.83985-2.3955A2.5978,2.5978,0,0,0,673.67188,627.1543Z" transform="translate(-508.0367 -330.30306)"/><path d="M686.01758,633.99219a1.60759,1.60759,0,0,0-.67383-1.34864,5.18675,5.18675,0,0,0-2.0332-.79687,9.2307,9.2307,0,0,1-2.10742-.66016,2.8149,2.8149,0,0,1-1.11329-.91015,2.27174,2.27174,0,0,1-.36328-1.30176,2.43239,2.43239,0,0,1,1.00977-1.99512,4.07793,4.07793,0,0,1,2.584-.78808,4.19523,4.19523,0,0,1,2.74024.84472,2.70653,2.70653,0,0,1,1.0332,2.20215h-1.13281a1.83091,1.83091,0,0,0-.74805-1.49023,3.38814,3.38814,0,0,0-3.67969-.09864,1.52756,1.52756,0,0,0-.67382,1.28711,1.3927,1.3927,0,0,0,.56054,1.1836,5.9319,5.9319,0,0,0,2.04688.76855,9.69459,9.69459,0,0,1,2.22656.74512,2.87451,2.87451,0,0,1,1.09766.95312,2.61635,2.61635,0,0,1-.6836,3.41407,4.44859,4.44859,0,0,1-2.7207.77343,4.56648,4.56648,0,0,1-2.89063-.86328,2.65808,2.65808,0,0,1-1.10937-2.18261h1.13281a1.9615,1.9615,0,0,0,.834,1.542,3.42286,3.42286,0,0,0,2.0332.55176,3.2068,3.2068,0,0,0,1.90625-.51954A1.55814,1.55814,0,0,0,686.01758,633.99219Z" transform="translate(-508.0367 -330.30306)"/><path d="M579.6626,659.76563v-9.28125h-1.68848v-.92383h1.68848v-1.23633a3.36288,3.36288,0,0,1,.79687-2.40527,2.91875,2.91875,0,0,1,2.22168-.83887,4.329,4.329,0,0,1,1.19824.15918l-.085.93457a4.417,4.417,0,0,0-1.02832-.11328,1.844,1.844,0,0,0-1.45215.582,2.39276,2.39276,0,0,0-.51953,1.65039v1.26758h2.4336v.92383h-2.4336v9.28125Z" transform="translate(-508.0367 -330.30306)"/><path d="M584.62354,654.51172a6.00141,6.00141,0,0,1,.57128-2.65039,4.28807,4.28807,0,0,1,3.97559-2.49024,4.19767,4.19767,0,0,1,3.30078,1.42969,5.50443,5.50443,0,0,1,1.26367,3.78711v.23535a6.0672,6.0672,0,0,1-.57031,2.665,4.25919,4.25919,0,0,1-1.6084,1.82422,4.40665,4.40665,0,0,1-2.36719.6416,4.20305,4.20305,0,0,1-3.29687-1.42871,5.49428,5.49428,0,0,1-1.26855-3.78711Zm1.13183.31152a4.63012,4.63012,0,0,0,.94824,3.00391,3.206,3.206,0,0,0,4.96094,0,4.78256,4.78256,0,0,0,.94824-3.09863v-.2168a5.193,5.193,0,0,0-.43359-2.14063,3.4987,3.4987,0,0,0-1.2168-1.50488,3.1151,3.1151,0,0,0-1.792-.53223,3.01479,3.01479,0,0,0-2.46191,1.1836,4.786,4.786,0,0,0-.95313,3.09863Z" transform="translate(-508.0367 -330.30306)"/><path d="M600.78174,650.52246a4.22744,4.22744,0,0,0-.76367-.06641,2.75386,2.75386,0,0,0-1.78809.58985,3.23092,3.23092,0,0,0-1.042,1.71191v7.00782h-1.12207V649.56055h1.10351l.01856,1.62207a3.003,3.003,0,0,1,2.87695-1.81153,1.85113,1.85113,0,0,1,.74512.12305Z" transform="translate(-508.0367 -330.30306)"/><path d="M609.01514,646.94727v2.61328h2.11328v.92383h-2.11328V657.293a2.12985,2.12985,0,0,0,.30664,1.26465,1.18766,1.18766,0,0,0,1.02343.416,6.949,6.949,0,0,0,.915-.09472l.04688.916a3.67572,3.67572,0,0,1-1.207.15918,2.01463,2.01463,0,0,1-1.68848-.67383,3.17287,3.17287,0,0,1-.52832-1.98535v-6.81054h-1.87695v-.92383h1.87695v-2.61328Z" transform="translate(-508.0367 -330.30306)"/><path d="M614.58936,651.28613a3.99876,3.99876,0,0,1,1.42382-1.415,3.7379,3.7379,0,0,1,1.89649-.5,3.0605,3.0605,0,0,1,2.44238.92481,4.16939,4.16939,0,0,1,.81152,2.77344v6.69629H620.0415v-6.70606a3.12252,3.12252,0,0,0-.58007-2.03711,2.2744,2.2744,0,0,0-1.8252-.66992,2.85619,2.85619,0,0,0-1.85352.65527,3.83874,3.83874,0,0,0-1.19335,1.76856v6.98926h-1.12207V645.27832h1.12207Z" transform="translate(-508.0367 -330.30306)"/><path d="M628.021,659.9541a4.429,4.429,0,0,1-2.35352-.6416,4.366,4.366,0,0,1-1.63672-1.78711,5.57253,5.57253,0,0,1-.585-2.57031v-.40528a5.99846,5.99846,0,0,1,.57129-2.65039,4.53505,4.53505,0,0,1,1.58887-1.85351,3.92362,3.92362,0,0,1,2.207-.67481,3.68348,3.68348,0,0,1,2.94726,1.26954,5.14353,5.14353,0,0,1,1.08985,3.46582v.63183h-7.28125v.2168a4.27168,4.27168,0,0,0,.99511,2.8916,3.16706,3.16706,0,0,0,2.50391,1.15527,3.68192,3.68192,0,0,0,1.59863-.33007,3.5494,3.5494,0,0,0,1.25879-1.05665l.708.53711A4.1177,4.1177,0,0,1,628.021,659.9541Zm-.208-9.62012a2.81852,2.81852,0,0,0-2.14551.9336,4.31206,4.31206,0,0,0-1.06152,2.50879H630.728v-.12305a3.74952,3.74952,0,0,0-.83985-2.39551A2.60115,2.60115,0,0,0,627.813,650.334Z" transform="translate(-508.0367 -330.30306)"/><path d="M638.6792,646.6123a.75787.75787,0,0,1,.208-.53906.7385.7385,0,0,1,.56543-.21972.741.741,0,0,1,.7832.75878.73043.73043,0,0,1-.21289.53418.75889.75889,0,0,1-.57031.21582.72678.72678,0,0,1-.77344-.75Zm1.33008,13.15333h-1.13184V649.56055h1.13184Z" transform="translate(-508.0367 -330.30306)"/><path d="M644.15039,649.56055l.03711,1.74414a4.04981,4.04981,0,0,1,1.43359-1.4375,3.71535,3.71535,0,0,1,1.89649-.4961,3.057,3.057,0,0,1,2.4414.92481,4.17474,4.17474,0,0,1,.8125,2.77344v6.69629h-1.123v-6.70606a3.11138,3.11138,0,0,0-.58008-2.03711,2.27218,2.27218,0,0,0-1.82422-.66992,2.85426,2.85426,0,0,0-1.85351.65527,3.8313,3.8313,0,0,0-1.19336,1.76856v6.98926h-1.12305V649.56055Z" transform="translate(-508.0367 -330.30306)"/><path d="M655.43945,646.94727v2.61328h2.11328v.92383h-2.11328V657.293a2.137,2.137,0,0,0,.30664,1.26465,1.19008,1.19008,0,0,0,1.02344.416,6.94433,6.94433,0,0,0,.916-.09472l.04687.916a3.68372,3.68372,0,0,1-1.207.15918,2.01791,2.01791,0,0,1-1.68945-.67383,3.1793,3.1793,0,0,1-.52735-1.98535v-6.81054h-1.87695v-.92383h1.87695v-2.61328Z" transform="translate(-508.0367 -330.30306)"/><path d="M663.84375,659.9541a4.43142,4.43142,0,0,1-2.35352-.6416,4.37253,4.37253,0,0,1-1.63671-1.78711,5.58423,5.58423,0,0,1-.584-2.57031v-.40528a5.9981,5.9981,0,0,1,.57031-2.65039,4.5372,4.5372,0,0,1,1.58985-1.85351,3.919,3.919,0,0,1,2.207-.67481,3.68619,3.68619,0,0,1,2.94726,1.26954,5.14353,5.14353,0,0,1,1.08985,3.46582v.63183h-7.28125v.2168a4.27105,4.27105,0,0,0,.99414,2.8916,3.16844,3.16844,0,0,0,2.50391,1.15527,3.68941,3.68941,0,0,0,1.5996-.33007,3.55522,3.55522,0,0,0,1.25782-1.05665l.709.53711A4.11939,4.11939,0,0,1,663.84375,659.9541Zm-.207-9.62012a2.82059,2.82059,0,0,0-2.14649.9336,4.30518,4.30518,0,0,0-1.06054,2.50879h6.12109v-.12305a3.73859,3.73859,0,0,0-.83984-2.39551A2.59785,2.59785,0,0,0,663.63672,650.334Z" transform="translate(-508.0367 -330.30306)"/><path d="M674.58594,650.52246a4.21954,4.21954,0,0,0-.76367-.06641,2.74927,2.74927,0,0,0-1.78711.58985,3.232,3.232,0,0,0-1.043,1.71191v7.00782h-1.1211V649.56055h1.10352l.01758,1.62207a3.003,3.003,0,0,1,2.87695-1.81153,1.85947,1.85947,0,0,1,.74609.12305Z" transform="translate(-508.0367 -330.30306)"/><path d="M677.44531,649.56055l.03711,1.74414a4.04975,4.04975,0,0,1,1.4336-1.4375,3.71529,3.71529,0,0,1,1.89648-.4961,3.057,3.057,0,0,1,2.44141.92481,4.17485,4.17485,0,0,1,.8125,2.77344v6.69629h-1.12305v-6.70606a3.11138,3.11138,0,0,0-.58008-2.03711,2.27218,2.27218,0,0,0-1.82422-.66992,2.85428,2.85428,0,0,0-1.85351.65527,3.8313,3.8313,0,0,0-1.19336,1.76856v6.98926h-1.12305V649.56055Z" transform="translate(-508.0367 -330.30306)"/><path d="M690.93359,659.9541a4.4265,4.4265,0,0,1-2.35351-.6416,4.3594,4.3594,0,0,1-1.63672-1.78711,5.56078,5.56078,0,0,1-.58594-2.57031v-.40528a5.99883,5.99883,0,0,1,.57227-2.65039,4.53283,4.53283,0,0,1,1.58789-1.85351,3.92821,3.92821,0,0,1,2.207-.67481,3.68082,3.68082,0,0,1,2.94727,1.26954,5.14358,5.14358,0,0,1,1.08984,3.46582v.63183h-7.28125v.2168a4.27232,4.27232,0,0,0,.99609,2.8916,3.16568,3.16568,0,0,0,2.50391,1.15527,3.67453,3.67453,0,0,0,1.59766-.33007,3.54379,3.54379,0,0,0,1.25976-1.05665l.707.53711A4.116,4.116,0,0,1,690.93359,659.9541Zm-.209-9.62012a2.81644,2.81644,0,0,0-2.14453.9336,4.319,4.319,0,0,0-1.0625,2.50879h6.12305v-.12305a3.76051,3.76051,0,0,0-.83985-2.39551A2.60448,2.60448,0,0,0,690.72461,650.334Z" transform="translate(-508.0367 -330.30306)"/><path d="M698.71289,646.94727v2.61328h2.11328v.92383h-2.11328V657.293a2.137,2.137,0,0,0,.30664,1.26465,1.19008,1.19008,0,0,0,1.02344.416,6.94406,6.94406,0,0,0,.916-.09472l.04688.916a3.68376,3.68376,0,0,1-1.207.15918,2.01791,2.01791,0,0,1-1.68945-.67383,3.17923,3.17923,0,0,1-.52735-1.98535v-6.81054h-1.877v-.92383h1.877v-2.61328Z" transform="translate(-508.0367 -330.30306)"/></svg>