<svg id="Layer_1" data-name="Layer 1" xmlns="http://www.w3.org/2000/svg" viewBox="0 0 263 364"><defs><style>.cls-1,.cls-4{fill:#fff;}.cls-2{fill:#494949;}.cls-3{fill:#2e2eed;}.cls-4{opacity:0.2;}</style></defs><title>w-html</title><rect class="cls-1" x="10" y="9.61035" width="243.31738" height="344.4502"/><rect class="cls-2" x="10" width="243.31738" height="10"/><rect class="cls-2" x="10" y="354" width="243.31738" height="10"/><rect class="cls-2" x="253" y="10.05119" width="10" height="344.00935"/><rect class="cls-2" y="10.05119" width="10" height="344.00935"/><polygon class="cls-3" points="201.5 142 201.5 122 181.5 122 181.5 102 161.5 102 161.5 82 101.5 82 101.5 102 81.5 102 81.5 122 61.5 122 61.5 142 41.5 142 41.5 202 61.5 202 61.5 222 81.5 222 81.5 242 101.5 242 101.5 262 121.5 262 141.5 262 161.5 262 161.5 242 181.5 242 181.5 222 201.5 222 201.5 202 221.5 202 221.5 142 201.5 142"/><path class="cls-1" d="M594.5029,521.47632v-5.9351h-5.93511v-5.93639h-5.93638v-5.9351H576.6963v-5.93639h5.93511V491.797h5.93638v-5.93511h5.93511v-5.93638h11.87276v5.93638h-5.93638V491.797H594.5029v5.93638h-5.93511v5.93639h5.93511v5.9351h5.93638v5.93639h5.93638v5.9351Z" transform="translate(-508.4117 -330.30306)"/><path class="cls-1" d="M618.24715,515.54122h5.93639v5.9351h-5.93639Zm5.93639-5.93639h5.9351v5.93639h-5.9351Zm5.9351-5.9351H636.055v5.9351h-5.93639Zm5.93639-5.93639h5.9351v5.93639H636.055Zm5.9351-5.93638h5.93639v5.93638h-5.93639Zm5.93639-5.93511h5.93638V491.797h-5.93638Zm11.87149-5.93638v5.93638H653.8629v-5.93638Z" transform="translate(-508.4117 -330.30306)"/><path class="cls-1" d="M671.39327,521.47632v-5.9351h5.9351v-5.93639h5.93639v-5.9351h5.9351v-5.93639h-5.9351V491.797h-5.93639v-5.93511h-5.9351v-5.93638h11.87149v5.93638h5.9351V491.797h5.93639v5.93638h5.93638v5.93639h-5.93638v5.9351h-5.93639v5.93639h-5.9351v5.9351Z" transform="translate(-508.4117 -330.30306)"/><rect class="cls-4" x="609.9117" y="452.30306" width="20" height="20" transform="translate(731.4117 594.30306) rotate(-180)"/><rect class="cls-4" x="589.9117" y="472.30306" width="20" height="20" transform="translate(691.4117 634.30306) rotate(-180)"/><path d="M597.91162,380.60449v-18.375h5.25v7.875h7.875v-7.875h5.25v18.375h-5.25v-7.875h-7.875v7.875Z" transform="translate(-508.4117 -330.30306)"/><path d="M626.78662,380.60449v-15.75h-5.25v-2.625h15.75v2.625h-5.25v15.75Z" transform="translate(-508.4117 -330.30306)"/><path d="M639.91162,380.60449v-18.375h5.25049v2.625h2.625v2.625h2.625v-2.625h2.625v-2.625h5.25v18.375h-5.25v-10.5h-2.625v5.25h-2.625v-5.25h-2.625v10.5Z" transform="translate(-508.4117 -330.30306)"/><path d="M663.53711,380.60449v-18.375h5.25v15.75h10.5v2.625Z" transform="translate(-508.4117 -330.30306)"/><path d="M591.91748,622.85254l5.06543,12.12012,5.084-12.12012h1.54688v13.7334h-1.16016v-5.97949l.09375-6.13086L597.436,636.58594h-.89649l-5.09277-12.06348.09375,6.0459v6.01758h-1.16016v-13.7334Z" transform="translate(-508.4117 -330.30306)"/><path d="M613.272,636.58594a5.32006,5.32006,0,0,1-.21679-1.42383,3.92247,3.92247,0,0,1-1.51368,1.19238,4.63084,4.63084,0,0,1-1.94726.41992,3.42081,3.42081,0,0,1-2.38184-.82031,2.67157,2.67157,0,0,1-.91015-2.07519,2.73248,2.73248,0,0,1,1.24023-2.3584,5.9642,5.9642,0,0,1,3.457-.86719h2.04688v-1.16016a2.239,2.239,0,0,0-.67481-1.72168,2.78862,2.78862,0,0,0-1.96679-.62695,3.07706,3.07706,0,0,0-1.95215.60352,1.79348,1.79348,0,0,0-.77344,1.45215l-1.13184-.00879a2.62449,2.62449,0,0,1,1.13184-2.1084,4.3608,4.3608,0,0,1,2.78223-.8916,3.975,3.975,0,0,1,2.69336.85449,3.062,3.062,0,0,1,1.01367,2.38086v4.8291a5.97864,5.97864,0,0,0,.31152,2.2168v.11328Zm-3.5459-.81153a3.78576,3.78576,0,0,0,2.02344-.54687,3.21792,3.21792,0,0,0,1.29688-1.46191v-2.24512h-2.01856a5.06036,5.06036,0,0,0-2.6416.61816,1.85471,1.85471,0,0,0-.95215,1.64551,1.82408,1.82408,0,0,0,.63672,1.4248A2.39757,2.39757,0,0,0,609.72607,635.77441Z" transform="translate(-508.4117 -330.30306)"/><path d="M619.60107,631.44531l-1.292,1.24512v3.89551h-1.13183V622.09863h1.13183v9.27149l1.06543-1.15039,3.90528-3.83887h1.42382l-4.3291,4.30078,4.70606,5.9043h-1.34864Z" transform="translate(-508.4117 -330.30306)"/><path d="M630.40088,636.77441a4.42889,4.42889,0,0,1-2.35352-.6416,4.36594,4.36594,0,0,1-1.63672-1.78711,5.57263,5.57263,0,0,1-.585-2.57031v-.40527a5.9984,5.9984,0,0,1,.57129-2.65039,4.53509,4.53509,0,0,1,1.58887-1.85352,3.92361,3.92361,0,0,1,2.207-.6748,3.68351,3.68351,0,0,1,2.94727,1.26953,5.14358,5.14358,0,0,1,1.08984,3.46582v.63183h-7.28125v.2168a4.27167,4.27167,0,0,0,.99512,2.8916,3.167,3.167,0,0,0,2.5039,1.15528,3.682,3.682,0,0,0,1.59864-.33008,3.54964,3.54964,0,0,0,1.25879-1.05664l.708.53711A4.1177,4.1177,0,0,1,630.40088,636.77441Zm-.208-9.62011a2.81851,2.81851,0,0,0-2.14551.93359,4.31215,4.31215,0,0,0-1.06152,2.50879h6.12207v-.12305a3.74949,3.74949,0,0,0-.83984-2.3955A2.60114,2.60114,0,0,0,630.19287,627.1543Z" transform="translate(-508.4117 -330.30306)"/><path d="M649.332,631.58691a6.15367,6.15367,0,0,1-1.05664,3.78711,3.3674,3.3674,0,0,1-2.83008,1.40039,3.77632,3.77632,0,0,1-3.207-1.47168v5.207h-1.12305V626.38086h1.04688l.05664,1.44238a3.6235,3.6235,0,0,1,3.19727-1.63183,3.39734,3.39734,0,0,1,2.873,1.38672,6.27983,6.27983,0,0,1,1.043,3.84863Zm-1.13281-.19824a5.25792,5.25792,0,0,0-.80078-3.084,2.58768,2.58768,0,0,0-2.23633-1.13184,2.97715,2.97715,0,0,0-2.92383,1.95215v4.89551a2.98186,2.98186,0,0,0,1.16016,1.33887,3.3404,3.3404,0,0,0,1.7832.46289,2.56032,2.56032,0,0,0,2.2207-1.13672A5.71654,5.71654,0,0,0,648.19922,631.38867Z" transform="translate(-508.4117 -330.30306)"/><path d="M658.27148,636.58594a5.32006,5.32006,0,0,1-.21679-1.42383,3.91531,3.91531,0,0,1-1.51367,1.19238,4.62768,4.62768,0,0,1-1.94727.41992,3.41827,3.41827,0,0,1-2.38086-.82031,2.67158,2.67158,0,0,1-.91016-2.07519,2.73025,2.73025,0,0,1,1.24024-2.3584,5.96,5.96,0,0,1,3.457-.86719h2.04688v-1.16016a2.23958,2.23958,0,0,0-.67579-1.72168,2.78859,2.78859,0,0,0-1.96679-.62695,3.07611,3.07611,0,0,0-1.95117.60352,1.79348,1.79348,0,0,0-.77344,1.45215l-1.13281-.00879a2.623,2.623,0,0,1,1.13281-2.1084,4.358,4.358,0,0,1,2.78125-.8916,3.97322,3.97322,0,0,1,2.69336.85449,3.0588,3.0588,0,0,1,1.01367,2.38086v4.8291a5.95466,5.95466,0,0,0,.3125,2.2168v.11328Zm-3.54492-.81153a3.79058,3.79058,0,0,0,2.02344-.54687,3.2235,3.2235,0,0,0,1.29688-1.46191v-2.24512h-2.01954a5.05649,5.05649,0,0,0-2.64062.61816,1.85565,1.85565,0,0,0-.95313,1.64551,1.8272,1.8272,0,0,0,.63672,1.4248A2.40014,2.40014,0,0,0,654.72656,635.77441Z" transform="translate(-508.4117 -330.30306)"/><path d="M661.72461,631.38867a6.14471,6.14471,0,0,1,1.06055-3.7959,3.42351,3.42351,0,0,1,2.88086-1.40136,3.54963,3.54963,0,0,1,3.16992,1.66015l.05664-1.4707h1.05664v9.99805A4.31756,4.31756,0,0,1,668.8457,639.5a3.94808,3.94808,0,0,1-2.99023,1.15137,4.545,4.545,0,0,1-2.0332-.47657,3.94658,3.94658,0,0,1-1.52344-1.26855l.63281-.67871a3.57661,3.57661,0,0,0,2.84766,1.4707,2.895,2.895,0,0,0,2.207-.835,3.32239,3.32239,0,0,0,.82226-2.31543v-1.28222a3.65109,3.65109,0,0,1-3.16015,1.50878,3.40316,3.40316,0,0,1-2.84961-1.415,6.16086,6.16086,0,0,1-1.07422-3.81934Zm1.14062.19824a5.32768,5.32768,0,0,0,.78321,3.08008,2.53258,2.53258,0,0,0,2.207,1.127,3.02014,3.02014,0,0,0,2.95312-1.86817v-4.74414a3.23973,3.23973,0,0,0-1.14257-1.49512,3.07378,3.07378,0,0,0-1.791-.51367,2.55945,2.55945,0,0,0-2.2168,1.11719A5.68056,5.68056,0,0,0,662.86523,631.58691Z" transform="translate(-508.4117 -330.30306)"/><path d="M676.84375,636.77441a4.43133,4.43133,0,0,1-2.35352-.6416,4.37247,4.37247,0,0,1-1.63671-1.78711,5.5842,5.5842,0,0,1-.584-2.57031v-.40527a5.998,5.998,0,0,1,.57031-2.65039,4.53717,4.53717,0,0,1,1.58985-1.85352,3.919,3.919,0,0,1,2.207-.6748,3.68618,3.68618,0,0,1,2.94726,1.26953,5.14353,5.14353,0,0,1,1.08985,3.46582v.63183h-7.28125v.2168a4.271,4.271,0,0,0,.99414,2.8916,3.16844,3.16844,0,0,0,2.50391,1.15528,3.68941,3.68941,0,0,0,1.5996-.33008,3.55529,3.55529,0,0,0,1.25782-1.05664l.709.53711A4.11941,4.11941,0,0,1,676.84375,636.77441Zm-.207-9.62011a2.82058,2.82058,0,0,0-2.14649.93359,4.30521,4.30521,0,0,0-1.06054,2.50879h6.12109v-.12305a3.73856,3.73856,0,0,0-.83984-2.3955A2.59782,2.59782,0,0,0,676.63672,627.1543Z" transform="translate(-508.4117 -330.30306)"/><path d="M688.98242,633.99219a1.60759,1.60759,0,0,0-.67383-1.34864,5.18668,5.18668,0,0,0-2.0332-.79687,9.2307,9.2307,0,0,1-2.10742-.66016,2.81486,2.81486,0,0,1-1.11328-.91015,2.27167,2.27167,0,0,1-.36328-1.30176,2.43241,2.43241,0,0,1,1.00976-1.99512,4.078,4.078,0,0,1,2.584-.78808,4.19521,4.19521,0,0,1,2.74023.84472,2.70653,2.70653,0,0,1,1.0332,2.20215h-1.13281a1.83091,1.83091,0,0,0-.74805-1.49023,3.38813,3.38813,0,0,0-3.67968-.09864,1.52757,1.52757,0,0,0-.67383,1.28711,1.39268,1.39268,0,0,0,.56055,1.1836,5.93191,5.93191,0,0,0,2.04687.76855,9.69441,9.69441,0,0,1,2.22656.74512,2.87443,2.87443,0,0,1,1.09766.95312,2.61636,2.61636,0,0,1-.68359,3.41407,4.44862,4.44862,0,0,1-2.72071.77343,4.56643,4.56643,0,0,1-2.89062-.86328,2.65809,2.65809,0,0,1-1.10938-2.18261h1.13282a1.96146,1.96146,0,0,0,.834,1.542,3.42288,3.42288,0,0,0,2.0332.55176,3.20678,3.20678,0,0,0,1.90625-.51954A1.55814,1.55814,0,0,0,688.98242,633.99219Z" transform="translate(-508.4117 -330.30306)"/><path d="M580.0376,659.76563v-9.28125h-1.68848v-.92383h1.68848v-1.23633a3.36288,3.36288,0,0,1,.79687-2.40527,2.91875,2.91875,0,0,1,2.22168-.83887,4.329,4.329,0,0,1,1.19824.15918l-.085.93457a4.417,4.417,0,0,0-1.02832-.11328,1.844,1.844,0,0,0-1.45215.582,2.39276,2.39276,0,0,0-.51953,1.65039v1.26758h2.4336v.92383h-2.4336v9.28125Z" transform="translate(-508.4117 -330.30306)"/><path d="M584.99854,654.51172a6.00141,6.00141,0,0,1,.57128-2.65039,4.28807,4.28807,0,0,1,3.97559-2.49024,4.19767,4.19767,0,0,1,3.30078,1.42969,5.50443,5.50443,0,0,1,1.26367,3.78711v.23535a6.0672,6.0672,0,0,1-.57031,2.665,4.25919,4.25919,0,0,1-1.6084,1.82422,4.40665,4.40665,0,0,1-2.36719.6416,4.20305,4.20305,0,0,1-3.29687-1.42871,5.49428,5.49428,0,0,1-1.26855-3.78711Zm1.13183.31152a4.63012,4.63012,0,0,0,.94824,3.00391,3.206,3.206,0,0,0,4.96094,0,4.78256,4.78256,0,0,0,.94824-3.09863v-.2168a5.193,5.193,0,0,0-.43359-2.14063,3.4987,3.4987,0,0,0-1.2168-1.50488,3.1151,3.1151,0,0,0-1.792-.53223,3.01479,3.01479,0,0,0-2.46191,1.1836,4.786,4.786,0,0,0-.95313,3.09863Z" transform="translate(-508.4117 -330.30306)"/><path d="M601.15674,650.52246a4.22744,4.22744,0,0,0-.76367-.06641,2.75386,2.75386,0,0,0-1.78809.58985,3.23092,3.23092,0,0,0-1.042,1.71191v7.00782h-1.12207V649.56055h1.10351l.01856,1.62207a3.003,3.003,0,0,1,2.87695-1.81153,1.85113,1.85113,0,0,1,.74512.12305Z" transform="translate(-508.4117 -330.30306)"/><path d="M609.39014,646.94727v2.61328h2.11328v.92383h-2.11328V657.293a2.12985,2.12985,0,0,0,.30664,1.26465,1.18766,1.18766,0,0,0,1.02343.416,6.949,6.949,0,0,0,.915-.09472l.04688.916a3.67572,3.67572,0,0,1-1.207.15918,2.01463,2.01463,0,0,1-1.68848-.67383,3.17287,3.17287,0,0,1-.52832-1.98535v-6.81054h-1.87695v-.92383h1.87695v-2.61328Z" transform="translate(-508.4117 -330.30306)"/><path d="M614.96436,651.28613a3.99876,3.99876,0,0,1,1.42382-1.415,3.7379,3.7379,0,0,1,1.89649-.5,3.0605,3.0605,0,0,1,2.44238.92481,4.16939,4.16939,0,0,1,.81152,2.77344v6.69629H620.4165v-6.70606a3.12252,3.12252,0,0,0-.58007-2.03711,2.2744,2.2744,0,0,0-1.8252-.66992,2.85619,2.85619,0,0,0-1.85352.65527,3.83874,3.83874,0,0,0-1.19335,1.76856v6.98926h-1.12207V645.27832h1.12207Z" transform="translate(-508.4117 -330.30306)"/><path d="M628.396,659.9541a4.429,4.429,0,0,1-2.35352-.6416,4.366,4.366,0,0,1-1.63672-1.78711,5.57253,5.57253,0,0,1-.585-2.57031v-.40528a5.99846,5.99846,0,0,1,.57129-2.65039,4.53505,4.53505,0,0,1,1.58887-1.85351,3.92362,3.92362,0,0,1,2.207-.67481,3.68348,3.68348,0,0,1,2.94726,1.26954,5.14353,5.14353,0,0,1,1.08985,3.46582v.63183h-7.28125v.2168a4.27168,4.27168,0,0,0,.99511,2.8916,3.16706,3.16706,0,0,0,2.50391,1.15527,3.68192,3.68192,0,0,0,1.59863-.33007,3.5494,3.5494,0,0,0,1.25879-1.05665l.708.53711A4.1177,4.1177,0,0,1,628.396,659.9541Zm-.208-9.62012a2.81852,2.81852,0,0,0-2.14551.9336,4.31206,4.31206,0,0,0-1.06152,2.50879H631.103v-.12305a3.74952,3.74952,0,0,0-.83985-2.39551A2.60115,2.60115,0,0,0,628.188,650.334Z" transform="translate(-508.4117 -330.30306)"/><path d="M639.0542,646.6123a.75787.75787,0,0,1,.208-.53906.7385.7385,0,0,1,.56543-.21972.741.741,0,0,1,.7832.75878.73043.73043,0,0,1-.21289.53418.75889.75889,0,0,1-.57031.21582.72678.72678,0,0,1-.77344-.75Zm1.33008,13.15333h-1.13184V649.56055h1.13184Z" transform="translate(-508.4117 -330.30306)"/><path d="M644.52539,649.56055l.03711,1.74414a4.04981,4.04981,0,0,1,1.43359-1.4375,3.71535,3.71535,0,0,1,1.89649-.4961,3.057,3.057,0,0,1,2.4414.92481,4.17474,4.17474,0,0,1,.8125,2.77344v6.69629h-1.123v-6.70606a3.11138,3.11138,0,0,0-.58008-2.03711,2.27218,2.27218,0,0,0-1.82422-.66992,2.85426,2.85426,0,0,0-1.85351.65527,3.8313,3.8313,0,0,0-1.19336,1.76856v6.98926h-1.12305V649.56055Z" transform="translate(-508.4117 -330.30306)"/><path d="M655.81445,646.94727v2.61328h2.11328v.92383h-2.11328V657.293a2.137,2.137,0,0,0,.30664,1.26465,1.19008,1.19008,0,0,0,1.02344.416,6.94433,6.94433,0,0,0,.916-.09472l.04687.916a3.68372,3.68372,0,0,1-1.207.15918,2.01791,2.01791,0,0,1-1.68945-.67383,3.1793,3.1793,0,0,1-.52735-1.98535v-6.81054h-1.87695v-.92383h1.87695v-2.61328Z" transform="translate(-508.4117 -330.30306)"/><path d="M664.21875,659.9541a4.43142,4.43142,0,0,1-2.35352-.6416,4.37253,4.37253,0,0,1-1.63671-1.78711,5.58423,5.58423,0,0,1-.584-2.57031v-.40528a5.9981,5.9981,0,0,1,.57031-2.65039,4.5372,4.5372,0,0,1,1.58985-1.85351,3.919,3.919,0,0,1,2.207-.67481,3.68619,3.68619,0,0,1,2.94726,1.26954,5.14353,5.14353,0,0,1,1.08985,3.46582v.63183h-7.28125v.2168a4.27105,4.27105,0,0,0,.99414,2.8916,3.16844,3.16844,0,0,0,2.50391,1.15527,3.68941,3.68941,0,0,0,1.5996-.33007,3.55522,3.55522,0,0,0,1.25782-1.05665l.709.53711A4.11939,4.11939,0,0,1,664.21875,659.9541Zm-.207-9.62012a2.82059,2.82059,0,0,0-2.14649.9336,4.30518,4.30518,0,0,0-1.06054,2.50879h6.12109v-.12305a3.73859,3.73859,0,0,0-.83984-2.39551A2.59785,2.59785,0,0,0,664.01172,650.334Z" transform="translate(-508.4117 -330.30306)"/><path d="M674.96094,650.52246a4.21954,4.21954,0,0,0-.76367-.06641,2.74927,2.74927,0,0,0-1.78711.58985,3.232,3.232,0,0,0-1.043,1.71191v7.00782h-1.1211V649.56055h1.10352l.01758,1.62207a3.003,3.003,0,0,1,2.87695-1.81153,1.85947,1.85947,0,0,1,.74609.12305Z" transform="translate(-508.4117 -330.30306)"/><path d="M677.82031,649.56055l.03711,1.74414a4.04975,4.04975,0,0,1,1.4336-1.4375,3.71529,3.71529,0,0,1,1.89648-.4961,3.057,3.057,0,0,1,2.44141.92481,4.17485,4.17485,0,0,1,.8125,2.77344v6.69629h-1.12305v-6.70606a3.11138,3.11138,0,0,0-.58008-2.03711,2.27218,2.27218,0,0,0-1.82422-.66992,2.85428,2.85428,0,0,0-1.85351.65527,3.8313,3.8313,0,0,0-1.19336,1.76856v6.98926h-1.12305V649.56055Z" transform="translate(-508.4117 -330.30306)"/><path d="M691.30859,659.9541a4.4265,4.4265,0,0,1-2.35351-.6416,4.3594,4.3594,0,0,1-1.63672-1.78711,5.56078,5.56078,0,0,1-.58594-2.57031v-.40528a5.99883,5.99883,0,0,1,.57227-2.65039,4.53283,4.53283,0,0,1,1.58789-1.85351,3.92821,3.92821,0,0,1,2.207-.67481,3.68082,3.68082,0,0,1,2.94727,1.26954,5.14358,5.14358,0,0,1,1.08984,3.46582v.63183h-7.28125v.2168a4.27232,4.27232,0,0,0,.99609,2.8916,3.16568,3.16568,0,0,0,2.50391,1.15527,3.67453,3.67453,0,0,0,1.59766-.33007,3.54379,3.54379,0,0,0,1.25976-1.05665l.707.53711A4.116,4.116,0,0,1,691.30859,659.9541Zm-.209-9.62012a2.81644,2.81644,0,0,0-2.14453.9336,4.319,4.319,0,0,0-1.0625,2.50879h6.12305v-.12305a3.76051,3.76051,0,0,0-.83985-2.39551A2.60448,2.60448,0,0,0,691.09961,650.334Z" transform="translate(-508.4117 -330.30306)"/><path d="M699.08789,646.94727v2.61328h2.11328v.92383h-2.11328V657.293a2.137,2.137,0,0,0,.30664,1.26465,1.19008,1.19008,0,0,0,1.02344.416,6.94406,6.94406,0,0,0,.916-.09472l.04688.916a3.68376,3.68376,0,0,1-1.207.15918,2.01791,2.01791,0,0,1-1.68945-.67383,3.17923,3.17923,0,0,1-.52735-1.98535v-6.81054h-1.877v-.92383h1.877v-2.61328Z" transform="translate(-508.4117 -330.30306)"/></svg>