<svg id="Layer_1" data-name="Layer 1" xmlns="http://www.w3.org/2000/svg" viewBox="0 0 263 364"><defs><style>.cls-1,.cls-4{fill:#fff;}.cls-2{fill:#494949;}.cls-3{fill:#9f1cad;}.cls-4{opacity:0.2;}</style></defs><title>w-java</title><rect class="cls-1" x="10" y="9.61035" width="243.31738" height="344.4502"/><rect class="cls-2" x="10" width="243.31738" height="10"/><rect class="cls-2" x="10" y="354" width="243.31738" height="10"/><rect class="cls-2" x="253" y="10.05119" width="10" height="344.00935"/><rect class="cls-2" y="10.05119" width="10" height="344.00935"/><path d="M174.36328,80.60449v-2.625h-2.625v-2.625h5.25v2.625h7.875v-15.75h5.25v15.75h-2.625v2.625Z" transform="translate(-82.58801 -30.30306)"/><path d="M192.73828,80.60449v-13.125h2.625v-2.625h2.625v-2.625h7.875v2.625h2.625v2.625h2.625v13.125h-5.25v-5.25h-7.875v5.25Zm5.25-7.875h7.875v-5.25h-2.625v-2.625h-2.625v2.625h-2.625Z" transform="translate(-82.58801 -30.30306)"/><path d="M221.61328,80.60449v-2.625h-2.625v-2.625h-2.625v-2.625h-2.625v-10.5h5.25v7.875h2.625v2.625h2.625v-2.625h2.625v-7.875h5.25v10.5h-2.625v2.625h-2.625v2.625h-2.625v2.625Z" transform="translate(-82.58801 -30.30306)"/><path d="M234.73828,80.60449v-13.125h2.625v-2.625h2.625v-2.625h7.875v2.625h2.625v2.625h2.625v13.125h-5.25v-5.25h-7.875v5.25Zm5.25-7.875h7.875v-5.25h-2.625v-2.625h-2.625v2.625h-2.625Z" transform="translate(-82.58801 -30.30306)"/><path d="M165.46582,323.834h-4.707v12.752h-1.16016V323.834h-4.69726v-.98144h10.56445Z" transform="translate(-82.58801 -30.30306)"/><path d="M168.54,328.10645a3.99855,3.99855,0,0,1,1.42383-1.415,3.73773,3.73773,0,0,1,1.89648-.5,3.0605,3.0605,0,0,1,2.44238.9248,4.16946,4.16946,0,0,1,.81153,2.77344v6.69629h-1.12207v-6.70606a3.12258,3.12258,0,0,0-.58008-2.03711,2.2744,2.2744,0,0,0-1.8252-.66992,2.85612,2.85612,0,0,0-1.85351.65528,3.83865,3.83865,0,0,0-1.19336,1.76855v6.98926H167.418V322.09863H168.54Z" transform="translate(-82.58801 -30.30306)"/><path d="M181.97168,336.77441a4.42891,4.42891,0,0,1-2.35352-.6416,4.36585,4.36585,0,0,1-1.63671-1.78711,5.57251,5.57251,0,0,1-.585-2.57031v-.40527a5.9984,5.9984,0,0,1,.57129-2.65039,4.53509,4.53509,0,0,1,1.58887-1.85352,3.92361,3.92361,0,0,1,2.207-.6748,3.68351,3.68351,0,0,1,2.94727,1.26953,5.14358,5.14358,0,0,1,1.08984,3.46582v.63183h-7.28125v.2168a4.27167,4.27167,0,0,0,.99512,2.8916,3.16705,3.16705,0,0,0,2.5039,1.15528,3.682,3.682,0,0,0,1.59864-.33008,3.54964,3.54964,0,0,0,1.25879-1.05664l.708.53711A4.1177,4.1177,0,0,1,181.97168,336.77441Zm-.208-9.62011a2.81851,2.81851,0,0,0-2.14551.93359,4.31215,4.31215,0,0,0-1.06152,2.50879h6.12207v-.123a3.74949,3.74949,0,0,0-.83984-2.3955A2.60114,2.60114,0,0,0,181.76367,327.1543Z" transform="translate(-82.58801 -30.30306)"/><path d="M193.72363,326.38086l.03809,1.66016a3.76926,3.76926,0,0,1,1.415-1.38672,3.873,3.873,0,0,1,1.88672-.46289,2.86413,2.86413,0,0,1,3.06543,1.98144,3.82189,3.82189,0,0,1,1.46191-1.4668,4.04562,4.04562,0,0,1,2.01758-.51464q3.28272,0,3.34863,3.585v6.80957H205.8252v-6.72461a3.04092,3.04092,0,0,0-.58887-2.02832,2.4,2.4,0,0,0-1.8916-.66016,3.0117,3.0117,0,0,0-2.05664.78711,2.7868,2.7868,0,0,0-.9336,1.873v6.75293h-1.13183v-6.80957a2.7947,2.7947,0,0,0-.61719-1.957,2.46148,2.46148,0,0,0-1.87305-.64649,2.84685,2.84685,0,0,0-1.8291.6084,3.56409,3.56409,0,0,0-1.13184,1.80566v6.999h-1.13183V326.38086Z" transform="translate(-82.58801 -30.30306)"/><path d="M216.25684,336.58594a5.31958,5.31958,0,0,1-.2168-1.42383,3.92251,3.92251,0,0,1-1.51367,1.19238,4.63089,4.63089,0,0,1-1.94727.41992,3.42078,3.42078,0,0,1-2.38183-.82031,2.67154,2.67154,0,0,1-.91016-2.07519,2.73251,2.73251,0,0,1,1.24023-2.3584,5.96423,5.96423,0,0,1,3.457-.86719h2.04687v-1.16016a2.239,2.239,0,0,0-.6748-1.72168,2.78863,2.78863,0,0,0-1.9668-.627,3.0771,3.0771,0,0,0-1.95215.60352,1.79351,1.79351,0,0,0-.77344,1.45215l-1.13183-.00879a2.62448,2.62448,0,0,1,1.13183-2.1084,4.36082,4.36082,0,0,1,2.78223-.8916,3.975,3.975,0,0,1,2.69336.85449,3.062,3.062,0,0,1,1.01367,2.38086v4.8291a5.97885,5.97885,0,0,0,.31152,2.2168v.11328Zm-3.5459-.81153a3.7858,3.7858,0,0,0,2.02344-.54687,3.2179,3.2179,0,0,0,1.29687-1.46191v-2.24512H214.0127a5.0604,5.0604,0,0,0-2.64161.61816,1.85472,1.85472,0,0,0-.95214,1.64551,1.82407,1.82407,0,0,0,.63671,1.4248A2.39758,2.39758,0,0,0,212.71094,335.77441Z" transform="translate(-82.58801 -30.30306)"/><path d="M226.27344,333.99219a1.60759,1.60759,0,0,0-.67383-1.34864,5.19311,5.19311,0,0,0-2.0332-.79687,9.21466,9.21466,0,0,1-2.10743-.66016,2.81486,2.81486,0,0,1-1.11328-.91015,2.27174,2.27174,0,0,1-.36328-1.30176,2.42981,2.42981,0,0,1,1.00977-1.99512,4.07414,4.07414,0,0,1,2.584-.78808,4.19887,4.19887,0,0,1,2.74024.84472,2.70845,2.70845,0,0,1,1.03222,2.20215H226.2168a1.82921,1.82921,0,0,0-.749-1.49023,3.38647,3.38647,0,0,0-3.67871-.09864,1.52614,1.52614,0,0,0-.6748,1.28711,1.391,1.391,0,0,0,.56152,1.1836,5.92349,5.92349,0,0,0,2.04688.76855,9.66676,9.66676,0,0,1,2.22558.74512,2.878,2.878,0,0,1,1.09864.95312,2.61946,2.61946,0,0,1-.6836,3.41407,4.45056,4.45056,0,0,1-2.7207.77343,4.56933,4.56933,0,0,1-2.8916-.86328,2.65712,2.65712,0,0,1-1.1084-2.18261h1.13281a1.95877,1.95877,0,0,0,.834,1.542,3.41873,3.41873,0,0,0,2.0332.55176,3.20361,3.20361,0,0,0,1.90527-.51954A1.55685,1.55685,0,0,0,226.27344,333.99219Z" transform="translate(-82.58801 -30.30306)"/><path d="M231.69727,323.76758v2.61328h2.11328v.92383h-2.11328v6.80859a2.12977,2.12977,0,0,0,.30664,1.26465,1.18765,1.18765,0,0,0,1.02343.416,6.94768,6.94768,0,0,0,.915-.09473l.04688.916a3.67572,3.67572,0,0,1-1.207.15918,2.01466,2.01466,0,0,1-1.68848-.67382,3.17292,3.17292,0,0,1-.52832-1.98536v-6.81054h-1.87695v-.92383h1.87695v-2.61328Z" transform="translate(-82.58801 -30.30306)"/><path d="M240.10156,336.77441a4.42885,4.42885,0,0,1-2.35351-.6416,4.36594,4.36594,0,0,1-1.63672-1.78711,5.5725,5.5725,0,0,1-.585-2.57031v-.40527a5.9984,5.9984,0,0,1,.57129-2.65039,4.535,4.535,0,0,1,1.58886-1.85352,3.92361,3.92361,0,0,1,2.207-.6748,3.68351,3.68351,0,0,1,2.94727,1.26953,5.14358,5.14358,0,0,1,1.08984,3.46582v.63183h-7.28125v.2168a4.27167,4.27167,0,0,0,.99512,2.8916,3.16707,3.16707,0,0,0,2.50391,1.15528,3.682,3.682,0,0,0,1.59863-.33008,3.54955,3.54955,0,0,0,1.25879-1.05664l.708.53711A4.11772,4.11772,0,0,1,240.10156,336.77441Zm-.208-9.62011a2.81848,2.81848,0,0,0-2.1455.93359,4.31216,4.31216,0,0,0-1.06153,2.50879h6.12207v-.123a3.74943,3.74943,0,0,0-.83984-2.3955A2.60114,2.60114,0,0,0,239.89355,327.1543Z" transform="translate(-82.58801 -30.30306)"/><path d="M250.84375,327.34277a4.22746,4.22746,0,0,0-.76367-.0664,2.75391,2.75391,0,0,0-1.78809.58984,3.23091,3.23091,0,0,0-1.042,1.71192v7.00781h-1.12207V326.38086h1.10352l.01855,1.62207a3.003,3.003,0,0,1,2.87695-1.81152,1.85112,1.85112,0,0,1,.74512.123Z" transform="translate(-82.58801 -30.30306)"/><path d="M256.70117,331.332a6.00141,6.00141,0,0,1,.57129-2.65039,4.28809,4.28809,0,0,1,3.97559-2.49023,4.19768,4.19768,0,0,1,3.30078,1.42968,5.50443,5.50443,0,0,1,1.26367,3.78711v.23535a6.0672,6.0672,0,0,1-.57031,2.665,4.25914,4.25914,0,0,1-1.6084,1.82422,4.40658,4.40658,0,0,1-2.36719.6416,4.203,4.203,0,0,1-3.29687-1.42871,5.49424,5.49424,0,0,1-1.26856-3.78711Zm1.13184.31152a4.63006,4.63006,0,0,0,.94824,3.00391,3.206,3.206,0,0,0,4.96094,0,4.78261,4.78261,0,0,0,.94824-3.09863v-.2168a5.1929,5.1929,0,0,0-.43359-2.14062,3.4988,3.4988,0,0,0-1.2168-1.50489,3.11509,3.11509,0,0,0-1.792-.53222,3.01481,3.01481,0,0,0-2.46192,1.18359,4.7861,4.7861,0,0,0-.95312,3.09863Z" transform="translate(-82.58801 -30.30306)"/><path d="M268.95313,336.58594v-9.28125h-1.68848v-.92383h1.68848v-1.23633a3.36288,3.36288,0,0,1,.79687-2.40527,2.91875,2.91875,0,0,1,2.22168-.83887,4.32942,4.32942,0,0,1,1.19824.15918l-.085.93457a4.41756,4.41756,0,0,0-1.02832-.11328,1.844,1.844,0,0,0-1.45215.582,2.39273,2.39273,0,0,0-.51953,1.65039v1.26758h2.43359v.92383H270.085v9.28125Z" transform="translate(-82.58801 -30.30306)"/><path d="M151.62793,354.51172a6.00141,6.00141,0,0,1,.57129-2.65039,4.288,4.288,0,0,1,3.97558-2.49024,4.19769,4.19769,0,0,1,3.30079,1.42969,5.50443,5.50443,0,0,1,1.26367,3.78711v.23535a6.0672,6.0672,0,0,1-.57031,2.665,4.25926,4.25926,0,0,1-1.6084,1.82422,4.40667,4.40667,0,0,1-2.36719.6416,4.20307,4.20307,0,0,1-3.29688-1.42871,5.49428,5.49428,0,0,1-1.26855-3.78711Zm1.13184.31152a4.63006,4.63006,0,0,0,.94824,3.00391,3.206,3.206,0,0,0,4.96094,0,4.78261,4.78261,0,0,0,.94824-3.09863v-.2168a5.19279,5.19279,0,0,0-.4336-2.14063,3.49875,3.49875,0,0,0-1.21679-1.50488,3.11511,3.11511,0,0,0-1.792-.53223,3.01481,3.01481,0,0,0-2.46191,1.1836,4.7861,4.7861,0,0,0-.95312,3.09863Z" transform="translate(-82.58801 -30.30306)"/><path d="M171.28418,354.7666a6.14734,6.14734,0,0,1-1.05664,3.78711,3.37345,3.37345,0,0,1-2.83887,1.40039,3.6688,3.6688,0,0,1-3.22558-1.584l-.04688,1.39551h-1.05664V345.27832h1.12207v5.7627a3.54794,3.54794,0,0,1,3.18848-1.66993,3.40563,3.40563,0,0,1,2.8623,1.38184,6.222,6.222,0,0,1,1.05176,3.84375Zm-1.13184-.19824a5.31889,5.31889,0,0,0-.78222-3.11719,2.55377,2.55377,0,0,0-2.208-1.09863,3.105,3.105,0,0,0-1.83887.5332,3.23546,3.23546,0,0,0-1.1416,1.56055v4.60254a3.0254,3.0254,0,0,0,3,1.9248,2.535,2.535,0,0,0,2.18359-1.10351A5.68975,5.68975,0,0,0,170.15234,354.56836Z" transform="translate(-82.58801 -30.30306)"/><path d="M174.99121,349.56055v11.42187a3.09945,3.09945,0,0,1-.67969,2.16016,2.57064,2.57064,0,0,1-1.999.74512,2.83957,2.83957,0,0,1-.99023-.17774l.01855-.92578a3.00235,3.00235,0,0,0,.84863.12207q1.67871,0,1.67871-1.93457V349.56055Zm-.55664-3.707a.73226.73226,0,0,1,.78223.75878.73746.73746,0,0,1-.207.53418.75843.75843,0,0,1-.5752.21582.73136.73136,0,0,1-.56152-.21582.75073.75073,0,0,1-.20313-.53418.7709.7709,0,0,1,.20313-.53906A.72683.72683,0,0,1,174.43457,345.85352Z" transform="translate(-82.58801 -30.30306)"/><path d="M182.13184,359.9541a4.429,4.429,0,0,1-2.35352-.6416,4.366,4.366,0,0,1-1.63672-1.78711,5.57253,5.57253,0,0,1-.585-2.57031v-.40528a5.99846,5.99846,0,0,1,.57129-2.65039,4.53505,4.53505,0,0,1,1.58887-1.85351,3.92362,3.92362,0,0,1,2.207-.67481,3.68348,3.68348,0,0,1,2.94726,1.26954,5.14353,5.14353,0,0,1,1.08985,3.46582v.63183h-7.28125v.2168a4.27168,4.27168,0,0,0,.99511,2.8916,3.16706,3.16706,0,0,0,2.50391,1.15527,3.68192,3.68192,0,0,0,1.59863-.33007,3.5494,3.5494,0,0,0,1.25879-1.05665l.708.53711A4.1177,4.1177,0,0,1,182.13184,359.9541Zm-.208-9.62012a2.81852,2.81852,0,0,0-2.14551.9336,4.31206,4.31206,0,0,0-1.06152,2.50879h6.12207v-.123a3.74952,3.74952,0,0,0-.83985-2.39551A2.60115,2.60115,0,0,0,181.92383,350.334Z" transform="translate(-82.58801 -30.30306)"/><path d="M191.93066,359.002a2.97862,2.97862,0,0,0,1.97559-.665,2.33816,2.33816,0,0,0,.86328-1.72168h1.085a3.18955,3.18955,0,0,1-.585,1.70215,3.66389,3.66389,0,0,1-1.42871,1.20313,4.31233,4.31233,0,0,1-1.91016.43359,3.94377,3.94377,0,0,1-3.18359-1.39551,5.64775,5.64775,0,0,1-1.17383-3.7539v-.33985a6.37262,6.37262,0,0,1,.52832-2.66894,4.06308,4.06308,0,0,1,1.51367-1.792,4.17441,4.17441,0,0,1,2.30567-.63282,3.93932,3.93932,0,0,1,2.76855,1,3.64787,3.64787,0,0,1,1.165,2.63184h-1.085a2.731,2.731,0,0,0-2.84863-2.66895,2.81335,2.81335,0,0,0-2.37207,1.10352,4.99348,4.99348,0,0,0-.84375,3.09375v.33008a4.88316,4.88316,0,0,0,.84375,3.0459A2.83453,2.83453,0,0,0,191.93066,359.002Z" transform="translate(-82.58801 -30.30306)"/><path d="M199.86328,346.94727v2.61328h2.11328v.92383h-2.11328V357.293a2.12985,2.12985,0,0,0,.30664,1.26465,1.18767,1.18767,0,0,0,1.02344.416,6.94913,6.94913,0,0,0,.915-.09472l.04687.916a3.67568,3.67568,0,0,1-1.207.15918,2.0146,2.0146,0,0,1-1.68847-.67383,3.17287,3.17287,0,0,1-.52832-1.98535v-6.81054h-1.877v-.92383h1.877v-2.61328Z" transform="translate(-82.58801 -30.30306)"/><path d="M208.38965,354.51172a6.00141,6.00141,0,0,1,.57129-2.65039,4.288,4.288,0,0,1,3.97558-2.49024,4.19766,4.19766,0,0,1,3.30078,1.42969,5.50439,5.50439,0,0,1,1.26368,3.78711v.23535a6.06707,6.06707,0,0,1-.57032,2.665,4.25924,4.25924,0,0,1-1.60839,1.82422,4.40667,4.40667,0,0,1-2.36719.6416,4.20307,4.20307,0,0,1-3.29688-1.42871,5.49428,5.49428,0,0,1-1.26855-3.78711Zm1.13183.31152a4.63007,4.63007,0,0,0,.94825,3.00391,3.206,3.206,0,0,0,4.96093,0,4.78256,4.78256,0,0,0,.94825-3.09863v-.2168a5.19279,5.19279,0,0,0-.4336-2.14063,3.49875,3.49875,0,0,0-1.21679-1.50488,3.11513,3.11513,0,0,0-1.792-.53223,3.01481,3.01481,0,0,0-2.46191,1.1836,4.7861,4.7861,0,0,0-.95313,3.09863Z" transform="translate(-82.58801 -30.30306)"/><path d="M224.54688,350.52246a4.22755,4.22755,0,0,0-.76368-.06641,2.75383,2.75383,0,0,0-1.78808.58985,3.2308,3.2308,0,0,0-1.042,1.71191v7.00782h-1.12208V349.56055h1.10352l.01856,1.62207a3.003,3.003,0,0,1,2.877-1.81153,1.85113,1.85113,0,0,1,.74512.12305Z" transform="translate(-82.58801 -30.30306)"/><path d="M226.26367,346.6123a.75787.75787,0,0,1,.208-.53906.73852.73852,0,0,1,.56543-.21972.741.741,0,0,1,.7832.75878.73043.73043,0,0,1-.21289.53418.75886.75886,0,0,1-.57031.21582.72678.72678,0,0,1-.77344-.75Zm1.33008,13.15333h-1.13184V349.56055h1.13184Z" transform="translate(-82.58801 -30.30306)"/><path d="M234.61133,359.9541a4.429,4.429,0,0,1-2.35352-.6416,4.366,4.366,0,0,1-1.63672-1.78711,5.57266,5.57266,0,0,1-.585-2.57031v-.40528a5.99846,5.99846,0,0,1,.57129-2.65039,4.53505,4.53505,0,0,1,1.58887-1.85351,3.92362,3.92362,0,0,1,2.207-.67481,3.68352,3.68352,0,0,1,2.94727,1.26954,5.14358,5.14358,0,0,1,1.08984,3.46582v.63183h-7.28125v.2168a4.27164,4.27164,0,0,0,.99512,2.8916,3.167,3.167,0,0,0,2.5039,1.15527,3.682,3.682,0,0,0,1.59864-.33007,3.54957,3.54957,0,0,0,1.25879-1.05665l.708.53711A4.1177,4.1177,0,0,1,234.61133,359.9541Zm-.208-9.62012a2.81852,2.81852,0,0,0-2.14551.9336,4.31212,4.31212,0,0,0-1.06152,2.50879h6.12207v-.123a3.74952,3.74952,0,0,0-.83984-2.39551A2.60117,2.60117,0,0,0,234.40332,350.334Z" transform="translate(-82.58801 -30.30306)"/><path d="M241.71387,349.56055l.03711,1.74414a4.05758,4.05758,0,0,1,1.43359-1.4375,3.71788,3.71788,0,0,1,1.89648-.4961,3.06052,3.06052,0,0,1,2.44239.92481,4.16944,4.16944,0,0,1,.81152,2.77344v6.69629h-1.12207v-6.70606a3.12252,3.12252,0,0,0-.58008-2.03711,2.27439,2.27439,0,0,0-1.82519-.66992,2.85619,2.85619,0,0,0-1.85352.65527,3.83876,3.83876,0,0,0-1.19336,1.76856v6.98926h-1.12207V349.56055Z" transform="translate(-82.58801 -30.30306)"/><path d="M253.00293,346.94727v2.61328h2.11328v.92383h-2.11328V357.293a2.12985,2.12985,0,0,0,.30664,1.26465,1.18767,1.18767,0,0,0,1.02344.416,6.94929,6.94929,0,0,0,.915-.09472l.04687.916a3.67572,3.67572,0,0,1-1.207.15918,2.01463,2.01463,0,0,1-1.68848-.67383,3.17293,3.17293,0,0,1-.52832-1.98535v-6.81054h-1.877v-.92383h1.877v-2.61328Z" transform="translate(-82.58801 -30.30306)"/><path d="M261.4082,359.9541a4.42894,4.42894,0,0,1-2.35351-.6416,4.366,4.366,0,0,1-1.63672-1.78711,5.57253,5.57253,0,0,1-.585-2.57031v-.40528a5.99846,5.99846,0,0,1,.57129-2.65039,4.535,4.535,0,0,1,1.58886-1.85351,3.92365,3.92365,0,0,1,2.207-.67481,3.68349,3.68349,0,0,1,2.94726,1.26954,5.14358,5.14358,0,0,1,1.08984,3.46582v.63183h-7.28125v.2168a4.27169,4.27169,0,0,0,.99512,2.8916,3.16706,3.16706,0,0,0,2.50391,1.15527,3.682,3.682,0,0,0,1.59863-.33007,3.5494,3.5494,0,0,0,1.25879-1.05665l.708.53711A4.1177,4.1177,0,0,1,261.4082,359.9541Zm-.208-9.62012a2.81849,2.81849,0,0,0-2.14551.9336,4.31213,4.31213,0,0,0-1.06153,2.50879h6.12207v-.123a3.74946,3.74946,0,0,0-.83984-2.39551A2.60116,2.60116,0,0,0,261.2002,350.334Z" transform="translate(-82.58801 -30.30306)"/><path d="M266.98145,354.56836a6.15,6.15,0,0,1,1.06152-3.78711,3.41606,3.41606,0,0,1,2.88086-1.41016,3.54863,3.54863,0,0,1,3.15039,1.63184v-5.72461h1.123v14.48731h-1.05664l-.04688-1.3584a3.64611,3.64611,0,0,1-3.18848,1.54687,3.40228,3.40228,0,0,1-2.84375-1.41894,6.18587,6.18587,0,0,1-1.08007-3.835Zm1.1416.19824a5.32787,5.32787,0,0,0,.78222,3.08008,2.53374,2.53374,0,0,0,2.207,1.127,3.0383,3.0383,0,0,0,2.96192-1.83984v-4.791a3.01453,3.01453,0,0,0-2.94238-1.99023,2.56176,2.56176,0,0,0-2.2168,1.11719A5.68843,5.68843,0,0,0,268.12305,354.7666Z" transform="translate(-82.58801 -30.30306)"/><polygon class="cls-3" points="201.5 142 201.5 122 181.5 122 181.5 102 161.5 102 161.5 82 101.5 82 101.5 102 81.5 102 81.5 122 61.5 122 61.5 142 41.5 142 41.5 202 61.5 202 61.5 222 81.5 222 81.5 242 101.5 242 101.5 262 121.5 262 141.5 262 161.5 262 161.5 242 181.5 242 181.5 222 201.5 222 201.5 202 221.5 202 221.5 142 201.5 142"/><rect class="cls-4" x="185.08801" y="151.30306" width="20" height="20" transform="translate(307.58801 292.30306) rotate(-180)"/><rect class="cls-4" x="165.08801" y="171.30306" width="20" height="20" transform="translate(267.58801 332.30306) rotate(-180)"/><path class="cls-1" d="M158.04535,189.92321H163.275v26.14913h-5.22961Zm31.37985-5.23072v5.23072H163.275v-5.23072ZM163.275,221.30306v-5.23072H189.4252v5.23072Zm31.37985-31.37985v20.91953H168.50567V195.15281H184.1956v10.46032h5.2296V189.92321Zm-15.68993,10.45921h-5.2296v5.23071h5.2296Z" transform="translate(-82.58801 -30.30306)"/><path class="cls-1" d="M210.34585,221.30306V184.69249h20.91953v5.23072H220.80506v26.14913h10.46032v5.23072Z" transform="translate(-82.58801 -30.30306)"/><path class="cls-1" d="M246.95419,221.30306v-5.23072h10.46032V189.92321H246.95419v-5.23072h20.92064v36.61057Z" transform="translate(-82.58801 -30.30306)"/></svg>