<svg id="Layer_1" data-name="Layer 1" xmlns="http://www.w3.org/2000/svg" viewBox="0 0 263 364"><defs><style>.cls-1,.cls-4{fill:#fff;}.cls-2{fill:#494949;}.cls-3{fill:#e04514;}.cls-4{opacity:0.2;}</style></defs><title>w-js</title><rect class="cls-1" x="10" y="9.61035" width="243.31738" height="344.4502"/><rect class="cls-2" x="10" width="243.31738" height="10"/><rect class="cls-2" x="10" y="354" width="243.31738" height="10"/><rect class="cls-2" x="253" y="10.05119" width="10" height="344.00935"/><rect class="cls-2" y="10.05119" width="10" height="344.00935"/><polygon class="cls-3" points="201.5 142 201.5 122 181.5 122 181.5 102 161.5 102 161.5 82 101.5 82 101.5 102 81.5 102 81.5 122 61.5 122 61.5 142 41.5 142 41.5 202 61.5 202 61.5 222 81.5 222 81.5 242 101.5 242 101.5 262 121.5 262 141.5 262 161.5 262 161.5 242 181.5 242 181.5 222 201.5 222 201.5 202 221.5 202 221.5 142 201.5 142"/><path class="cls-1" d="M594.00416,520.47632v-23.743H582.13267V490.797h11.87149v-5.93511h5.9351v-5.93638h17.80788v5.93638H605.87565V490.797h11.87149v5.93638H605.87565v23.743Z" transform="translate(-508.58801 -330.30306)"/><path class="cls-1" d="M644.46342,523.09539v-5.93511h-5.9351V511.2239h-5.93638V493.416h5.93638v-5.93511h5.9351v-5.93638h11.87277v5.93638h-5.93638V493.416h-5.93639V511.2239h5.93639v5.93638h5.93638v5.93511Z" transform="translate(-508.58801 -330.30306)"/><path class="cls-1" d="M674.14407,523.09539v-5.93511h5.9351V511.2239h5.93639V493.416h-5.93639v-5.93511h-5.9351v-5.93638h11.87149v5.93638h5.9351V493.416h5.93639V511.2239h-5.93639v5.93638h-5.9351v5.93511Z" transform="translate(-508.58801 -330.30306)"/><rect class="cls-4" x="611.08801" y="452.30306" width="20" height="20" transform="translate(733.58801 594.30306) rotate(-180)"/><rect class="cls-4" x="591.08801" y="472.30306" width="20" height="20" transform="translate(693.58801 634.30306) rotate(-180)"/><path d="M552.33789,377.97949v-2.25h-2.25v-2.25h4.5v2.25h6.75v-13.5h4.5v13.5h-2.25v2.25Z" transform="translate(-508.58801 -330.30306)"/><path d="M568.08789,377.97949v-11.25h2.25v-2.25h2.25v-2.25h6.75v2.25h2.25v2.25h2.25v11.25h-4.5v-4.5h-6.75v4.5Zm4.5-6.75h6.75v-4.5h-2.25v-2.25h-2.25v2.25h-2.25Z" transform="translate(-508.58801 -330.30306)"/><path d="M592.83789,377.97949v-2.25h-2.25v-2.25h-2.25v-2.25h-2.25v-9h4.5v6.75h2.25v2.25h2.25v-2.25h2.25v-6.75h4.5v9h-2.25v2.25h-2.25v2.25h-2.25v2.25Z" transform="translate(-508.58801 -330.30306)"/><path d="M604.08789,377.97949v-11.25h2.25v-2.25h2.25v-2.25h6.75v2.25h2.25v2.25h2.25v11.25h-4.5v-4.5h-6.75v4.5Zm4.5-6.75h6.75v-4.5h-2.25v-2.25h-2.25v2.25h-2.25Z" transform="translate(-508.58801 -330.30306)"/><path d="M624.33789,377.97949v-2.25h-2.25v-2.25h4.5v2.25h6.75v-4.5h-9v-2.25h-2.25v-4.5h2.25v-2.25h11.25v2.25h2.25v2.25h-4.5v-2.25h-6.75v4.5h9v2.25h2.25v4.5h-2.25v2.25Z" transform="translate(-508.58801 -330.30306)"/><path d="M644.58789,377.97949v-2.25h-2.25v-2.25h-2.25v-6.75h2.25v-2.25h2.25v-2.25h9v2.25h2.25v2.25h-4.5v-2.25h-4.5v2.25h-2.25v6.75h2.25v2.25h4.5v-2.25h4.5v2.25h-2.25v2.25Z" transform="translate(-508.58801 -330.30306)"/><path d="M658.08789,377.97949v-15.75h13.5v2.25h2.25v6.75h-4.5v2.25h2.25v2.25h2.25v2.25h-6.75v-2.25h-2.25v-2.25h-2.25v4.5Zm4.5-6.75h4.5v-2.25h2.25v-4.5h-6.75Z" transform="translate(-508.58801 -330.30306)"/><path d="M678.33789,377.97949v-2.25h4.5v-11.25h-4.5v-2.25h13.5v2.25h-4.5v11.25h4.5v2.25Z" transform="translate(-508.58801 -330.30306)"/><path d="M694.08789,377.97949v-15.75h13.5v2.25h2.25v6.75h-2.25v2.25h-9v4.5Zm4.5-6.75h6.75v-6.75h-6.75Z" transform="translate(-508.58801 -330.30306)"/><path d="M718.83789,377.97949v-13.5h-4.5v-2.25h13.5v2.25h-4.5v13.5Z" transform="translate(-508.58801 -330.30306)"/><path d="M575.89063,623.834h-4.707v12.752h-1.16015V623.834h-4.69727v-.98144h10.56446Z" transform="translate(-508.58801 -330.30306)"/><path d="M578.96484,628.10645a3.99871,3.99871,0,0,1,1.42383-1.415,3.73777,3.73777,0,0,1,1.89649-.5,3.0605,3.0605,0,0,1,2.44238.9248,4.16941,4.16941,0,0,1,.81152,2.77344v6.69629H584.417v-6.70606a3.12247,3.12247,0,0,0-.58008-2.03711,2.27438,2.27438,0,0,0-1.82519-.66992,2.85615,2.85615,0,0,0-1.85352.65528,3.8388,3.8388,0,0,0-1.19336,1.76855v6.98926h-1.12207V622.09863h1.12207Z" transform="translate(-508.58801 -330.30306)"/><path d="M592.39648,636.77441a4.42885,4.42885,0,0,1-2.35351-.6416,4.36594,4.36594,0,0,1-1.63672-1.78711,5.5725,5.5725,0,0,1-.585-2.57031v-.40527a5.9984,5.9984,0,0,1,.57129-2.65039,4.53494,4.53494,0,0,1,1.58887-1.85352,3.92358,3.92358,0,0,1,2.207-.6748,3.68349,3.68349,0,0,1,2.94726,1.26953,5.14359,5.14359,0,0,1,1.08985,3.46582v.63183h-7.28125v.2168a4.27167,4.27167,0,0,0,.99511,2.8916,3.16707,3.16707,0,0,0,2.50391,1.15528,3.68192,3.68192,0,0,0,1.59863-.33008,3.54947,3.54947,0,0,0,1.25879-1.05664l.708.53711A4.11772,4.11772,0,0,1,592.39648,636.77441Zm-.208-9.62011a2.81848,2.81848,0,0,0-2.14551.93359,4.31209,4.31209,0,0,0-1.06152,2.50879h6.12207v-.12305a3.74949,3.74949,0,0,0-.83985-2.3955A2.60112,2.60112,0,0,0,592.18848,627.1543Z" transform="translate(-508.58801 -330.30306)"/><path d="M604.14844,626.38086l.03808,1.66016a3.7694,3.7694,0,0,1,1.415-1.38672,3.87306,3.87306,0,0,1,1.88672-.46289,2.86413,2.86413,0,0,1,3.06543,1.98144,3.82192,3.82192,0,0,1,1.46192-1.4668,4.04555,4.04555,0,0,1,2.01757-.51464q3.28272,0,3.34864,3.585v6.80957H616.25v-6.72461a3.04092,3.04092,0,0,0-.58887-2.02832,2.4,2.4,0,0,0-1.8916-.66016,3.01174,3.01174,0,0,0-2.05664.78711,2.78675,2.78675,0,0,0-.93359,1.873v6.75293h-1.13184v-6.80957a2.79465,2.79465,0,0,0-.61719-1.957,2.46148,2.46148,0,0,0-1.873-.64649,2.84683,2.84683,0,0,0-1.8291.6084,3.56409,3.56409,0,0,0-1.13184,1.80566v6.999h-1.13184V626.38086Z" transform="translate(-508.58801 -330.30306)"/><path d="M619.61719,631.332a6.00141,6.00141,0,0,1,.57129-2.65039,4.28806,4.28806,0,0,1,3.97558-2.49023,4.19766,4.19766,0,0,1,3.30078,1.42968,5.50439,5.50439,0,0,1,1.26368,3.78711v.23535a6.06707,6.06707,0,0,1-.57032,2.665,4.25914,4.25914,0,0,1-1.6084,1.82422,4.40652,4.40652,0,0,1-2.36718.6416,4.20307,4.20307,0,0,1-3.29688-1.42871,5.49428,5.49428,0,0,1-1.26855-3.78711Zm1.13183.31152a4.63007,4.63007,0,0,0,.94825,3.00391,3.206,3.206,0,0,0,4.96093,0,4.78256,4.78256,0,0,0,.94825-3.09863v-.2168a5.1929,5.1929,0,0,0-.4336-2.14062,3.49873,3.49873,0,0,0-1.2168-1.50489,3.11509,3.11509,0,0,0-1.792-.53222,3.01479,3.01479,0,0,0-2.46191,1.18359,4.7861,4.7861,0,0,0-.95313,3.09863Z" transform="translate(-508.58801 -330.30306)"/><path d="M637.16992,633.99219a1.60759,1.60759,0,0,0-.67383-1.34864,5.193,5.193,0,0,0-2.0332-.79687,9.21472,9.21472,0,0,1-2.10742-.66016,2.81486,2.81486,0,0,1-1.11328-.91015,2.27167,2.27167,0,0,1-.36328-1.30176,2.4298,2.4298,0,0,1,1.00976-1.99512,4.07415,4.07415,0,0,1,2.584-.78808,4.19886,4.19886,0,0,1,2.74023.84472,2.70843,2.70843,0,0,1,1.03223,2.20215h-1.13184a1.82923,1.82923,0,0,0-.749-1.49023,3.38647,3.38647,0,0,0-3.67871-.09864,1.52613,1.52613,0,0,0-.67481,1.28711,1.391,1.391,0,0,0,.56153,1.1836,5.92351,5.92351,0,0,0,2.04687.76855,9.66687,9.66687,0,0,1,2.22559.74512,2.87788,2.87788,0,0,1,1.09863.95312,2.61943,2.61943,0,0,1-.68359,3.41407,4.45061,4.45061,0,0,1-2.72071.77343,4.56937,4.56937,0,0,1-2.8916-.86328,2.65712,2.65712,0,0,1-1.1084-2.18261h1.13282a1.95873,1.95873,0,0,0,.834,1.542,3.41875,3.41875,0,0,0,2.0332.55176,3.20364,3.20364,0,0,0,1.90528-.51954A1.55687,1.55687,0,0,0,637.16992,633.99219Z" transform="translate(-508.58801 -330.30306)"/><path d="M642.59375,623.76758v2.61328H644.707v.92383h-2.11328v6.80859a2.12985,2.12985,0,0,0,.30664,1.26465,1.18767,1.18767,0,0,0,1.02344.416,6.948,6.948,0,0,0,.915-.09473l.04687.916a3.67572,3.67572,0,0,1-1.207.15918,2.01466,2.01466,0,0,1-1.68848-.67382,3.173,3.173,0,0,1-.52832-1.98536v-6.81054H639.585v-.92383h1.87695v-2.61328Z" transform="translate(-508.58801 -330.30306)"/><path d="M652.55371,636.58594v-9.28125h-1.68848v-.92383h1.68848v-1.23633a3.36288,3.36288,0,0,1,.79688-2.40527,2.91873,2.91873,0,0,1,2.22168-.83887,4.32947,4.32947,0,0,1,1.19824.15918l-.085.93457a4.41762,4.41762,0,0,0-1.02832-.11328,1.844,1.844,0,0,0-1.45215.582,2.39273,2.39273,0,0,0-.51953,1.65039v1.26758h2.43359v.92383h-2.43359v9.28125Z" transform="translate(-508.58801 -330.30306)"/><path d="M664.5791,636.58594a5.32,5.32,0,0,1-.2168-1.42383,3.92244,3.92244,0,0,1-1.51367,1.19238,4.63084,4.63084,0,0,1-1.94726.41992,3.42081,3.42081,0,0,1-2.38184-.82031,2.67157,2.67157,0,0,1-.91015-2.07519,2.73248,2.73248,0,0,1,1.24023-2.3584,5.9642,5.9642,0,0,1,3.457-.86719h2.04688v-1.16016a2.239,2.239,0,0,0-.67481-1.72168,2.78863,2.78863,0,0,0-1.9668-.62695,3.077,3.077,0,0,0-1.95214.60352,1.79348,1.79348,0,0,0-.77344,1.45215l-1.13184-.00879a2.62449,2.62449,0,0,1,1.13184-2.1084,4.36079,4.36079,0,0,1,2.78222-.8916,3.97492,3.97492,0,0,1,2.69336.85449,3.062,3.062,0,0,1,1.01368,2.38086v4.8291a5.97864,5.97864,0,0,0,.31152,2.2168v.11328Zm-3.5459-.81153a3.78578,3.78578,0,0,0,2.02344-.54687,3.21792,3.21792,0,0,0,1.29688-1.46191v-2.24512H662.335a5.06033,5.06033,0,0,0-2.6416.61816,1.85471,1.85471,0,0,0-.95215,1.64551,1.82408,1.82408,0,0,0,.63672,1.4248A2.39757,2.39757,0,0,0,661.0332,635.77441Z" transform="translate(-508.58801 -330.30306)"/><path d="M669.51172,626.38086l.03808,1.66016a3.7694,3.7694,0,0,1,1.415-1.38672,3.87306,3.87306,0,0,1,1.88672-.46289,2.86413,2.86413,0,0,1,3.06543,1.98144,3.82192,3.82192,0,0,1,1.46192-1.4668,4.04555,4.04555,0,0,1,2.01757-.51464q3.28272,0,3.34864,3.585v6.80957h-1.13184v-6.72461a3.04092,3.04092,0,0,0-.58887-2.02832,2.4,2.4,0,0,0-1.8916-.66016,3.01174,3.01174,0,0,0-2.05664.78711,2.78675,2.78675,0,0,0-.93359,1.873v6.75293h-1.13184v-6.80957a2.79465,2.79465,0,0,0-.61719-1.957,2.46148,2.46148,0,0,0-1.873-.64649,2.84685,2.84685,0,0,0-1.8291.6084,3.56409,3.56409,0,0,0-1.13184,1.80566v6.999h-1.13184V626.38086Z" transform="translate(-508.58801 -330.30306)"/><path d="M684.98047,631.332a6.00141,6.00141,0,0,1,.57129-2.65039,4.28806,4.28806,0,0,1,3.97558-2.49023,4.19768,4.19768,0,0,1,3.30079,1.42968,5.50443,5.50443,0,0,1,1.26367,3.78711v.23535a6.06707,6.06707,0,0,1-.57032,2.665,4.25912,4.25912,0,0,1-1.60839,1.82422,4.40658,4.40658,0,0,1-2.36719.6416,4.20307,4.20307,0,0,1-3.29688-1.42871,5.49428,5.49428,0,0,1-1.26855-3.78711Zm1.13183.31152a4.63007,4.63007,0,0,0,.94825,3.00391,3.206,3.206,0,0,0,4.96093,0,4.78256,4.78256,0,0,0,.94825-3.09863v-.2168a5.19274,5.19274,0,0,0-.4336-2.14062,3.49878,3.49878,0,0,0-1.21679-1.50489,3.1151,3.1151,0,0,0-1.792-.53222,3.0148,3.0148,0,0,0-2.46191,1.18359,4.7861,4.7861,0,0,0-.95313,3.09863Z" transform="translate(-508.58801 -330.30306)"/><path d="M702.98633,635.294a3.66713,3.66713,0,0,1-3.25391,1.48046,3.15635,3.15635,0,0,1-2.48047-.94726,4.15237,4.15237,0,0,1-.86816-2.80664v-6.63965h1.12207v6.49805q0,2.915,2.3584,2.915a2.89126,2.89126,0,0,0,3.10351-2.02832v-7.38477h1.13184v10.20508h-1.09473Z" transform="translate(-508.58801 -330.30306)"/><path d="M713.14453,633.99219a1.60759,1.60759,0,0,0-.67383-1.34864,5.193,5.193,0,0,0-2.0332-.79687,9.21472,9.21472,0,0,1-2.10742-.66016,2.81479,2.81479,0,0,1-1.11328-.91015,2.27167,2.27167,0,0,1-.36328-1.30176,2.4298,2.4298,0,0,1,1.00976-1.99512,4.07415,4.07415,0,0,1,2.584-.78808,4.19886,4.19886,0,0,1,2.74023.84472,2.70843,2.70843,0,0,1,1.03223,2.20215h-1.13184a1.82923,1.82923,0,0,0-.749-1.49023,3.38647,3.38647,0,0,0-3.67871-.09864,1.52613,1.52613,0,0,0-.67481,1.28711,1.391,1.391,0,0,0,.56153,1.1836,5.92351,5.92351,0,0,0,2.04687.76855,9.667,9.667,0,0,1,2.22559.74512,2.87788,2.87788,0,0,1,1.09863.95312,2.61943,2.61943,0,0,1-.68359,3.41407,4.45061,4.45061,0,0,1-2.72071.77343,4.56937,4.56937,0,0,1-2.8916-.86328,2.65712,2.65712,0,0,1-1.1084-2.18261h1.13281a1.95877,1.95877,0,0,0,.834,1.542,3.41875,3.41875,0,0,0,2.0332.55176,3.20364,3.20364,0,0,0,1.90528-.51954A1.55687,1.55687,0,0,0,713.14453,633.99219Z" transform="translate(-508.58801 -330.30306)"/><path d="M554.09668,654.7666a6.14734,6.14734,0,0,1-1.05664,3.78711,3.37345,3.37345,0,0,1-2.83887,1.40039,3.6688,3.6688,0,0,1-3.22558-1.584l-.04688,1.39551h-1.05664V645.27832h1.12207v5.7627a3.54794,3.54794,0,0,1,3.18848-1.66993,3.40563,3.40563,0,0,1,2.8623,1.38184,6.222,6.222,0,0,1,1.05176,3.84375Zm-1.13184-.19824a5.31889,5.31889,0,0,0-.78222-3.11719,2.55377,2.55377,0,0,0-2.208-1.09863,3.105,3.105,0,0,0-1.83887.5332,3.23546,3.23546,0,0,0-1.1416,1.56055v4.60254a3.0254,3.0254,0,0,0,3,1.9248,2.535,2.535,0,0,0,2.18359-1.10351A5.68975,5.68975,0,0,0,552.96484,654.56836Z" transform="translate(-508.58801 -330.30306)"/><path d="M561.30273,650.52246a4.22736,4.22736,0,0,0-.76367-.06641,2.75381,2.75381,0,0,0-1.78808.58985,3.23087,3.23087,0,0,0-1.042,1.71191v7.00782h-1.12207V649.56055h1.10352l.01855,1.62207a3.003,3.003,0,0,1,2.877-1.81153,1.851,1.851,0,0,1,.74511.12305Z" transform="translate(-508.58801 -330.30306)"/><path d="M562.27441,654.51172a6.00141,6.00141,0,0,1,.57129-2.65039,4.28807,4.28807,0,0,1,3.97559-2.49024,4.19767,4.19767,0,0,1,3.30078,1.42969,5.50443,5.50443,0,0,1,1.26367,3.78711v.23535a6.0672,6.0672,0,0,1-.57031,2.665,4.25919,4.25919,0,0,1-1.6084,1.82422,4.40665,4.40665,0,0,1-2.36719.6416,4.203,4.203,0,0,1-3.29687-1.42871,5.49428,5.49428,0,0,1-1.26856-3.78711Zm1.13184.31152a4.63012,4.63012,0,0,0,.94824,3.00391,3.206,3.206,0,0,0,4.96094,0,4.78256,4.78256,0,0,0,.94824-3.09863v-.2168a5.193,5.193,0,0,0-.43359-2.14063,3.4987,3.4987,0,0,0-1.2168-1.50488,3.1151,3.1151,0,0,0-1.792-.53223,3.01479,3.01479,0,0,0-2.46191,1.1836,4.786,4.786,0,0,0-.95313,3.09863Z" transform="translate(-508.58801 -330.30306)"/><path d="M576.1582,657.417l.16993.877.22656-.92383,2.45215-7.80957h.96191l2.42383,7.74316.26465,1.0752.21679-.99024,2.09375-7.82812h1.16993L583.166,659.76563h-.96192l-2.62207-8.09278-.12207-.55664-.12305.56641-2.57519,8.083h-.96192l-2.96191-10.20508h1.16016Z" transform="translate(-508.58801 -330.30306)"/><path d="M594.38965,657.17188a1.60758,1.60758,0,0,0-.67383-1.34864,5.19289,5.19289,0,0,0-2.0332-.79687,9.21505,9.21505,0,0,1-2.10742-.66016,2.81492,2.81492,0,0,1-1.11329-.91016,2.27169,2.27169,0,0,1-.36328-1.30175,2.42981,2.42981,0,0,1,1.00977-1.99512,4.07414,4.07414,0,0,1,2.584-.78809,4.19888,4.19888,0,0,1,2.74024.84473,2.70845,2.70845,0,0,1,1.03222,2.20215H594.333a1.82923,1.82923,0,0,0-.749-1.49024,3.38644,3.38644,0,0,0-3.67871-.09863,1.52614,1.52614,0,0,0-.6748,1.28711,1.391,1.391,0,0,0,.56152,1.18359,5.92334,5.92334,0,0,0,2.04688.76856,9.66627,9.66627,0,0,1,2.22558.74512,2.878,2.878,0,0,1,1.09864.95312,2.61944,2.61944,0,0,1-.6836,3.41406,4.4505,4.4505,0,0,1-2.7207.77344,4.56935,4.56935,0,0,1-2.8916-.86328,2.65713,2.65713,0,0,1-1.1084-2.18262h1.13281a1.95877,1.95877,0,0,0,.834,1.542,3.41882,3.41882,0,0,0,2.0332.55175,3.20358,3.20358,0,0,0,1.90527-.51953A1.55685,1.55685,0,0,0,594.38965,657.17188Z" transform="translate(-508.58801 -330.30306)"/><path d="M602.01172,659.9541a4.429,4.429,0,0,1-2.35352-.6416,4.366,4.366,0,0,1-1.63672-1.78711,5.57266,5.57266,0,0,1-.585-2.57031v-.40528a5.99846,5.99846,0,0,1,.57129-2.65039,4.53513,4.53513,0,0,1,1.58887-1.85351,3.92362,3.92362,0,0,1,2.207-.67481,3.68352,3.68352,0,0,1,2.94727,1.26954,5.14358,5.14358,0,0,1,1.08984,3.46582v.63183h-7.28125v.2168a4.27169,4.27169,0,0,0,.99512,2.8916,3.167,3.167,0,0,0,2.5039,1.15527,3.682,3.682,0,0,0,1.59864-.33007,3.54957,3.54957,0,0,0,1.25879-1.05665l.708.53711A4.11769,4.11769,0,0,1,602.01172,659.9541Zm-.208-9.62012a2.81852,2.81852,0,0,0-2.14551.9336,4.31212,4.31212,0,0,0-1.06152,2.50879h6.12207v-.12305a3.74952,3.74952,0,0,0-.83984-2.39551A2.60117,2.60117,0,0,0,601.80371,650.334Z" transform="translate(-508.58801 -330.30306)"/><path d="M612.75488,650.52246a4.22736,4.22736,0,0,0-.76367-.06641,2.75381,2.75381,0,0,0-1.78808.58985,3.23087,3.23087,0,0,0-1.042,1.71191v7.00782h-1.12207V649.56055h1.10352l.01855,1.62207a3.003,3.003,0,0,1,2.877-1.81153,1.851,1.851,0,0,1,.74511.12305Z" transform="translate(-508.58801 -330.30306)"/><path d="M618.0459,654.18164h-4.51856v-.95215h4.51856Z" transform="translate(-508.58801 -330.30306)"/><path d="M626.17578,657.17188a1.60758,1.60758,0,0,0-.67383-1.34864,5.19289,5.19289,0,0,0-2.0332-.79687,9.21522,9.21522,0,0,1-2.10742-.66016,2.81481,2.81481,0,0,1-1.11328-.91016,2.27161,2.27161,0,0,1-.36328-1.30175,2.4298,2.4298,0,0,1,1.00976-1.99512,4.07415,4.07415,0,0,1,2.584-.78809,4.19887,4.19887,0,0,1,2.74023.84473A2.70843,2.70843,0,0,1,627.251,652.418h-1.13184a1.82925,1.82925,0,0,0-.749-1.49024,3.38644,3.38644,0,0,0-3.67871-.09863,1.52613,1.52613,0,0,0-.67481,1.28711,1.39093,1.39093,0,0,0,.56153,1.18359,5.92327,5.92327,0,0,0,2.04687.76856,9.66656,9.66656,0,0,1,2.22559.74512,2.87788,2.87788,0,0,1,1.09863.95312,2.61942,2.61942,0,0,1-.68359,3.41406,4.45055,4.45055,0,0,1-2.72071.77344,4.56937,4.56937,0,0,1-2.8916-.86328,2.65713,2.65713,0,0,1-1.1084-2.18262h1.13281a1.95877,1.95877,0,0,0,.834,1.542,3.41882,3.41882,0,0,0,2.0332.55175,3.20364,3.20364,0,0,0,1.90528-.51953A1.55687,1.55687,0,0,0,626.17578,657.17188Z" transform="translate(-508.58801 -330.30306)"/><path d="M629.7793,646.6123a.75786.75786,0,0,1,.208-.53906.73853.73853,0,0,1,.56543-.21972.741.741,0,0,1,.78321.75878.73043.73043,0,0,1-.21289.53418.7589.7589,0,0,1-.57032.21582.72677.72677,0,0,1-.77343-.75Zm1.33008,13.15333h-1.13184V649.56055h1.13184Z" transform="translate(-508.58801 -330.30306)"/><path d="M633.72168,654.56836a6.1501,6.1501,0,0,1,1.06152-3.78711,3.41606,3.41606,0,0,1,2.88086-1.41016,3.54861,3.54861,0,0,1,3.15039,1.63184v-5.72461h1.12305v14.48731h-1.05664l-.04688-1.3584a3.6461,3.6461,0,0,1-3.18847,1.54687,3.40227,3.40227,0,0,1-2.84375-1.41894,6.18581,6.18581,0,0,1-1.08008-3.835Zm1.1416.19824a5.3278,5.3278,0,0,0,.78223,3.08008,2.53373,2.53373,0,0,0,2.207,1.12695,3.03829,3.03829,0,0,0,2.96191-1.83984v-4.791a3.01453,3.01453,0,0,0-2.94238-1.99023,2.56177,2.56177,0,0,0-2.2168,1.11719A5.68843,5.68843,0,0,0,634.86328,654.7666Z" transform="translate(-508.58801 -330.30306)"/><path d="M648.86035,659.9541a4.42894,4.42894,0,0,1-2.35351-.6416,4.36593,4.36593,0,0,1-1.63672-1.78711,5.57253,5.57253,0,0,1-.585-2.57031v-.40528a5.99846,5.99846,0,0,1,.57129-2.65039,4.535,4.535,0,0,1,1.58886-1.85351,3.92362,3.92362,0,0,1,2.207-.67481,3.68352,3.68352,0,0,1,2.94727,1.26954,5.14358,5.14358,0,0,1,1.08984,3.46582v.63183H645.4082v.2168a4.27169,4.27169,0,0,0,.99512,2.8916,3.16706,3.16706,0,0,0,2.50391,1.15527,3.682,3.682,0,0,0,1.59863-.33007,3.54948,3.54948,0,0,0,1.25879-1.05665l.708.53711A4.1177,4.1177,0,0,1,648.86035,659.9541Zm-.208-9.62012a2.81849,2.81849,0,0,0-2.1455.9336,4.31207,4.31207,0,0,0-1.06153,2.50879h6.12207v-.12305a3.74946,3.74946,0,0,0-.83984-2.39551A2.60117,2.60117,0,0,0,648.65234,650.334Z" transform="translate(-508.58801 -330.30306)"/><path d="M660.84863,659.76563H659.7168V645.27832h1.13183Z" transform="translate(-508.58801 -330.30306)"/><path d="M670.35547,659.76563a5.32013,5.32013,0,0,1-.2168-1.42383,3.92261,3.92261,0,0,1-1.51367,1.19238,4.631,4.631,0,0,1-1.94727.41992,3.42083,3.42083,0,0,1-2.38183-.82031,2.6716,2.6716,0,0,1-.91016-2.0752,2.73249,2.73249,0,0,1,1.24024-2.35839,5.9642,5.9642,0,0,1,3.457-.86719h2.04687v-1.16016a2.239,2.239,0,0,0-.6748-1.72168,2.78858,2.78858,0,0,0-1.9668-.627,3.07715,3.07715,0,0,0-1.95215.60351,1.79351,1.79351,0,0,0-.77343,1.45215l-1.13184-.00879a2.62446,2.62446,0,0,1,1.13184-2.10839,4.3608,4.3608,0,0,1,2.78222-.89161,3.975,3.975,0,0,1,2.69336.8545,3.062,3.062,0,0,1,1.01367,2.38086v4.8291a5.97851,5.97851,0,0,0,.31153,2.21679v.11329Zm-3.5459-.81153a3.7858,3.7858,0,0,0,2.02344-.54687,3.21787,3.21787,0,0,0,1.29687-1.46192V654.7002h-2.01855a5.06033,5.06033,0,0,0-2.6416.61816,1.8547,1.8547,0,0,0-.95215,1.64551,1.82406,1.82406,0,0,0,.63672,1.4248A2.39756,2.39756,0,0,0,666.80957,658.9541Z" transform="translate(-508.58801 -330.30306)"/><path d="M675.33594,649.56055l.03711,1.74414a4.05767,4.05767,0,0,1,1.43359-1.4375,3.71789,3.71789,0,0,1,1.89649-.4961,3.0605,3.0605,0,0,1,2.44238.92481,4.16944,4.16944,0,0,1,.81152,2.77344v6.69629H680.835v-6.70606a3.12247,3.12247,0,0,0-.58008-2.03711,2.27438,2.27438,0,0,0-1.82519-.66992,2.85619,2.85619,0,0,0-1.85352.65527,3.83883,3.83883,0,0,0-1.19336,1.76856v6.98926h-1.12207V649.56055Z" transform="translate(-508.58801 -330.30306)"/><path d="M684.419,654.56836a6.13847,6.13847,0,0,1,1.06152-3.7959,3.42351,3.42351,0,0,1,2.88086-1.40137,3.55179,3.55179,0,0,1,3.16992,1.66016l.05566-1.4707h1.05664v9.998a4.31757,4.31757,0,0,1-1.10351,3.1211,3.94662,3.94662,0,0,1-2.99024,1.15136,4.544,4.544,0,0,1-2.03222-.47656,3.94666,3.94666,0,0,1-1.52344-1.26855l.63184-.67871a3.577,3.577,0,0,0,2.84863,1.4707,2.89642,2.89642,0,0,0,2.207-.835,3.3265,3.3265,0,0,0,.82129-2.31543v-1.28223a3.64991,3.64991,0,0,1-3.16016,1.50879,3.40263,3.40263,0,0,1-2.84863-1.415,6.161,6.161,0,0,1-1.07519-3.81933Zm1.1416.19824a5.32787,5.32787,0,0,0,.78222,3.08008,2.53374,2.53374,0,0,0,2.207,1.12695,3.01841,3.01841,0,0,0,2.95313-1.86816v-4.74414a3.23169,3.23169,0,0,0-1.1416-1.49512,3.07689,3.07689,0,0,0-1.792-.51367,2.56176,2.56176,0,0,0-2.2168,1.11719A5.68843,5.68843,0,0,0,685.56055,654.7666Z" transform="translate(-508.58801 -330.30306)"/><path d="M702.15137,658.47363a3.66711,3.66711,0,0,1-3.25391,1.48047,3.15635,3.15635,0,0,1-2.48047-.94726,4.15241,4.15241,0,0,1-.86816-2.80664v-6.63965h1.12207v6.498q0,2.915,2.3584,2.915a2.89125,2.89125,0,0,0,3.10351-2.02832v-7.38476h1.13184v10.20508h-1.09473Z" transform="translate(-508.58801 -330.30306)"/><path d="M712.63867,659.76563a5.3202,5.3202,0,0,1-.21679-1.42383,3.92264,3.92264,0,0,1-1.51368,1.19238,4.631,4.631,0,0,1-1.94726.41992,3.42086,3.42086,0,0,1-2.38184-.82031,2.67159,2.67159,0,0,1-.91015-2.0752,2.73248,2.73248,0,0,1,1.24023-2.35839,5.9642,5.9642,0,0,1,3.457-.86719h2.04688v-1.16016a2.239,2.239,0,0,0-.67481-1.72168,2.78858,2.78858,0,0,0-1.9668-.627,3.0771,3.0771,0,0,0-1.95214.60351,1.7935,1.7935,0,0,0-.77344,1.45215l-1.13184-.00879a2.62449,2.62449,0,0,1,1.13184-2.10839,4.36081,4.36081,0,0,1,2.78223-.89161,3.97492,3.97492,0,0,1,2.69335.8545,3.062,3.062,0,0,1,1.01368,2.38086v4.8291a5.97855,5.97855,0,0,0,.31152,2.21679v.11329Zm-3.5459-.81153a3.78578,3.78578,0,0,0,2.02344-.54687,3.218,3.218,0,0,0,1.29688-1.46192V654.7002h-2.01856a5.06033,5.06033,0,0,0-2.6416.61816,1.8547,1.8547,0,0,0-.95215,1.64551,1.82409,1.82409,0,0,0,.63672,1.4248A2.39757,2.39757,0,0,0,709.09277,658.9541Z" transform="translate(-508.58801 -330.30306)"/><path d="M716.0918,654.56836a6.13847,6.13847,0,0,1,1.06152-3.7959,3.42351,3.42351,0,0,1,2.88086-1.40137,3.55179,3.55179,0,0,1,3.16992,1.66016l.05567-1.4707h1.05664v9.998a4.31757,4.31757,0,0,1-1.10352,3.1211,3.94661,3.94661,0,0,1-2.99023,1.15136,4.544,4.544,0,0,1-2.03223-.47656,3.94673,3.94673,0,0,1-1.52344-1.26855l.63184-.67871a3.577,3.577,0,0,0,2.84863,1.4707,2.89642,2.89642,0,0,0,2.207-.835,3.3265,3.3265,0,0,0,.82129-2.31543v-1.28223a3.6499,3.6499,0,0,1-3.16015,1.50879,3.40264,3.40264,0,0,1-2.84864-1.415,6.161,6.161,0,0,1-1.07519-3.81933Zm1.1416.19824a5.3278,5.3278,0,0,0,.78223,3.08008,2.53373,2.53373,0,0,0,2.207,1.12695,3.0184,3.0184,0,0,0,2.95312-1.86816v-4.74414a3.23169,3.23169,0,0,0-1.1416-1.49512,3.07689,3.07689,0,0,0-1.792-.51367,2.56176,2.56176,0,0,0-2.2168,1.11719A5.68843,5.68843,0,0,0,717.2334,654.7666Z" transform="translate(-508.58801 -330.30306)"/><path d="M731.21191,659.9541a4.42894,4.42894,0,0,1-2.35351-.6416,4.366,4.366,0,0,1-1.63672-1.78711,5.57253,5.57253,0,0,1-.585-2.57031v-.40528a5.99846,5.99846,0,0,1,.57129-2.65039,4.535,4.535,0,0,1,1.58887-1.85351,3.92359,3.92359,0,0,1,2.207-.67481,3.68349,3.68349,0,0,1,2.94726,1.26954,5.14359,5.14359,0,0,1,1.08985,3.46582v.63183h-7.28125v.2168a4.27168,4.27168,0,0,0,.99511,2.8916,3.16706,3.16706,0,0,0,2.50391,1.15527,3.682,3.682,0,0,0,1.59863-.33007,3.5494,3.5494,0,0,0,1.25879-1.05665l.708.53711A4.1177,4.1177,0,0,1,731.21191,659.9541Zm-.208-9.62012a2.81849,2.81849,0,0,0-2.14551.9336,4.31206,4.31206,0,0,0-1.06152,2.50879H733.919v-.12305a3.74952,3.74952,0,0,0-.83985-2.39551A2.60115,2.60115,0,0,0,731.00391,650.334Z" transform="translate(-508.58801 -330.30306)"/></svg>