<svg id="Layer_1" data-name="Layer 1" xmlns="http://www.w3.org/2000/svg" viewBox="0 0 263 364"><defs><style>.cls-1,.cls-4{fill:#fff;}.cls-2{fill:#494949;}.cls-3{fill:#c41c1c;}.cls-4{opacity:0.2;}</style></defs><title>w-php</title><rect class="cls-1" x="10" y="9.61035" width="243.31738" height="344.4502"/><rect class="cls-2" x="10" width="243.31738" height="10"/><rect class="cls-2" x="10" y="354" width="243.31738" height="10"/><rect class="cls-2" x="253" y="10.05119" width="10" height="344.00935"/><rect class="cls-2" y="10.05119" width="10" height="344.00935"/><path d="M163.03711,74.60449v-18.375h15.75v2.625h2.625v7.875h-2.625v2.625h-10.5v5.25Zm5.25-7.875h7.875v-7.875h-7.875Z" transform="translate(-63.0367 -24.30306)"/><path d="M184.03711,74.60449v-18.375h5.25v7.875h7.875v-7.875h5.25v18.375h-5.25v-7.875h-7.875v7.875Z" transform="translate(-63.0367 -24.30306)"/><path d="M205.03711,74.60449v-18.375h15.75v2.625h2.625v7.875h-2.625v2.625h-10.5v5.25Zm5.25-7.875h7.875v-7.875h-7.875Z" transform="translate(-63.0367 -24.30306)"/><path d="M124.65527,317.834h-4.707v12.752h-1.16015V317.834h-4.69727v-.98144h10.56445Z" transform="translate(-63.0367 -24.30306)"/><path d="M127.72949,322.10645a3.99871,3.99871,0,0,1,1.42383-1.415,3.73776,3.73776,0,0,1,1.89648-.5,3.06052,3.06052,0,0,1,2.44239.9248,4.16946,4.16946,0,0,1,.81152,2.77344v6.69629h-1.12207v-6.70606a3.12252,3.12252,0,0,0-.58008-2.03711,2.27439,2.27439,0,0,0-1.82519-.66992,2.85615,2.85615,0,0,0-1.85352.65528,3.83872,3.83872,0,0,0-1.19336,1.76855v6.98926h-1.12207V316.09863h1.12207Z" transform="translate(-63.0367 -24.30306)"/><path d="M141.16113,330.77441a4.42885,4.42885,0,0,1-2.35351-.6416,4.36594,4.36594,0,0,1-1.63672-1.78711,5.5725,5.5725,0,0,1-.585-2.57031v-.40527a5.9984,5.9984,0,0,1,.57129-2.65039,4.535,4.535,0,0,1,1.58886-1.85352,3.92361,3.92361,0,0,1,2.207-.6748,3.6835,3.6835,0,0,1,2.94726,1.26953,5.14358,5.14358,0,0,1,1.08984,3.46582v.63183H137.709v.2168a4.27167,4.27167,0,0,0,.99512,2.8916,3.16707,3.16707,0,0,0,2.50391,1.15528,3.682,3.682,0,0,0,1.59863-.33008,3.54955,3.54955,0,0,0,1.25879-1.05664l.708.53711A4.11772,4.11772,0,0,1,141.16113,330.77441Zm-.208-9.62011a2.81848,2.81848,0,0,0-2.14551.93359,4.31216,4.31216,0,0,0-1.06153,2.50879h6.12207v-.123a3.74943,3.74943,0,0,0-.83984-2.3955A2.60113,2.60113,0,0,0,140.95313,321.1543Z" transform="translate(-63.0367 -24.30306)"/><path d="M152.91309,320.38086l.03808,1.66016a3.76933,3.76933,0,0,1,1.415-1.38672,3.87306,3.87306,0,0,1,1.88672-.46289,2.86413,2.86413,0,0,1,3.06543,1.98144,3.822,3.822,0,0,1,1.46191-1.4668,4.04562,4.04562,0,0,1,2.01758-.51464q3.28272,0,3.34863,3.585v6.80957h-1.13183v-6.72461a3.04092,3.04092,0,0,0-.58887-2.02832,2.4,2.4,0,0,0-1.8916-.66016,3.01174,3.01174,0,0,0-2.05664.78711,2.78675,2.78675,0,0,0-.93359,1.873v6.75293h-1.13184v-6.80957a2.79465,2.79465,0,0,0-.61719-1.957,2.46148,2.46148,0,0,0-1.873-.64649,2.84686,2.84686,0,0,0-1.82911.6084,3.56408,3.56408,0,0,0-1.13183,1.80566v6.999H151.8291V320.38086Z" transform="translate(-63.0367 -24.30306)"/><path d="M168.38184,325.332a6.00141,6.00141,0,0,1,.57129-2.65039,4.28806,4.28806,0,0,1,3.97558-2.49023,4.19766,4.19766,0,0,1,3.30078,1.42968,5.50438,5.50438,0,0,1,1.26367,3.78711v.23535a6.0672,6.0672,0,0,1-.57031,2.665,4.25914,4.25914,0,0,1-1.6084,1.82422,4.40655,4.40655,0,0,1-2.36718.6416,4.20306,4.20306,0,0,1-3.29688-1.42871,5.49428,5.49428,0,0,1-1.26855-3.78711Zm1.13183.31152a4.63012,4.63012,0,0,0,.94824,3.00391,3.206,3.206,0,0,0,4.96094,0,4.78256,4.78256,0,0,0,.94824-3.09863v-.2168a5.1929,5.1929,0,0,0-.43359-2.14062,3.49873,3.49873,0,0,0-1.2168-1.50489,3.11509,3.11509,0,0,0-1.792-.53222,3.01479,3.01479,0,0,0-2.46191,1.18359,4.786,4.786,0,0,0-.95313,3.09863Z" transform="translate(-63.0367 -24.30306)"/><path d="M185.93457,327.99219a1.60759,1.60759,0,0,0-.67383-1.34864,5.193,5.193,0,0,0-2.0332-.79687,9.21472,9.21472,0,0,1-2.10742-.66016,2.81479,2.81479,0,0,1-1.11328-.91015,2.27167,2.27167,0,0,1-.36329-1.30176,2.42981,2.42981,0,0,1,1.00977-1.99512,4.07414,4.07414,0,0,1,2.584-.78808,4.19887,4.19887,0,0,1,2.74024.84472,2.70843,2.70843,0,0,1,1.03223,2.20215h-1.13184a1.82923,1.82923,0,0,0-.749-1.49023,3.38647,3.38647,0,0,0-3.67871-.09864,1.52613,1.52613,0,0,0-.67481,1.28711,1.391,1.391,0,0,0,.56152,1.1836,5.92358,5.92358,0,0,0,2.04688.76855,9.667,9.667,0,0,1,2.22559.74512,2.87788,2.87788,0,0,1,1.09863.95312,2.61942,2.61942,0,0,1-.6836,3.41407,4.45056,4.45056,0,0,1-2.7207.77343,4.56935,4.56935,0,0,1-2.8916-.86328,2.65712,2.65712,0,0,1-1.1084-2.18261h1.13281a1.95877,1.95877,0,0,0,.834,1.542,3.41875,3.41875,0,0,0,2.0332.55176,3.20358,3.20358,0,0,0,1.90527-.51954A1.55685,1.55685,0,0,0,185.93457,327.99219Z" transform="translate(-63.0367 -24.30306)"/><path d="M191.3584,317.76758v2.61328h2.11328v.92383H191.3584v6.80859a2.12985,2.12985,0,0,0,.30664,1.26465,1.18767,1.18767,0,0,0,1.02344.416,6.948,6.948,0,0,0,.915-.09473l.04687.916a3.67572,3.67572,0,0,1-1.207.15918,2.01466,2.01466,0,0,1-1.68848-.67382,3.17292,3.17292,0,0,1-.52832-1.98536v-6.81054h-1.87695v-.92383h1.87695v-2.61328Z" transform="translate(-63.0367 -24.30306)"/><path d="M204.28027,329.82227a2.97862,2.97862,0,0,0,1.97559-.665,2.33817,2.33817,0,0,0,.86328-1.72168h1.085a3.18958,3.18958,0,0,1-.585,1.70215,3.664,3.664,0,0,1-1.42871,1.20312,4.31236,4.31236,0,0,1-1.91016.43359,3.94379,3.94379,0,0,1-3.18359-1.3955,5.6478,5.6478,0,0,1-1.17383-3.75391v-.33984a6.37267,6.37267,0,0,1,.52832-2.66895,4.06307,4.06307,0,0,1,1.51367-1.792,4.17441,4.17441,0,0,1,2.30567-.63281,3.93928,3.93928,0,0,1,2.76855,1,3.64783,3.64783,0,0,1,1.165,2.63183h-1.085a2.731,2.731,0,0,0-2.84863-2.66894,2.81335,2.81335,0,0,0-2.37207,1.10351,4.99348,4.99348,0,0,0-.84375,3.09375v.33008a4.88314,4.88314,0,0,0,.84375,3.0459A2.83454,2.83454,0,0,0,204.28027,329.82227Z" transform="translate(-63.0367 -24.30306)"/><path d="M209.835,325.332a6.00141,6.00141,0,0,1,.57129-2.65039,4.28806,4.28806,0,0,1,3.97559-2.49023,4.19768,4.19768,0,0,1,3.30078,1.42968,5.50443,5.50443,0,0,1,1.26367,3.78711v.23535a6.0672,6.0672,0,0,1-.57031,2.665,4.2592,4.2592,0,0,1-1.6084,1.82422,4.40658,4.40658,0,0,1-2.36719.6416,4.203,4.203,0,0,1-3.29687-1.42871,5.49424,5.49424,0,0,1-1.26856-3.78711Zm1.13184.31152a4.63006,4.63006,0,0,0,.94824,3.00391,3.206,3.206,0,0,0,4.96094,0,4.78261,4.78261,0,0,0,.94824-3.09863v-.2168a5.1929,5.1929,0,0,0-.43359-2.14062,3.4988,3.4988,0,0,0-1.2168-1.50489,3.11509,3.11509,0,0,0-1.792-.53222,3.01481,3.01481,0,0,0-2.46192,1.18359,4.7861,4.7861,0,0,0-.95312,3.09863Z" transform="translate(-63.0367 -24.30306)"/><path d="M222.30371,320.38086l.03809,1.66016a3.76926,3.76926,0,0,1,1.415-1.38672,3.873,3.873,0,0,1,1.88671-.46289,2.86413,2.86413,0,0,1,3.06543,1.98144,3.822,3.822,0,0,1,1.46192-1.4668,4.04559,4.04559,0,0,1,2.01758-.51464q3.2827,0,3.34863,3.585v6.80957h-1.13184v-6.72461a3.04092,3.04092,0,0,0-.58886-2.02832,2.4,2.4,0,0,0-1.89161-.66016,3.01174,3.01174,0,0,0-2.05664.78711,2.78679,2.78679,0,0,0-.93359,1.873v6.75293h-1.13184v-6.80957a2.79465,2.79465,0,0,0-.61718-1.957,2.4615,2.4615,0,0,0-1.87305-.64649,2.84685,2.84685,0,0,0-1.8291.6084,3.56409,3.56409,0,0,0-1.13184,1.80566v6.999h-1.13183V320.38086Z" transform="translate(-63.0367 -24.30306)"/><path d="M239.42285,320.38086l.03809,1.66016a3.76926,3.76926,0,0,1,1.415-1.38672,3.873,3.873,0,0,1,1.88672-.46289,2.86414,2.86414,0,0,1,3.06543,1.98144,3.82189,3.82189,0,0,1,1.46191-1.4668,4.04559,4.04559,0,0,1,2.01758-.51464q3.28271,0,3.34863,3.585v6.80957h-1.13184v-6.72461a3.04092,3.04092,0,0,0-.58886-2.02832,2.4,2.4,0,0,0-1.8916-.66016,3.01175,3.01175,0,0,0-2.05665.78711,2.78679,2.78679,0,0,0-.93359,1.873v6.75293h-1.13183v-6.80957a2.7947,2.7947,0,0,0-.61719-1.957,2.4615,2.4615,0,0,0-1.87305-.64649,2.84685,2.84685,0,0,0-1.8291.6084,3.56409,3.56409,0,0,0-1.13184,1.80566v6.999h-1.13183V320.38086Z" transform="translate(-63.0367 -24.30306)"/><path d="M254.8916,325.332a6.00141,6.00141,0,0,1,.57129-2.65039,4.28809,4.28809,0,0,1,3.97559-2.49023,4.19768,4.19768,0,0,1,3.30078,1.42968,5.50443,5.50443,0,0,1,1.26367,3.78711v.23535a6.0672,6.0672,0,0,1-.57031,2.665,4.25914,4.25914,0,0,1-1.6084,1.82422,4.40658,4.40658,0,0,1-2.36719.6416,4.203,4.203,0,0,1-3.29687-1.42871,5.49424,5.49424,0,0,1-1.26856-3.78711Zm1.13184.31152a4.63006,4.63006,0,0,0,.94824,3.00391,3.206,3.206,0,0,0,4.96094,0,4.78261,4.78261,0,0,0,.94824-3.09863v-.2168a5.1929,5.1929,0,0,0-.43359-2.14062,3.4988,3.4988,0,0,0-1.2168-1.50489,3.11509,3.11509,0,0,0-1.792-.53222,3.01481,3.01481,0,0,0-2.46192,1.18359,4.7861,4.7861,0,0,0-.95312,3.09863Z" transform="translate(-63.0367 -24.30306)"/><path d="M267.4082,320.38086l.03711,1.74414a4.05761,4.05761,0,0,1,1.4336-1.4375,3.718,3.718,0,0,1,1.89648-.49609,3.0605,3.0605,0,0,1,2.44238.9248,4.16946,4.16946,0,0,1,.81153,2.77344v6.69629h-1.12207v-6.70606a3.12258,3.12258,0,0,0-.58008-2.03711,2.2744,2.2744,0,0,0-1.8252-.66992,2.85612,2.85612,0,0,0-1.85351.65528,3.83865,3.83865,0,0,0-1.19336,1.76855v6.98926H266.333V320.38086Z" transform="translate(-63.0367 -24.30306)"/><path d="M109.668,353.76563h-1.13184V339.27832H109.668Z" transform="translate(-63.0367 -24.30306)"/><path d="M119.1748,353.76563a5.3202,5.3202,0,0,1-.21679-1.42383,3.92261,3.92261,0,0,1-1.51367,1.19238,4.63107,4.63107,0,0,1-1.94727.41992,3.42087,3.42087,0,0,1-2.38184-.82031,2.67159,2.67159,0,0,1-.91015-2.0752,2.73248,2.73248,0,0,1,1.24023-2.35839,5.9642,5.9642,0,0,1,3.457-.86719h2.04688v-1.16016a2.239,2.239,0,0,0-.67481-1.72168,2.78854,2.78854,0,0,0-1.96679-.62695,3.07711,3.07711,0,0,0-1.95215.60351,1.7935,1.7935,0,0,0-.77344,1.45215l-1.13183-.00879a2.62448,2.62448,0,0,1,1.13183-2.10839,4.36081,4.36081,0,0,1,2.78223-.89161,3.975,3.975,0,0,1,2.69336.8545,3.062,3.062,0,0,1,1.01367,2.38086v4.8291a5.97855,5.97855,0,0,0,.31152,2.21679v.11329Zm-3.54589-.81153a3.78575,3.78575,0,0,0,2.02343-.54687,3.218,3.218,0,0,0,1.29688-1.46192V348.7002h-2.01856a5.06036,5.06036,0,0,0-2.6416.61816,1.85472,1.85472,0,0,0-.95215,1.64551,1.82409,1.82409,0,0,0,.63672,1.4248A2.39758,2.39758,0,0,0,115.62891,352.9541Z" transform="translate(-63.0367 -24.30306)"/><path d="M124.15527,343.56055l.03711,1.74414a4.05761,4.05761,0,0,1,1.4336-1.4375,3.71785,3.71785,0,0,1,1.89648-.4961,3.0605,3.0605,0,0,1,2.44238.92481,4.16944,4.16944,0,0,1,.81153,2.77344v6.69629H129.6543v-6.70606a3.12258,3.12258,0,0,0-.58008-2.03711,2.2744,2.2744,0,0,0-1.8252-.66992,2.85617,2.85617,0,0,0-1.85351.65527,3.83868,3.83868,0,0,0-1.19336,1.76856v6.98926h-1.12207V343.56055Z" transform="translate(-63.0367 -24.30306)"/><path d="M133.23828,348.56836a6.13854,6.13854,0,0,1,1.06152-3.7959,3.42353,3.42353,0,0,1,2.88086-1.40137,3.55182,3.55182,0,0,1,3.16993,1.66016l.05566-1.4707h1.05664v9.998a4.31761,4.31761,0,0,1-1.10351,3.1211,3.94665,3.94665,0,0,1-2.99024,1.15136,4.54406,4.54406,0,0,1-2.03223-.47656,3.94662,3.94662,0,0,1-1.52343-1.26855l.63183-.67871a3.577,3.577,0,0,0,2.84864,1.4707,2.89643,2.89643,0,0,0,2.207-.835,3.32655,3.32655,0,0,0,.82129-2.31543v-1.28223a3.64993,3.64993,0,0,1-3.16016,1.50879,3.40261,3.40261,0,0,1-2.84863-1.415,6.161,6.161,0,0,1-1.0752-3.81933Zm1.1416.19824a5.32787,5.32787,0,0,0,.78223,3.08008,2.53373,2.53373,0,0,0,2.207,1.127,3.01842,3.01842,0,0,0,2.95313-1.86816v-4.74414a3.23164,3.23164,0,0,0-1.14161-1.49512,3.07689,3.07689,0,0,0-1.792-.51367,2.56175,2.56175,0,0,0-2.21679,1.11719A5.68834,5.68834,0,0,0,134.37988,348.7666Z" transform="translate(-63.0367 -24.30306)"/><path d="M150.9707,352.47363a3.6671,3.6671,0,0,1-3.2539,1.48047,3.15351,3.15351,0,0,1-2.48047-.94824,4.14784,4.14784,0,0,1-.86817-2.80566v-6.63965h1.12207v6.498q0,2.915,2.3584,2.915a2.89125,2.89125,0,0,0,3.10352-2.02832v-7.38476H152.084v10.20508h-1.09472Z" transform="translate(-63.0367 -24.30306)"/><path d="M161.459,353.76563a5.3202,5.3202,0,0,1-.21679-1.42383,3.92261,3.92261,0,0,1-1.51367,1.19238,4.63107,4.63107,0,0,1-1.94727.41992,3.42086,3.42086,0,0,1-2.38184-.82031,2.67159,2.67159,0,0,1-.91015-2.0752,2.73248,2.73248,0,0,1,1.24023-2.35839,5.9642,5.9642,0,0,1,3.457-.86719h2.04688v-1.16016a2.239,2.239,0,0,0-.67481-1.72168,2.78854,2.78854,0,0,0-1.96679-.62695,3.07711,3.07711,0,0,0-1.95215.60351,1.7935,1.7935,0,0,0-.77344,1.45215l-1.13183-.00879a2.62448,2.62448,0,0,1,1.13183-2.10839,4.36081,4.36081,0,0,1,2.78223-.89161,3.975,3.975,0,0,1,2.69336.8545,3.062,3.062,0,0,1,1.01367,2.38086v4.8291a5.97855,5.97855,0,0,0,.31152,2.21679v.11329Zm-3.54589-.81153a3.78575,3.78575,0,0,0,2.02343-.54687,3.218,3.218,0,0,0,1.29688-1.46192V348.7002h-2.01856a5.06036,5.06036,0,0,0-2.6416.61816,1.85472,1.85472,0,0,0-.95215,1.64551,1.82409,1.82409,0,0,0,.63672,1.4248A2.39758,2.39758,0,0,0,157.91309,352.9541Z" transform="translate(-63.0367 -24.30306)"/><path d="M164.91113,348.56836a6.13847,6.13847,0,0,1,1.06153-3.7959,3.42351,3.42351,0,0,1,2.88086-1.40137,3.55182,3.55182,0,0,1,3.16992,1.66016l.05566-1.4707h1.05664v9.998a4.31761,4.31761,0,0,1-1.10351,3.1211,3.94664,3.94664,0,0,1-2.99024,1.15136,4.544,4.544,0,0,1-2.03222-.47656,3.94658,3.94658,0,0,1-1.52344-1.26855l.63183-.67871a3.577,3.577,0,0,0,2.84864,1.4707,2.89642,2.89642,0,0,0,2.207-.835,3.3265,3.3265,0,0,0,.82129-2.31543v-1.28223a3.64993,3.64993,0,0,1-3.16016,1.50879,3.40262,3.40262,0,0,1-2.84863-1.415,6.161,6.161,0,0,1-1.0752-3.81933Zm1.1416.19824a5.32787,5.32787,0,0,0,.78223,3.08008,2.53373,2.53373,0,0,0,2.207,1.127,3.01841,3.01841,0,0,0,2.95313-1.86816v-4.74414a3.23169,3.23169,0,0,0-1.1416-1.49512,3.0769,3.0769,0,0,0-1.792-.51367,2.56175,2.56175,0,0,0-2.21679,1.11719A5.68842,5.68842,0,0,0,166.05273,348.7666Z" transform="translate(-63.0367 -24.30306)"/><path d="M180.03125,353.9541a4.429,4.429,0,0,1-2.35352-.6416,4.36591,4.36591,0,0,1-1.63671-1.78711,5.57254,5.57254,0,0,1-.585-2.57031v-.40528a5.99846,5.99846,0,0,1,.57129-2.65039,4.53513,4.53513,0,0,1,1.58887-1.85351,3.92362,3.92362,0,0,1,2.207-.67481,3.68352,3.68352,0,0,1,2.94727,1.26954,5.14358,5.14358,0,0,1,1.08984,3.46582v.63183H176.5791v.2168a4.27169,4.27169,0,0,0,.99512,2.8916,3.167,3.167,0,0,0,2.50391,1.15527,3.682,3.682,0,0,0,1.59863-.33007,3.54957,3.54957,0,0,0,1.25879-1.05665l.708.53711A4.11768,4.11768,0,0,1,180.03125,353.9541Zm-.208-9.62012a2.81852,2.81852,0,0,0-2.14551.9336,4.31212,4.31212,0,0,0-1.06152,2.50879h6.12207v-.123a3.74952,3.74952,0,0,0-.83984-2.39551A2.60117,2.60117,0,0,0,179.82324,344.334Z" transform="translate(-63.0367 -24.30306)"/><path d="M190.13184,348.51172a6.00141,6.00141,0,0,1,.57129-2.65039,4.288,4.288,0,0,1,3.97558-2.49024,4.19767,4.19767,0,0,1,3.30078,1.42969,5.50438,5.50438,0,0,1,1.26367,3.78711v.23535a6.0672,6.0672,0,0,1-.57031,2.665,4.25919,4.25919,0,0,1-1.6084,1.82422,4.40664,4.40664,0,0,1-2.36718.6416,4.20306,4.20306,0,0,1-3.29688-1.42871,5.49428,5.49428,0,0,1-1.26855-3.78711Zm1.13183.31152a4.63012,4.63012,0,0,0,.94824,3.00391,3.206,3.206,0,0,0,4.96094,0,4.78256,4.78256,0,0,0,.94824-3.09863v-.2168a5.193,5.193,0,0,0-.43359-2.14063,3.4987,3.4987,0,0,0-1.2168-1.50488,3.1151,3.1151,0,0,0-1.792-.53223,3.0148,3.0148,0,0,0-2.46191,1.1836,4.786,4.786,0,0,0-.95313,3.09863Z" transform="translate(-63.0367 -24.30306)"/><path d="M202.64844,343.56055l.03711,1.74414a4.05767,4.05767,0,0,1,1.43359-1.4375,3.71789,3.71789,0,0,1,1.89649-.4961,3.0605,3.0605,0,0,1,2.44238.92481,4.16944,4.16944,0,0,1,.81152,2.77344v6.69629h-1.12207v-6.70606a3.12247,3.12247,0,0,0-.58008-2.03711,2.27438,2.27438,0,0,0-1.82519-.66992,2.85619,2.85619,0,0,0-1.85352.65527,3.83883,3.83883,0,0,0-1.19336,1.76856v6.98926h-1.12207V343.56055Z" transform="translate(-63.0367 -24.30306)"/><path d="M218.63574,340.94727v2.61328H220.749v.92383h-2.11328V351.293a2.12985,2.12985,0,0,0,.30664,1.26465,1.18767,1.18767,0,0,0,1.02344.416,6.94913,6.94913,0,0,0,.915-.09472l.04687.916a3.67568,3.67568,0,0,1-1.207.15918,2.01462,2.01462,0,0,1-1.68847-.67383,3.17287,3.17287,0,0,1-.52832-1.98535v-6.81054h-1.877v-.92383h1.877v-2.61328Z" transform="translate(-63.0367 -24.30306)"/><path d="M224.21,345.28613a3.99871,3.99871,0,0,1,1.42383-1.415,3.73786,3.73786,0,0,1,1.89648-.5,3.06052,3.06052,0,0,1,2.44239.92481,4.1695,4.1695,0,0,1,.81152,2.77344v6.69629h-1.12207v-6.70606a3.12258,3.12258,0,0,0-.58008-2.03711,2.27439,2.27439,0,0,0-1.82519-.66992,2.85617,2.85617,0,0,0-1.85352.65527,3.83868,3.83868,0,0,0-1.19336,1.76856v6.98926h-1.12207V339.27832H224.21Z" transform="translate(-63.0367 -24.30306)"/><path d="M237.6416,353.9541a4.42894,4.42894,0,0,1-2.35351-.6416,4.36593,4.36593,0,0,1-1.63672-1.78711,5.57253,5.57253,0,0,1-.585-2.57031v-.40528a5.99846,5.99846,0,0,1,.57129-2.65039,4.535,4.535,0,0,1,1.58886-1.85351,3.92362,3.92362,0,0,1,2.207-.67481,3.68352,3.68352,0,0,1,2.94727,1.26954,5.14358,5.14358,0,0,1,1.08984,3.46582v.63183h-7.28125v.2168a4.27169,4.27169,0,0,0,.99512,2.8916,3.16706,3.16706,0,0,0,2.50391,1.15527,3.682,3.682,0,0,0,1.59863-.33007,3.54948,3.54948,0,0,0,1.25879-1.05665l.708.53711A4.1177,4.1177,0,0,1,237.6416,353.9541Zm-.208-9.62012a2.81849,2.81849,0,0,0-2.1455.9336,4.31207,4.31207,0,0,0-1.06153,2.50879h6.12207v-.123a3.74946,3.74946,0,0,0-.83984-2.39551A2.60117,2.60117,0,0,0,237.43359,344.334Z" transform="translate(-63.0367 -24.30306)"/><path d="M250.80859,351.417l.16993.877.22656-.92383,2.45215-7.80957h.96191l2.42383,7.74316.26465,1.0752.21679-.99024,2.09375-7.82812h1.16993l-2.97168,10.20508h-.96192l-2.62207-8.09278-.12207-.55664-.12305.56641-2.57519,8.083h-.96191l-2.96192-10.20508h1.16016Z" transform="translate(-63.0367 -24.30306)"/><path d="M266.88086,353.9541a4.429,4.429,0,0,1-2.35352-.6416,4.36591,4.36591,0,0,1-1.63671-1.78711,5.57254,5.57254,0,0,1-.585-2.57031v-.40528a5.99846,5.99846,0,0,1,.57129-2.65039,4.53513,4.53513,0,0,1,1.58887-1.85351,3.92362,3.92362,0,0,1,2.207-.67481,3.68352,3.68352,0,0,1,2.94727,1.26954,5.14358,5.14358,0,0,1,1.08984,3.46582v.63183h-7.28125v.2168a4.27169,4.27169,0,0,0,.99512,2.8916,3.167,3.167,0,0,0,2.5039,1.15527,3.682,3.682,0,0,0,1.59864-.33007,3.54957,3.54957,0,0,0,1.25879-1.05665l.708.53711A4.11769,4.11769,0,0,1,266.88086,353.9541Zm-.208-9.62012a2.81852,2.81852,0,0,0-2.14551.9336,4.31212,4.31212,0,0,0-1.06152,2.50879h6.12207v-.123a3.74952,3.74952,0,0,0-.83984-2.39551A2.60117,2.60117,0,0,0,266.67285,344.334Z" transform="translate(-63.0367 -24.30306)"/><path d="M281.12305,348.7666a6.14734,6.14734,0,0,1-1.05664,3.78711,3.37346,3.37346,0,0,1-2.83887,1.40039,3.66883,3.66883,0,0,1-3.22559-1.584l-.04687,1.39551h-1.05664V339.27832h1.12207v5.7627a3.54793,3.54793,0,0,1,3.18847-1.66993,3.40564,3.40564,0,0,1,2.86231,1.38184,6.222,6.222,0,0,1,1.05176,3.84375Zm-1.13184-.19824a5.31881,5.31881,0,0,0-.78223-3.11719,2.55375,2.55375,0,0,0-2.208-1.09863,3.105,3.105,0,0,0-1.83887.5332,3.23546,3.23546,0,0,0-1.1416,1.56055v4.60254a3.02538,3.02538,0,0,0,3,1.9248,2.535,2.535,0,0,0,2.18359-1.10351A5.68975,5.68975,0,0,0,279.99121,348.56836Z" transform="translate(-63.0367 -24.30306)"/><polygon class="cls-3" points="201.5 142 201.5 122 181.5 122 181.5 102 161.5 102 161.5 82 101.5 82 101.5 102 81.5 102 81.5 122 61.5 122 61.5 142 41.5 142 41.5 202 61.5 202 61.5 222 81.5 222 81.5 242 101.5 242 101.5 262 121.5 262 141.5 262 161.5 262 161.5 242 181.5 242 181.5 222 201.5 222 201.5 202 221.5 202 221.5 142 201.5 142"/><path class="cls-1" d="M151.17779,216.41348v-5.9351h-5.9351V204.542H139.3063v-5.9351h-5.9351V192.6705h5.9351v-5.93638h5.93639V180.799h5.9351v-5.93638h11.87277V180.799h-5.93638v5.93511h-5.93639v5.93638h-5.9351v5.93639h5.9351v5.9351h5.93639v5.93639h5.93638v5.9351Z" transform="translate(-63.0367 -24.30306)"/><path class="cls-1" d="M186.79354,204.542v-5.9351H198.665V192.6705h5.93638v-5.93638H186.79354v5.93638H174.92205V180.799h5.93638v-5.93638H210.5378V180.799h5.9351V192.6705h-5.9351v5.93639h-5.93639v5.9351Zm0,11.87149v-5.9351h17.80787v5.9351Z" transform="translate(-63.0367 -24.30306)"/><path class="cls-1" d="M231.65276,216.41348v-5.9351h5.9351V204.542h5.93639v-5.9351h5.9351V192.6705h-5.9351v-5.93638h-5.93639V180.799h-5.9351v-5.93638h11.87149V180.799h5.9351v5.93511h5.93639v5.93638h5.93638v5.93639h-5.93638v5.9351h-5.93639v5.93639h-5.9351v5.9351Z" transform="translate(-63.0367 -24.30306)"/><rect class="cls-4" x="165.5367" y="145.30306" width="20" height="20" transform="translate(288.0367 286.30306) rotate(-180)"/><rect class="cls-4" x="145.5367" y="165.30306" width="20" height="20" transform="translate(248.0367 326.30306) rotate(-180)"/></svg>