<svg id="Layer_1" data-name="Layer 1" xmlns="http://www.w3.org/2000/svg" viewBox="0 0 263 364"><defs><style>.cls-1,.cls-4{fill:#fff;}.cls-2{fill:#494949;}.cls-3{fill:#efef1b;}.cls-4{opacity:0.4;}</style></defs><title>w-python</title><rect class="cls-1" x="10" y="9.61035" width="243.31738" height="344.4502"/><rect class="cls-2" x="10" width="243.31738" height="10"/><rect class="cls-2" x="10" y="354" width="243.31738" height="10"/><rect class="cls-2" x="253" y="10.05119" width="10" height="344.00935"/><rect class="cls-2" y="10.05119" width="10" height="344.00935"/><path d="M121.91211,73.60449v-18.375h15.75v2.625h2.625v7.875h-2.625v2.625h-10.5v5.25Zm5.25-7.875h7.875v-7.875h-7.875Z" transform="translate(-53.4117 -23.30306)"/><path d="M150.78711,73.60449v-7.875h-2.625v-2.625h-2.625v-7.875h5.25v7.875h5.25v-7.875h5.25v7.875h-2.625v2.625h-2.625v7.875Z" transform="translate(-53.4117 -23.30306)"/><path d="M171.78711,73.60449v-15.75h-5.25v-2.625h15.75v2.625h-5.25v15.75Z" transform="translate(-53.4117 -23.30306)"/><path d="M184.91211,73.60449v-18.375h5.25v7.875h7.875v-7.875h5.25v18.375h-5.25v-7.875h-7.875v7.875Z" transform="translate(-53.4117 -23.30306)"/><path d="M208.53711,73.60449v-2.625h-2.625v-13.125h2.625v-2.625h13.125v2.625h2.625v13.125h-2.625v2.625Zm2.625-2.625h7.875v-13.125h-7.875Z" transform="translate(-53.4117 -23.30306)"/><path d="M226.91211,73.60449v-18.375h5.25v2.625h2.625v2.625h2.625v2.625h2.625v-7.875h5.25v18.375h-5.25v-5.25h-2.625v-2.625h-2.625v-2.625h-2.625v10.5Z" transform="translate(-53.4117 -23.30306)"/><path d="M117.11572,316.834h-4.707v12.752h-1.16015V316.834h-4.69727v-.98144h10.56445Z" transform="translate(-53.4117 -23.30306)"/><path d="M120.18994,321.10645a3.99863,3.99863,0,0,1,1.42383-1.415,3.73776,3.73776,0,0,1,1.89648-.5,3.06052,3.06052,0,0,1,2.44239.9248,4.16951,4.16951,0,0,1,.81152,2.77344v6.69629h-1.12207v-6.70606a3.12258,3.12258,0,0,0-.58008-2.03711,2.27439,2.27439,0,0,0-1.82519-.66992,2.85613,2.85613,0,0,0-1.85352.65528,3.83865,3.83865,0,0,0-1.19336,1.76855v6.98926h-1.12207V315.09863h1.12207Z" transform="translate(-53.4117 -23.30306)"/><path d="M133.62158,329.77441a4.42885,4.42885,0,0,1-2.35351-.6416,4.36587,4.36587,0,0,1-1.63672-1.78711,5.5725,5.5725,0,0,1-.585-2.57031v-.40527a5.9984,5.9984,0,0,1,.57129-2.65039,4.535,4.535,0,0,1,1.58886-1.85352,3.92361,3.92361,0,0,1,2.207-.6748,3.68351,3.68351,0,0,1,2.94727,1.26953,5.14358,5.14358,0,0,1,1.08984,3.46582v.63183h-7.28125v.2168a4.27167,4.27167,0,0,0,.99512,2.8916,3.16707,3.16707,0,0,0,2.50391,1.15528,3.682,3.682,0,0,0,1.59863-.33008,3.54955,3.54955,0,0,0,1.25879-1.05664l.708.53711A4.11772,4.11772,0,0,1,133.62158,329.77441Zm-.208-9.62011a2.81848,2.81848,0,0,0-2.1455.93359,4.31216,4.31216,0,0,0-1.06153,2.50879h6.12207v-.123a3.74943,3.74943,0,0,0-.83984-2.3955A2.60114,2.60114,0,0,0,133.41357,320.1543Z" transform="translate(-53.4117 -23.30306)"/><path d="M145.37354,319.38086l.03808,1.66016a3.76926,3.76926,0,0,1,1.415-1.38672,3.87306,3.87306,0,0,1,1.88672-.46289,2.86413,2.86413,0,0,1,3.06543,1.98144,3.822,3.822,0,0,1,1.46191-1.4668,4.04562,4.04562,0,0,1,2.01758-.51464q3.28272,0,3.34863,3.585v6.80957H157.4751v-6.72461a3.04092,3.04092,0,0,0-.58887-2.02832,2.4,2.4,0,0,0-1.8916-.66016,3.01174,3.01174,0,0,0-2.05664.78711,2.7868,2.7868,0,0,0-.9336,1.873v6.75293h-1.13183v-6.80957a2.7947,2.7947,0,0,0-.61719-1.957,2.46148,2.46148,0,0,0-1.87305-.64649,2.84685,2.84685,0,0,0-1.8291.6084,3.56408,3.56408,0,0,0-1.13183,1.80566v6.999h-1.13184V319.38086Z" transform="translate(-53.4117 -23.30306)"/><path d="M160.84229,324.332a6.00141,6.00141,0,0,1,.57128-2.65039,4.28809,4.28809,0,0,1,3.97559-2.49023,4.19766,4.19766,0,0,1,3.30078,1.42968,5.50443,5.50443,0,0,1,1.26367,3.78711v.23535a6.0672,6.0672,0,0,1-.57031,2.665,4.25914,4.25914,0,0,1-1.6084,1.82422,4.40656,4.40656,0,0,1-2.36719.6416,4.20305,4.20305,0,0,1-3.29687-1.42871,5.49428,5.49428,0,0,1-1.26855-3.78711Zm1.13183.31152a4.63012,4.63012,0,0,0,.94824,3.00391,3.206,3.206,0,0,0,4.96094,0,4.78256,4.78256,0,0,0,.94824-3.09863v-.2168a5.1929,5.1929,0,0,0-.43359-2.14062,3.49873,3.49873,0,0,0-1.2168-1.50489,3.11509,3.11509,0,0,0-1.792-.53222,3.01478,3.01478,0,0,0-2.46191,1.18359,4.786,4.786,0,0,0-.95313,3.09863Z" transform="translate(-53.4117 -23.30306)"/><path d="M178.395,326.99219a1.60759,1.60759,0,0,0-.67383-1.34864,5.193,5.193,0,0,0-2.0332-.79687,9.21456,9.21456,0,0,1-2.10742-.66016,2.81479,2.81479,0,0,1-1.11328-.91015,2.27167,2.27167,0,0,1-.36329-1.30176,2.42981,2.42981,0,0,1,1.00977-1.99512,4.07414,4.07414,0,0,1,2.584-.78808,4.19887,4.19887,0,0,1,2.74024.84472,2.70845,2.70845,0,0,1,1.03222,2.20215h-1.13183a1.82923,1.82923,0,0,0-.749-1.49023,3.38648,3.38648,0,0,0-3.67872-.09864,1.52614,1.52614,0,0,0-.6748,1.28711,1.391,1.391,0,0,0,.56152,1.1836,5.92358,5.92358,0,0,0,2.04688.76855,9.66676,9.66676,0,0,1,2.22558.74512,2.87792,2.87792,0,0,1,1.09864.95312,2.61942,2.61942,0,0,1-.6836,3.41407,4.45056,4.45056,0,0,1-2.7207.77343,4.56935,4.56935,0,0,1-2.8916-.86328,2.65712,2.65712,0,0,1-1.1084-2.18261H172.897a1.95877,1.95877,0,0,0,.834,1.542,3.41875,3.41875,0,0,0,2.0332.55176,3.20358,3.20358,0,0,0,1.90527-.51954A1.55685,1.55685,0,0,0,178.395,326.99219Z" transform="translate(-53.4117 -23.30306)"/><path d="M183.81885,316.76758v2.61328h2.11328v.92383h-2.11328v6.80859a2.12985,2.12985,0,0,0,.30664,1.26465,1.18767,1.18767,0,0,0,1.02344.416,6.94773,6.94773,0,0,0,.915-.09473l.04688.916a3.67572,3.67572,0,0,1-1.207.15918,2.01466,2.01466,0,0,1-1.68848-.67382,3.17292,3.17292,0,0,1-.52832-1.98536v-6.81054h-1.87695v-.92383H182.687v-2.61328Z" transform="translate(-53.4117 -23.30306)"/><path d="M192.51514,324.38867a6.15,6.15,0,0,1,1.06152-3.78711,3.41606,3.41606,0,0,1,2.88086-1.41015,3.54862,3.54862,0,0,1,3.15039,1.63183v-5.72461H200.731v14.48731h-1.05664l-.04688-1.3584a3.64611,3.64611,0,0,1-3.18848,1.54687,3.40228,3.40228,0,0,1-2.84375-1.41894,6.18587,6.18587,0,0,1-1.08007-3.835Zm1.1416.19824a5.32787,5.32787,0,0,0,.78222,3.08008,2.53376,2.53376,0,0,0,2.207,1.127,3.03831,3.03831,0,0,0,2.96191-1.83985v-4.791a3.01453,3.01453,0,0,0-2.94238-1.99024,2.56176,2.56176,0,0,0-2.2168,1.11719A5.68847,5.68847,0,0,0,193.65674,324.58691Z" transform="translate(-53.4117 -23.30306)"/><path d="M206.9375,327.96387l2.98047-8.583h1.2168l-4.35938,11.94043-.22461.52832a2.74459,2.74459,0,0,1-2.5957,1.8584,3.14085,3.14085,0,0,1-.86719-.13281l-.00976-.9336.58593.05664a2.09258,2.09258,0,0,0,1.34375-.41015,3.13018,3.13018,0,0,0,.87305-1.41016l.5-1.37695-3.84961-10.12012h1.23633Z" transform="translate(-53.4117 -23.30306)"/><path d="M213.95313,319.38086l.0371,1.74414a4.0655,4.0655,0,0,1,1.4336-1.4375,3.72051,3.72051,0,0,1,1.89648-.49609,3.064,3.064,0,0,1,2.44336.9248,4.16412,4.16412,0,0,1,.81055,2.77344v6.69629h-1.12109v-6.70606a3.13387,3.13387,0,0,0-.58008-2.03711,2.27662,2.27662,0,0,0-1.82617-.66992,2.858,2.858,0,0,0-1.85352.65528A3.84605,3.84605,0,0,0,214,322.59668v6.98926h-1.12109V319.38086Z" transform="translate(-53.4117 -23.30306)"/><path d="M229.93164,329.58594a5.32,5.32,0,0,1-.2168-1.42383,3.92967,3.92967,0,0,1-1.51367,1.19238,4.63409,4.63409,0,0,1-1.94726.41992,3.42335,3.42335,0,0,1-2.38282-.82031,2.67157,2.67157,0,0,1-.91015-2.07519,2.73473,2.73473,0,0,1,1.24023-2.3584,5.96844,5.96844,0,0,1,3.457-.86719h2.04688v-1.16016a2.23835,2.23835,0,0,0-.67383-1.72168,2.78863,2.78863,0,0,0-1.9668-.627,3.078,3.078,0,0,0-1.95312.60352,1.79348,1.79348,0,0,0-.77344,1.45215l-1.13086-.00879a2.626,2.626,0,0,1,1.13086-2.1084,4.36359,4.36359,0,0,1,2.7832-.8916,3.97666,3.97666,0,0,1,2.69336.85449,3.0653,3.0653,0,0,1,1.01368,2.38086v4.8291a6.00284,6.00284,0,0,0,.31054,2.2168v.11328Zm-3.54687-.81153a3.781,3.781,0,0,0,2.02343-.54687,3.21237,3.21237,0,0,0,1.29688-1.46191v-2.24512H227.6875a5.0642,5.0642,0,0,0-2.64258.61816,1.85379,1.85379,0,0,0-.95117,1.64551,1.82093,1.82093,0,0,0,.63672,1.4248A2.395,2.395,0,0,0,226.38477,328.77441Z" transform="translate(-53.4117 -23.30306)"/><path d="M234.86328,319.38086l.03906,1.66016a3.767,3.767,0,0,1,1.41407-1.38672,3.87842,3.87842,0,0,1,1.88672-.46289,2.866,2.866,0,0,1,3.0664,1.98144,3.81952,3.81952,0,0,1,1.46094-1.4668,4.0482,4.0482,0,0,1,2.01758-.51464q3.28417,0,3.34961,3.585v6.80957h-1.13282v-6.72461a3.041,3.041,0,0,0-.58789-2.02832,2.40089,2.40089,0,0,0-1.89257-.66016,3.01355,3.01355,0,0,0-2.05665.78711,2.79512,2.79512,0,0,0-.93359,1.873v6.75293h-1.13086v-6.80957a2.79932,2.79932,0,0,0-.61719-1.957,2.46294,2.46294,0,0,0-1.873-.64649,2.84956,2.84956,0,0,0-1.83008.6084,3.55651,3.55651,0,0,0-1.13086,1.80566v6.999H233.7793V319.38086Z" transform="translate(-53.4117 -23.30306)"/><path d="M250.88867,316.43262a.75867.75867,0,0,1,.209-.53907.7363.7363,0,0,1,.56445-.21972.741.741,0,0,1,.7832.75879.7266.7266,0,0,1-.21289.53418.75742.75742,0,0,1-.57031.21582.72822.72822,0,0,1-.77344-.75Zm1.33008,13.15332h-1.13086V319.38086h1.13086Z" transform="translate(-53.4117 -23.30306)"/><path d="M259.05859,328.82227a2.97777,2.97777,0,0,0,1.97461-.665,2.33146,2.33146,0,0,0,.86328-1.72168h1.08594a3.18251,3.18251,0,0,1-.58594,1.70215,3.654,3.654,0,0,1-1.42773,1.20312,4.31841,4.31841,0,0,1-1.91016.43359,3.94246,3.94246,0,0,1-3.18359-1.3955,5.64262,5.64262,0,0,1-1.17383-3.75391v-.33984a6.38783,6.38783,0,0,1,.52735-2.66895,4.06929,4.06929,0,0,1,1.51367-1.792,4.17767,4.17767,0,0,1,2.30664-.63281,3.93687,3.93687,0,0,1,2.76758,1,3.64869,3.64869,0,0,1,1.166,2.63183h-1.08594a2.73093,2.73093,0,0,0-2.84765-2.66894,2.8152,2.8152,0,0,0-2.37305,1.10351,4.99348,4.99348,0,0,0-.84375,3.09375v.33008a4.88314,4.88314,0,0,0,.84375,3.0459A2.83764,2.83764,0,0,0,259.05859,328.82227Z" transform="translate(-53.4117 -23.30306)"/><path d="M93.94482,352.76563a5.3202,5.3202,0,0,1-.21679-1.42383,3.92261,3.92261,0,0,1-1.51367,1.19238,4.63107,4.63107,0,0,1-1.94727.41992,3.42086,3.42086,0,0,1-2.38184-.82031,2.67159,2.67159,0,0,1-.91015-2.0752,2.73248,2.73248,0,0,1,1.24023-2.35839,5.9642,5.9642,0,0,1,3.457-.86719h2.04688v-1.16016a2.239,2.239,0,0,0-.67481-1.72168,2.78857,2.78857,0,0,0-1.96679-.62695,3.07711,3.07711,0,0,0-1.95215.60351,1.7935,1.7935,0,0,0-.77344,1.45215l-1.13184-.00879a2.62449,2.62449,0,0,1,1.13184-2.10839,4.36081,4.36081,0,0,1,2.78223-.89161,3.975,3.975,0,0,1,2.69336.8545,3.062,3.062,0,0,1,1.01367,2.38086v4.8291a5.97855,5.97855,0,0,0,.31152,2.21679v.11329Zm-3.54589-.81153a3.78575,3.78575,0,0,0,2.02343-.54687,3.218,3.218,0,0,0,1.29688-1.46192V347.7002H91.70068a5.06036,5.06036,0,0,0-2.6416.61816,1.85472,1.85472,0,0,0-.95215,1.64551,1.82409,1.82409,0,0,0,.63672,1.4248A2.39758,2.39758,0,0,0,90.39893,351.9541Z" transform="translate(-53.4117 -23.30306)"/><path d="M98.92529,342.56055l.03711,1.74414a4.05761,4.05761,0,0,1,1.4336-1.4375,3.71785,3.71785,0,0,1,1.89648-.4961,3.0605,3.0605,0,0,1,2.44238.92481,4.16944,4.16944,0,0,1,.81153,2.77344v6.69629h-1.12207v-6.70606a3.12258,3.12258,0,0,0-.58008-2.03711,2.2744,2.2744,0,0,0-1.8252-.66992,2.85617,2.85617,0,0,0-1.85351.65527,3.83868,3.83868,0,0,0-1.19336,1.76856v6.98926H97.8501V342.56055Z" transform="translate(-53.4117 -23.30306)"/><path d="M108.0083,347.56836a6.1501,6.1501,0,0,1,1.06152-3.78711,3.41608,3.41608,0,0,1,2.88086-1.41016,3.54861,3.54861,0,0,1,3.15039,1.63184v-5.72461h1.123v14.48731h-1.05664l-.04687-1.3584a3.64613,3.64613,0,0,1-3.18848,1.54687,3.40228,3.40228,0,0,1-2.84375-1.41894,6.18581,6.18581,0,0,1-1.08008-3.835Zm1.1416.19824a5.3278,5.3278,0,0,0,.78223,3.08008,2.53373,2.53373,0,0,0,2.207,1.127,3.03829,3.03829,0,0,0,2.96191-1.83984v-4.791a3.01453,3.01453,0,0,0-2.94238-1.99023,2.56177,2.56177,0,0,0-2.2168,1.11719A5.68843,5.68843,0,0,0,109.1499,347.7666Z" transform="translate(-53.4117 -23.30306)"/><path d="M128.60791,343.52246a4.22744,4.22744,0,0,0-.76367-.06641,2.75386,2.75386,0,0,0-1.78809.58985,3.23092,3.23092,0,0,0-1.042,1.71191v7.00782h-1.12207V342.56055h1.10352l.01855,1.62207a3.003,3.003,0,0,1,2.87695-1.81153,1.8511,1.8511,0,0,1,.74512.12305Z" transform="translate(-53.4117 -23.30306)"/><path d="M134.16357,352.9541a4.42894,4.42894,0,0,1-2.35351-.6416,4.366,4.366,0,0,1-1.63672-1.78711,5.57253,5.57253,0,0,1-.585-2.57031v-.40528a5.99846,5.99846,0,0,1,.57129-2.65039,4.535,4.535,0,0,1,1.58887-1.85351,3.92359,3.92359,0,0,1,2.207-.67481,3.68349,3.68349,0,0,1,2.94726,1.26954,5.14359,5.14359,0,0,1,1.08985,3.46582v.63183h-7.28125v.2168a4.27168,4.27168,0,0,0,.99511,2.8916,3.16706,3.16706,0,0,0,2.50391,1.15527,3.682,3.682,0,0,0,1.59863-.33007,3.5494,3.5494,0,0,0,1.25879-1.05665l.708.53711A4.1177,4.1177,0,0,1,134.16357,352.9541Zm-.208-9.62012a2.81849,2.81849,0,0,0-2.14551.9336,4.31206,4.31206,0,0,0-1.06152,2.50879h6.12207v-.123a3.74952,3.74952,0,0,0-.83985-2.39551A2.60115,2.60115,0,0,0,133.95557,343.334Z" transform="translate(-53.4117 -23.30306)"/><path d="M139.73779,347.56836a6.13847,6.13847,0,0,1,1.06153-3.7959,3.442,3.442,0,0,1,2.90039-1.40137,3.5632,3.5632,0,0,1,3.14062,1.5752l.05664-1.38574h1.05664v14.1289h-1.13183V351.502a3.72878,3.72878,0,0,1-3.1416,1.45215,3.42129,3.42129,0,0,1-2.86719-1.415,6.161,6.161,0,0,1-1.0752-3.81933Zm1.1416.19824a5.304,5.304,0,0,0,.79688,3.10742,2.5581,2.5581,0,0,0,2.21191,1.12793,3.06541,3.06541,0,0,0,2.9336-1.76367v-4.999a3.30762,3.30762,0,0,0-1.17481-1.41016,3.08583,3.08583,0,0,0-1.74023-.49512,2.57752,2.57752,0,0,0-2.22559,1.127A5.6754,5.6754,0,0,0,140.87939,347.7666Z" transform="translate(-53.4117 -23.30306)"/><path d="M157.52686,351.47363a3.66713,3.66713,0,0,1-3.25391,1.48047,3.15351,3.15351,0,0,1-2.48047-.94824,4.14778,4.14778,0,0,1-.86816-2.80566v-6.63965h1.12207v6.498q0,2.915,2.3584,2.915a2.89125,2.89125,0,0,0,3.10351-2.02832v-7.38476h1.13184v10.20508h-1.09473Z" transform="translate(-53.4117 -23.30306)"/><path d="M161.50635,339.6123a.75783.75783,0,0,1,.208-.53906.7385.7385,0,0,1,.56543-.21972.741.741,0,0,1,.7832.75878.73043.73043,0,0,1-.21289.53418.75889.75889,0,0,1-.57031.21582.72678.72678,0,0,1-.77344-.75Zm1.33008,13.15333h-1.13184V342.56055h1.13184Z" transform="translate(-53.4117 -23.30306)"/><path d="M169.854,352.9541a4.42894,4.42894,0,0,1-2.35351-.6416,4.366,4.366,0,0,1-1.63672-1.78711,5.57253,5.57253,0,0,1-.585-2.57031v-.40528a5.99846,5.99846,0,0,1,.57129-2.65039,4.535,4.535,0,0,1,1.58886-1.85351,3.92365,3.92365,0,0,1,2.207-.67481,3.68349,3.68349,0,0,1,2.94726,1.26954,5.14359,5.14359,0,0,1,1.08985,3.46582v.63183h-7.28125v.2168a4.27168,4.27168,0,0,0,.99511,2.8916,3.16706,3.16706,0,0,0,2.50391,1.15527,3.682,3.682,0,0,0,1.59863-.33007,3.5494,3.5494,0,0,0,1.25879-1.05665l.708.53711A4.1177,4.1177,0,0,1,169.854,352.9541Zm-.208-9.62012a2.81849,2.81849,0,0,0-2.14551.9336,4.31213,4.31213,0,0,0-1.06153,2.50879H172.561v-.123a3.74952,3.74952,0,0,0-.83985-2.39551A2.60116,2.60116,0,0,0,169.646,343.334Z" transform="translate(-53.4117 -23.30306)"/><path d="M180.59717,343.52246a4.22744,4.22744,0,0,0-.76367-.06641,2.75384,2.75384,0,0,0-1.78809.58985,3.23092,3.23092,0,0,0-1.042,1.71191v7.00782h-1.12207V342.56055h1.10351l.01856,1.62207a3.003,3.003,0,0,1,2.87695-1.81153,1.85113,1.85113,0,0,1,.74512.12305Z" transform="translate(-53.4117 -23.30306)"/><path d="M186.15283,352.9541a4.42894,4.42894,0,0,1-2.35351-.6416,4.36593,4.36593,0,0,1-1.63672-1.78711,5.57253,5.57253,0,0,1-.585-2.57031v-.40528a5.99846,5.99846,0,0,1,.57129-2.65039,4.535,4.535,0,0,1,1.58886-1.85351,3.92362,3.92362,0,0,1,2.207-.67481,3.68352,3.68352,0,0,1,2.94727,1.26954,5.14358,5.14358,0,0,1,1.08984,3.46582v.63183h-7.28125v.2168a4.27169,4.27169,0,0,0,.99512,2.8916,3.16706,3.16706,0,0,0,2.50391,1.15527,3.682,3.682,0,0,0,1.59863-.33007,3.54948,3.54948,0,0,0,1.25879-1.05665l.708.53711A4.1177,4.1177,0,0,1,186.15283,352.9541Zm-.208-9.62012a2.81849,2.81849,0,0,0-2.1455.9336,4.31213,4.31213,0,0,0-1.06153,2.50879h6.12207v-.123a3.74946,3.74946,0,0,0-.83984-2.39551A2.60117,2.60117,0,0,0,185.94482,343.334Z" transform="translate(-53.4117 -23.30306)"/><path d="M191.72705,347.56836a6.1501,6.1501,0,0,1,1.06152-3.78711,3.41608,3.41608,0,0,1,2.88086-1.41016,3.54861,3.54861,0,0,1,3.15039,1.63184v-5.72461h1.12305v14.48731h-1.05664l-.04687-1.3584a3.64613,3.64613,0,0,1-3.18848,1.54687,3.40228,3.40228,0,0,1-2.84375-1.41894,6.18581,6.18581,0,0,1-1.08008-3.835Zm1.1416.19824a5.3278,5.3278,0,0,0,.78223,3.08008,2.53373,2.53373,0,0,0,2.207,1.127,3.03829,3.03829,0,0,0,2.96191-1.83984v-4.791a3.01453,3.01453,0,0,0-2.94238-1.99023,2.56177,2.56177,0,0,0-2.2168,1.11719A5.68843,5.68843,0,0,0,192.86865,347.7666Z" transform="translate(-53.4117 -23.30306)"/><path d="M208.875,352.76563h-1.13281V338.27832H208.875Z" transform="translate(-53.4117 -23.30306)"/><path d="M218.38086,352.76563a5.32013,5.32013,0,0,1-.2168-1.42383,3.9154,3.9154,0,0,1-1.51367,1.19238,4.62778,4.62778,0,0,1-1.94726.41992,3.4183,3.4183,0,0,1-2.38086-.82031,2.67156,2.67156,0,0,1-.91016-2.0752,2.73026,2.73026,0,0,1,1.24023-2.35839,5.96,5.96,0,0,1,3.457-.86719h2.04687v-1.16016a2.23957,2.23957,0,0,0-.67578-1.72168,2.78858,2.78858,0,0,0-1.9668-.62695,3.0762,3.0762,0,0,0-1.95117.60351,1.79352,1.79352,0,0,0-.77344,1.45215l-1.13281-.00879a2.623,2.623,0,0,1,1.13281-2.10839,4.358,4.358,0,0,1,2.78125-.89161,3.97323,3.97323,0,0,1,2.69336.8545,3.05876,3.05876,0,0,1,1.01367,2.38086v4.8291a5.95477,5.95477,0,0,0,.3125,2.21679v.11329Zm-3.54492-.81153a3.79063,3.79063,0,0,0,2.02344-.54687,3.22344,3.22344,0,0,0,1.29687-1.46192V347.7002h-2.01953a5.05656,5.05656,0,0,0-2.64063.61816,1.85565,1.85565,0,0,0-.95312,1.64551,1.82722,1.82722,0,0,0,.63672,1.4248A2.40012,2.40012,0,0,0,214.83594,351.9541Z" transform="translate(-53.4117 -23.30306)"/><path d="M223.36133,342.56055l.03711,1.74414a4.06547,4.06547,0,0,1,1.43359-1.4375,3.72046,3.72046,0,0,1,1.89649-.4961,3.06406,3.06406,0,0,1,2.44336.92481,4.16416,4.16416,0,0,1,.81054,2.77344v6.69629h-1.12109v-6.70606a3.13375,3.13375,0,0,0-.58008-2.03711,2.2766,2.2766,0,0,0-1.82617-.66992,2.85806,2.85806,0,0,0-1.85352.65527,3.84616,3.84616,0,0,0-1.19336,1.76856v6.98926h-1.12109V342.56055Z" transform="translate(-53.4117 -23.30306)"/><path d="M232.44531,347.56836a6.14469,6.14469,0,0,1,1.06055-3.7959,3.42351,3.42351,0,0,1,2.88086-1.40137,3.54962,3.54962,0,0,1,3.16992,1.66016l.05664-1.4707h1.05664v9.998a4.31761,4.31761,0,0,1-1.10351,3.1211,3.94811,3.94811,0,0,1-2.99024,1.15136,4.545,4.545,0,0,1-2.0332-.47656,3.94673,3.94673,0,0,1-1.52344-1.26855l.63281-.67871a3.57661,3.57661,0,0,0,2.84766,1.4707,2.895,2.895,0,0,0,2.207-.835,3.32243,3.32243,0,0,0,.82227-2.31543v-1.28223a3.65109,3.65109,0,0,1-3.16016,1.50879,3.40315,3.40315,0,0,1-2.84961-1.415,6.16081,6.16081,0,0,1-1.07422-3.81933Zm1.14063.19824a5.32776,5.32776,0,0,0,.7832,3.08008,2.53258,2.53258,0,0,0,2.207,1.127,3.02015,3.02015,0,0,0,2.95313-1.86816v-4.74414a3.23976,3.23976,0,0,0-1.14258-1.49512,3.07375,3.07375,0,0,0-1.791-.51367,2.55942,2.55942,0,0,0-2.21679,1.11719A5.68044,5.68044,0,0,0,233.58594,347.7666Z" transform="translate(-53.4117 -23.30306)"/><path d="M250.17773,351.47363a3.66822,3.66822,0,0,1-3.2539,1.48047,3.15212,3.15212,0,0,1-2.48047-.94824,4.153,4.153,0,0,1-.86914-2.80566v-6.63965h1.12305v6.498q0,2.915,2.35742,2.915a2.89055,2.89055,0,0,0,3.10351-2.02832v-7.38476H251.291v10.20508h-1.09571Z" transform="translate(-53.4117 -23.30306)"/><path d="M260.666,352.76563a5.31972,5.31972,0,0,1-.2168-1.42383,3.92984,3.92984,0,0,1-1.51367,1.19238,4.63425,4.63425,0,0,1-1.94727.41992,3.42337,3.42337,0,0,1-2.38281-.82031,2.6716,2.6716,0,0,1-.91016-2.0752,2.73473,2.73473,0,0,1,1.24024-2.35839,5.96842,5.96842,0,0,1,3.457-.86719h2.04687v-1.16016a2.23838,2.23838,0,0,0-.67382-1.72168,2.78858,2.78858,0,0,0-1.9668-.62695,3.07811,3.07811,0,0,0-1.95313.60351,1.79351,1.79351,0,0,0-.77343,1.45215l-1.13086-.00879a2.626,2.626,0,0,1,1.13086-2.10839,4.36359,4.36359,0,0,1,2.7832-.89161,3.97668,3.97668,0,0,1,2.69336.8545,3.06526,3.06526,0,0,1,1.01367,2.38086v4.8291a6.00271,6.00271,0,0,0,.31055,2.21679v.11329Zm-3.54688-.81153a3.781,3.781,0,0,0,2.02344-.54687,3.21237,3.21237,0,0,0,1.29687-1.46192V347.7002h-2.01757a5.06417,5.06417,0,0,0-2.64258.61816,1.85375,1.85375,0,0,0-.95117,1.64551,1.82093,1.82093,0,0,0,.63671,1.4248A2.395,2.395,0,0,0,257.11914,351.9541Z" transform="translate(-53.4117 -23.30306)"/><path d="M264.11719,347.56836a6.13228,6.13228,0,0,1,1.0625-3.7959,3.42351,3.42351,0,0,1,2.88086-1.40137,3.554,3.554,0,0,1,3.16992,1.66016l.05469-1.4707h1.05664v9.998a4.31757,4.31757,0,0,1-1.10352,3.1211,3.94513,3.94513,0,0,1-2.99023,1.15136,4.543,4.543,0,0,1-2.03125-.47656,3.94666,3.94666,0,0,1-1.52344-1.26855l.63086-.67871a3.5774,3.5774,0,0,0,2.84961,1.4707,2.89788,2.89788,0,0,0,2.207-.835,3.33059,3.33059,0,0,0,.82031-2.31543v-1.28223a3.64873,3.64873,0,0,1-3.16015,1.50879,3.40211,3.40211,0,0,1-2.84766-1.415,6.16109,6.16109,0,0,1-1.07617-3.81933Zm1.14258.19824a5.32792,5.32792,0,0,0,.78125,3.08008,2.53487,2.53487,0,0,0,2.207,1.127,3.01666,3.01666,0,0,0,2.95312-1.86816v-4.74414a3.22364,3.22364,0,0,0-1.14062-1.49512,3.08,3.08,0,0,0-1.793-.51367,2.5641,2.5641,0,0,0-2.2168,1.11719A5.69644,5.69644,0,0,0,265.25977,347.7666Z" transform="translate(-53.4117 -23.30306)"/><path d="M279.23828,352.9541a4.4265,4.4265,0,0,1-2.35351-.6416,4.35934,4.35934,0,0,1-1.63672-1.78711,5.56078,5.56078,0,0,1-.58594-2.57031v-.40528a5.99883,5.99883,0,0,1,.57227-2.65039,4.53283,4.53283,0,0,1,1.58789-1.85351,3.92819,3.92819,0,0,1,2.207-.67481,3.6808,3.6808,0,0,1,2.94726,1.26954,5.14353,5.14353,0,0,1,1.08985,3.46582v.63183h-7.28125v.2168a4.27232,4.27232,0,0,0,.99609,2.8916,3.16568,3.16568,0,0,0,2.50391,1.15527,3.67446,3.67446,0,0,0,1.59765-.33007,3.54381,3.54381,0,0,0,1.25977-1.05665l.707.53711A4.116,4.116,0,0,1,279.23828,352.9541Zm-.209-9.62012a2.81643,2.81643,0,0,0-2.14453.9336,4.319,4.319,0,0,0-1.0625,2.50879h6.123v-.123a3.76051,3.76051,0,0,0-.83984-2.39551A2.60448,2.60448,0,0,0,279.0293,343.334Z" transform="translate(-53.4117 -23.30306)"/><polygon class="cls-3" points="201.5 142 201.5 122 181.5 122 181.5 102 161.5 102 161.5 82 101.5 82 101.5 102 81.5 102 81.5 122 61.5 122 61.5 142 41.5 142 41.5 202 61.5 202 61.5 222 81.5 222 81.5 242 101.5 242 101.5 262 121.5 262 141.5 262 161.5 262 161.5 242 181.5 242 181.5 222 201.5 222 201.5 202 221.5 202 221.5 142 201.5 142"/><path class="cls-1" d="M121.17922,209.03255v-4.65616h-4.65717v-13.9705h4.65717v-4.65717h18.62666v-9.31333h9.31334v32.59716Zm4.65617-4.65616h13.97049v-13.9705H125.83539Z" transform="translate(-53.4117 -23.30306)"/><path class="cls-1" d="M158.43355,209.03255v-4.65616h-4.65717v-13.9705h4.65717v-4.65717h23.28383v4.65717h4.65616v9.31333H163.08971v4.65717h18.62767v4.65616Zm4.65616-13.96949h13.9705v-4.65717h-13.9705Z" transform="translate(-53.4117 -23.30306)"/><path class="cls-1" d="M205.00121,209.03255V190.40589h-9.31333v-4.65717h9.31333v-4.65616h4.65616v-4.65717h13.9705v4.65717h-9.31333v4.65616h9.31333v4.65717h-9.31333v18.62666Z" transform="translate(-53.4117 -23.30306)"/><path class="cls-1" d="M237.59837,190.40589v-9.31333h9.31333v9.31333Zm0,13.9705v-9.31333h9.31333v9.31333Z" transform="translate(-53.4117 -23.30306)"/><rect class="cls-4" x="154.9117" y="144.30306" width="20" height="20" transform="translate(276.4117 285.30306) rotate(-180)"/><rect class="cls-4" x="134.9117" y="164.30306" width="20" height="20" transform="translate(236.4117 325.30306) rotate(-180)"/></svg>