<svg id="Layer_1" data-name="Layer 1" xmlns="http://www.w3.org/2000/svg" viewBox="0 0 1133.23282 912.76717"><defs><style>.cls-1{fill:#ffec39;}</style></defs><title>yellow-stars</title><rect class="cls-1" x="494.36683" y="589.03351" width="6.59966" height="6.59966" transform="translate(352.06054 1311.41305) rotate(-135)"/><rect class="cls-1" x="494.36683" y="598.36683" width="6.59966" height="6.59966" transform="translate(345.46089 1327.34604) rotate(-135)"/><rect class="cls-1" x="485.03351" y="589.03351" width="6.59966" height="6.59966" transform="translate(336.12756 1304.8134) rotate(-135)"/><rect class="cls-1" x="485.03351" y="598.36683" width="6.59966" height="6.59966" transform="translate(329.5279 1320.74638) rotate(-135)"/><rect class="cls-1" x="1205.29983" y="776.70017" width="6.59966" height="6.59966" transform="translate(349.93299 1936.93299) rotate(-90)"/><rect class="cls-1" x="1198.70017" y="783.29983" width="6.59966" height="6.59966" transform="translate(336.73367 1936.93299) rotate(-90)"/><rect class="cls-1" x="1198.70017" y="770.10051" width="6.59966" height="6.59966" transform="translate(349.93299 1923.73367) rotate(-90)"/><rect class="cls-1" x="1192.10051" y="776.70017" width="6.59966" height="6.59966" transform="translate(336.73367 1923.73367) rotate(-90)"/><rect class="cls-1" x="852.916" y="683.79972" width="2.91232" height="2.91232" transform="translate(895.28875 1722.27063) rotate(-135)"/><rect class="cls-1" x="852.916" y="687.91836" width="2.91232" height="2.91232" transform="translate(892.37643 1729.30159) rotate(-135)"/><rect class="cls-1" x="848.79736" y="683.79972" width="2.91232" height="2.91232" transform="translate(888.25779 1719.35831) rotate(-135)"/><rect class="cls-1" x="848.79736" y="687.91836" width="2.91232" height="2.91232" transform="translate(885.34547 1726.38927) rotate(-135)"/><rect class="cls-1" x="921.45965" y="293.91232" width="2.91232" height="2.91232" transform="translate(548.88066 1166.61761) rotate(-90)"/><rect class="cls-1" x="918.54733" y="296.82464" width="2.91232" height="2.91232" transform="translate(543.05602 1166.61761) rotate(-90)"/><rect class="cls-1" x="918.54733" y="291" width="2.91232" height="2.91232" transform="translate(548.88066 1160.79298) rotate(-90)"/><rect class="cls-1" x="915.63501" y="293.91232" width="2.91232" height="2.91232" transform="translate(543.05602 1160.79298) rotate(-90)"/><rect class="cls-1" x="89.36683" y="53.03351" width="6.59966" height="6.59966" transform="translate(39.69153 110.02557) rotate(-135)"/><rect class="cls-1" x="89.36683" y="62.36683" width="6.59966" height="6.59966" transform="translate(33.09187 125.95856) rotate(-135)"/><rect class="cls-1" x="80.03351" y="53.03351" width="6.59966" height="6.59966" transform="translate(23.75855 103.42592) rotate(-135)"/><rect class="cls-1" x="80.03351" y="62.36683" width="6.59966" height="6.59966" transform="translate(17.15889 119.3589) rotate(-135)"/><rect class="cls-1" x="159.916" y="956.79972" width="2.91232" height="2.91232" transform="translate(-480.7764 1698.28578) rotate(-135)"/><rect class="cls-1" x="159.916" y="960.91836" width="2.91232" height="2.91232" transform="translate(-483.68872 1705.31674) rotate(-135)"/><rect class="cls-1" x="155.79736" y="956.79972" width="2.91232" height="2.91232" transform="translate(-487.80736 1695.37346) rotate(-135)"/><rect class="cls-1" x="155.79736" y="960.91836" width="2.91232" height="2.91232" transform="translate(-490.71968 1702.40442) rotate(-135)"/><rect class="cls-1" x="844.45965" y="507.91232" width="2.91232" height="2.91232" transform="translate(257.88066 1303.61761) rotate(-90)"/><rect class="cls-1" x="841.54733" y="510.82464" width="2.91232" height="2.91232" transform="translate(252.05602 1303.61761) rotate(-90)"/><rect class="cls-1" x="841.54733" y="505" width="2.91232" height="2.91232" transform="translate(257.88066 1297.79298) rotate(-90)"/><rect class="cls-1" x="838.63501" y="507.91232" width="2.91232" height="2.91232" transform="translate(252.05602 1297.79298) rotate(-90)"/></svg>